<svg width="220" height="95" viewBox="0 0 220 95" fill="none" xmlns="http://www.w3.org/2000/svg">
<path fill-rule="evenodd" clip-rule="evenodd" d="M162.857 -31.3312C204.933 -23.1419 227.312 -72.4522 233.5 -39.1269C239.054 -9.21415 227 50.0965 192.5 68.5965C169.5 80.9299 124.981 84.0228 98.5 77.873C77.5209 72.2037 46.2819 73.4956 24.5 60.873C-10.3263 40.6912 -24.6192 0.875229 -10.0407 -26.4779C13.9788 -71.5448 99.8725 -43.5899 162.857 -31.3312Z" fill="url(#paint0_linear_126_239)"/>
<mask id="mask0_126_239" style="mask-type:alpha" maskUnits="userSpaceOnUse" x="-16" y="-52" width="251" height="133">
<path fill-rule="evenodd" clip-rule="evenodd" d="M162.857 -31.3312C204.933 -23.1419 227.312 -72.4522 233.5 -39.1269C239.054 -9.21415 227 50.0965 192.5 68.5965C169.5 80.9299 124.981 84.0228 98.5 77.873C77.5209 72.2037 46.2819 73.4956 24.5 60.873C-10.3263 40.6912 -24.6192 0.875229 -10.0407 -26.4779C13.9788 -71.5448 99.8725 -43.5899 162.857 -31.3312Z" fill="url(#paint1_linear_126_239)"/>
</mask>
<g mask="url(#mask0_126_239)">
<path d="M172.721 72.4295C175.573 64.3575 179.153 57.2309 182.886 51.749L186.224 63.6553L186.259 47.2911C190.796 41.9585 195.309 39.3022 198.803 40.5403C206.076 43.1149 206.19 61.5657 199.057 81.7519C191.925 101.938 180.246 116.216 172.973 113.641C165.702 111.068 165.588 92.6157 172.721 72.4295Z" fill="#F7F1EB"/>
<path d="M165.169 160.128C165.163 160.128 165.159 160.128 165.152 160.127C165.068 160.117 165.006 160.042 165.017 159.957C166.82 143.581 169.586 127.508 173.235 112.183C176.155 99.9223 179.646 88.1099 183.609 77.0752C190.359 58.2826 196.221 48.1286 196.279 48.0286C196.323 47.9546 196.416 47.93 196.49 47.9731C196.564 48.0162 196.589 48.1102 196.546 48.1841C196.487 48.2842 190.637 58.4212 183.896 77.1907C177.675 94.5127 169.402 122.94 165.323 159.993C165.314 160.07 165.246 160.128 165.169 160.128Z" fill="#E6D0BE"/>
<path d="M146.709 73.5058L155.975 76.5594L145.789 71.447C144.832 55.1336 149.532 40.1245 156.297 39.3099C163.763 38.4106 171.635 52.793 173.88 71.4332C176.126 90.0733 171.892 105.912 164.427 106.812C156.96 107.711 149.089 93.3286 146.843 74.6884C146.796 74.2927 146.753 73.8985 146.709 73.5058Z" fill="#E6D0BE"/>
<path d="M165.99 146.67C165.989 146.67 165.989 146.67 165.987 146.67C165.902 146.668 165.835 146.597 165.836 146.513C166.397 118.512 164.526 94.1787 162.858 78.6968C161.05 61.923 159.087 51.6397 159.067 51.5381C159.051 51.4549 159.105 51.3733 159.189 51.3579C159.273 51.341 159.353 51.3964 159.369 51.4796C159.389 51.5812 161.355 61.8768 163.163 78.6629C164.832 94.154 166.703 118.502 166.144 146.519C166.143 146.602 166.073 146.67 165.99 146.67Z" fill="#F7F1EB"/>
<path d="M201.527 101.325L194.367 101.139L202.742 98.6487C207.439 87.6093 207.832 77.5509 203.358 75.3104C198.42 72.8373 189.421 80.8277 183.26 93.1544C177.099 105.481 176.106 117.48 181.045 119.953C185.984 122.426 194.983 114.435 201.144 102.109C201.273 101.847 201.401 101.587 201.527 101.325Z" fill="#E6D0BE"/>
<path d="M132.024 13.5602H96.2802V71.1191H132.024V13.5602Z" fill="#D3BBA3"/>
<path d="M74.3786 29.4486H45.9217V76.9398H74.3786V29.4486Z" fill="#D3BBA3"/>
<path d="M161.731 -4.84595H126.275V91.8596H161.731V-4.84595Z" fill="#E6D0BE"/>
<path d="M161.731 2.63012H126.275C126.191 2.63012 126.121 2.56082 126.121 2.47613C126.121 2.39144 126.191 2.32214 126.275 2.32214H161.731C161.816 2.32214 161.885 2.39144 161.885 2.47613C161.885 2.56082 161.817 2.63012 161.731 2.63012Z" fill="white"/>
<path d="M161.731 9.95226H126.275C126.191 9.95226 126.121 9.88297 126.121 9.79827C126.121 9.71358 126.191 9.64429 126.275 9.64429H161.731C161.816 9.64429 161.885 9.71358 161.885 9.79827C161.885 9.88297 161.817 9.95226 161.731 9.95226Z" fill="white"/>
<path d="M161.731 17.2743H126.275C126.191 17.2743 126.121 17.205 126.121 17.1203C126.121 17.0356 126.191 16.9663 126.275 16.9663H161.731C161.816 16.9663 161.885 17.0356 161.885 17.1203C161.885 17.205 161.817 17.2743 161.731 17.2743Z" fill="white"/>
<path d="M161.731 24.5948H126.275C126.191 24.5948 126.121 24.5255 126.121 24.4409C126.121 24.3562 126.191 24.2869 126.275 24.2869H161.731C161.816 24.2869 161.885 24.3562 161.885 24.4409C161.885 24.5271 161.817 24.5948 161.731 24.5948Z" fill="white"/>
<path d="M161.731 31.917H126.275C126.191 31.917 126.121 31.8477 126.121 31.763C126.121 31.6783 126.191 31.609 126.275 31.609H161.731C161.816 31.609 161.885 31.6783 161.885 31.763C161.885 31.8477 161.817 31.917 161.731 31.917Z" fill="white"/>
<path d="M161.731 39.2391H126.275C126.191 39.2391 126.121 39.1698 126.121 39.0851C126.121 39.0004 126.191 38.9312 126.275 38.9312H161.731C161.816 38.9312 161.885 39.0004 161.885 39.0851C161.885 39.1698 161.817 39.2391 161.731 39.2391Z" fill="white"/>
<path d="M161.731 46.5611H126.275C126.191 46.5611 126.121 46.4919 126.121 46.4072C126.121 46.3225 126.191 46.2532 126.275 46.2532H161.731C161.816 46.2532 161.885 46.3225 161.885 46.4072C161.885 46.4919 161.817 46.5611 161.731 46.5611Z" fill="white"/>
<path d="M161.731 53.8832H126.275C126.191 53.8832 126.121 53.8139 126.121 53.7292C126.121 53.6445 126.191 53.5752 126.275 53.5752H161.731C161.816 53.5752 161.885 53.6445 161.885 53.7292C161.885 53.8139 161.817 53.8832 161.731 53.8832Z" fill="white"/>
<path d="M161.731 61.2037H126.275C126.191 61.2037 126.121 61.1344 126.121 61.0497C126.121 60.965 126.191 60.8958 126.275 60.8958H161.731C161.816 60.8958 161.885 60.965 161.885 61.0497C161.885 61.1344 161.817 61.2037 161.731 61.2037Z" fill="white"/>
<path d="M133.236 92.0135C133.151 92.0135 133.082 91.9442 133.082 91.8595V-4.84601C133.082 -4.93071 133.151 -5 133.236 -5C133.32 -5 133.39 -4.93071 133.39 -4.84601V91.8595C133.39 91.9442 133.322 92.0135 133.236 92.0135Z" fill="white"/>
<path d="M144.226 92.0135C144.141 92.0135 144.072 91.9442 144.072 91.8595V-4.84601C144.072 -4.93071 144.141 -5 144.226 -5C144.31 -5 144.38 -4.93071 144.38 -4.84601V91.8595C144.38 91.9442 144.312 92.0135 144.226 92.0135Z" fill="white"/>
<path d="M155.216 92.0135C155.131 92.0135 155.062 91.9442 155.062 91.8595V-4.84601C155.062 -4.93071 155.131 -5 155.216 -5C155.3 -5 155.37 -4.93071 155.37 -4.84601V91.8595C155.37 91.9442 155.302 92.0135 155.216 92.0135Z" fill="white"/>
<path d="M113.173 32.2234H79.3893V91.7564H113.173V32.2234Z" fill="#E6D0BE"/>
<path d="M85.98 37.6545H83.2975V42.382H85.98V37.6545Z" fill="#F2E6DC"/>
<path d="M93.6624 37.6545H90.9799V42.382H93.6624V37.6545Z" fill="#F2E6DC"/>
<path d="M101.346 37.6545H98.6639V42.382H101.346V37.6545Z" fill="#F2E6DC"/>
<path d="M109.03 37.6545H106.348V42.382H109.03V37.6545Z" fill="#F2E6DC"/>
<path d="M85.98 48.4675H83.2975V53.1949H85.98V48.4675Z" fill="#F2E6DC"/>
<path d="M93.6624 48.4675H90.9799V53.1949H93.6624V48.4675Z" fill="#F2E6DC"/>
<path d="M101.346 48.4675H98.6639V53.1949H101.346V48.4675Z" fill="#F2E6DC"/>
<path d="M109.03 48.4675H106.348V53.1949H109.03V48.4675Z" fill="#F2E6DC"/>
<path d="M85.98 59.2805H83.2975V64.0079H85.98V59.2805Z" fill="#F2E6DC"/>
<path d="M93.6624 59.2805H90.9799V64.0079H93.6624V59.2805Z" fill="#F2E6DC"/>
<path d="M101.346 59.2805H98.6639V64.0079H101.346V59.2805Z" fill="#F2E6DC"/>
<path d="M109.03 59.2805H106.348V64.0079H109.03V59.2805Z" fill="#F2E6DC"/>
<path d="M85.98 70.0935H83.2975V74.8209H85.98V70.0935Z" fill="#F2E6DC"/>
<path d="M93.6624 70.0935H90.9799V74.8209H93.6624V70.0935Z" fill="#F2E6DC"/>
<path d="M101.346 70.0935H98.6639V74.8209H101.346V70.0935Z" fill="#F2E6DC"/>
<path d="M109.03 70.0935H106.348V74.8209H109.03V70.0935Z" fill="#F2E6DC"/>
<path d="M85.98 80.9049H83.2975V85.6323H85.98V80.9049Z" fill="#F2E6DC"/>
<path d="M93.6624 80.9049H90.9799V85.6323H93.6624V80.9049Z" fill="#F2E6DC"/>
<path d="M101.346 80.9049H98.6639V85.6323H101.346V80.9049Z" fill="#F2E6DC"/>
<path d="M109.03 80.9049H106.348V85.6323H109.03V80.9049Z" fill="#F2E6DC"/>
<path d="M174.706 36.3563H132.407V145.028H174.706V36.3563Z" fill="#D3BBA3"/>
<path d="M140.659 43.5953H137.301V49.898H140.659V43.5953Z" fill="#F2E6DC"/>
<path d="M150.28 43.5953H146.922V49.898H150.28V43.5953Z" fill="#F2E6DC"/>
<path d="M159.9 43.5953H156.542V49.898H159.9V43.5953Z" fill="#F2E6DC"/>
<path d="M169.52 43.5953H166.161V49.898H169.52V43.5953Z" fill="#F2E6DC"/>
<path d="M140.659 57.4156H137.301V63.7183H140.659V57.4156Z" fill="#F2E6DC"/>
<path d="M150.28 57.4156H146.922V63.7183H150.28V57.4156Z" fill="#F2E6DC"/>
<path d="M159.9 57.4156H156.542V63.7183H159.9V57.4156Z" fill="#F2E6DC"/>
<path d="M169.52 57.4156H166.161V63.7183H169.52V57.4156Z" fill="#F2E6DC"/>
<path d="M140.659 71.2345H137.301V77.5372H140.659V71.2345Z" fill="#F2E6DC"/>
<path d="M150.28 71.2345H146.922V77.5372H150.28V71.2345Z" fill="#F2E6DC"/>
<path d="M159.9 71.2345H156.542V77.5372H159.9V71.2345Z" fill="#F2E6DC"/>
<path d="M169.52 71.2345H166.161V77.5372H169.52V71.2345Z" fill="#F2E6DC"/>
<path d="M142.609 58.3997H100.31V132.94H142.609V58.3997Z" fill="#F7F1EB"/>
<path d="M108.562 65.1998H105.204V71.1191H108.562V65.1998Z" fill="white"/>
<path d="M118.182 65.2H114.823V71.1192H118.182V65.2Z" fill="white"/>
<path d="M127.803 65.2H124.444V71.1192H127.803V65.2Z" fill="white"/>
<path d="M137.422 65.2H134.064V71.1192H137.422V65.2Z" fill="white"/>
<path d="M108.562 78.7385H105.204V84.6578H108.562V78.7385Z" fill="white"/>
<path d="M118.182 78.7385H114.823V84.6578H118.182V78.7385Z" fill="white"/>
<path d="M127.803 78.7385H124.444V84.6578H127.803V78.7385Z" fill="white"/>
<path d="M137.422 78.7385H134.064V84.6578H137.422V78.7385Z" fill="white"/>
<path d="M81.2988 58.3997H39V143.635H81.2988V58.3997Z" fill="#F7F1EB"/>
<path d="M47.2522 65.1998H43.8937V71.1191H47.2522V65.1998Z" fill="white"/>
<path d="M56.8733 65.2H53.5148V71.1192H56.8733V65.2Z" fill="white"/>
<path d="M66.4929 65.2H63.1344V71.1192H66.4929V65.2Z" fill="white"/>
<path d="M76.1124 65.2H72.754V71.1192H76.1124V65.2Z" fill="white"/>
<path d="M47.2522 78.7385H43.8937V84.6578H47.2522V78.7385Z" fill="white"/>
<path d="M56.8733 78.7384H53.5148V84.6577H56.8733V78.7384Z" fill="white"/>
<path d="M66.4929 78.7384H63.1344V84.6577H66.4929V78.7384Z" fill="white"/>
<path d="M76.1124 78.7384H72.754V84.6577H76.1124V78.7384Z" fill="white"/>
<path d="M78.5426 222.243H184.569L184.569 79.6389H78.5426L78.5426 222.243Z" fill="white"/>
<path d="M162.073 63.2578H101.04V81.861H162.073V63.2578Z" fill="#363E44"/>
<path d="M131.902 70.6724C126.417 70.6724 121.956 66.2098 121.956 60.7248C121.956 55.2398 126.419 50.7772 131.902 50.7772C137.386 50.7772 141.848 55.2398 141.848 60.7248C141.848 66.2098 137.387 70.6724 131.902 70.6724ZM131.902 51.0867C126.588 51.0867 122.264 55.4107 122.264 60.7263C122.264 66.042 126.588 70.3659 131.902 70.3659C137.216 70.3659 141.54 66.042 141.54 60.7263C141.54 55.4107 137.216 51.0867 131.902 51.0867Z" fill="#363E44"/>
<path d="M131.902 67.7235C128.043 67.7235 124.903 64.5837 124.903 60.7248C124.903 56.8659 128.043 53.7261 131.902 53.7261C135.761 53.7261 138.901 56.8659 138.901 60.7248C138.899 64.5837 135.761 67.7235 131.902 67.7235ZM131.902 54.034C128.212 54.034 125.211 57.0353 125.211 60.7248C125.211 64.4143 128.212 67.4155 131.902 67.4155C135.592 67.4155 138.593 64.4143 138.593 60.7248C138.591 57.0368 135.59 54.034 131.902 54.034Z" fill="#363E44"/>
</g>
<defs>
<linearGradient id="paint0_linear_126_239" x1="-12.2535" y1="45.3493" x2="224.208" y2="6.05512" gradientUnits="userSpaceOnUse">
<stop stop-color="#F2E6DC"/>
<stop offset="1" stop-color="#F2E6DC"/>
</linearGradient>
<linearGradient id="paint1_linear_126_239" x1="-12.2535" y1="45.3493" x2="224.208" y2="6.05512" gradientUnits="userSpaceOnUse">
<stop stop-color="#F2E6DC"/>
<stop offset="1" stop-color="#F2E6DC"/>
</linearGradient>
</defs>
</svg>
