<svg width="310" height="310" viewBox="0 0 310 310" fill="none" xmlns="http://www.w3.org/2000/svg">
<g clip-path="url(#clip0_21_108)">
<rect width="310" height="310" fill="white"/>
<path d="M280.046 328.544C338.337 328.544 385.591 316.059 385.591 300.658C385.591 285.257 338.337 272.772 280.046 272.772C221.754 272.772 174.5 285.257 174.5 300.658C174.5 316.059 221.754 328.544 280.046 328.544Z" fill="#849BFF"/>
<path fill-rule="evenodd" clip-rule="evenodd" d="M183.589 235.804C178.351 239.076 176 242.353 176 245.386C176 248.419 178.351 251.696 183.589 254.968C188.749 258.191 196.314 261.149 205.797 263.654C224.739 268.659 250.991 271.772 280.046 271.772C309.101 271.772 335.352 268.659 354.295 263.654C363.777 261.149 371.343 258.191 376.502 254.968C381.741 251.696 384.091 248.419 384.091 245.386C384.091 242.353 381.741 239.076 376.502 235.804C371.343 232.581 363.777 229.623 354.295 227.118C335.352 222.113 309.101 219 280.046 219C250.991 219 224.739 222.113 205.797 227.118C196.314 229.623 188.749 232.581 183.589 235.804ZM205.03 224.217C224.288 219.129 250.809 216 280.046 216C309.282 216 335.803 219.129 355.061 224.217C364.679 226.758 372.57 229.81 378.092 233.259C383.536 236.66 387.091 240.718 387.091 245.386C387.091 250.054 383.536 254.112 378.092 257.513C372.57 260.962 364.679 264.014 355.061 266.555C335.803 271.643 309.282 274.772 280.046 274.772C250.809 274.772 224.288 271.643 205.03 266.555C195.413 264.014 187.522 260.962 182 257.513C176.556 254.112 173 250.054 173 245.386C173 240.718 176.556 236.66 182 233.259C187.522 229.81 195.413 226.758 205.03 224.217Z" fill="#849BFF"/>
<g opacity="0.8">
<path fill-rule="evenodd" clip-rule="evenodd" d="M36 342.63H86.9999L86.9999 245H77.8743C72.3722 245 66.9244 246.107 61.8424 248.257C56.7603 250.407 52.1441 253.557 48.2566 257.527C44.3693 261.498 41.2868 266.21 39.1842 271.394C37.0816 276.579 35.9998 282.135 36 287.745L36 342.63ZM38 340.63L38 287.745C37.9998 282.392 39.0321 277.091 41.0375 272.146C43.043 267.201 45.982 262.709 49.6857 258.927C53.3894 255.144 57.7852 252.145 62.6216 250.099C67.4579 248.053 72.6407 247 77.8743 247H84.9999L84.9999 340.63H38Z" fill="#FFA057"/>
<path d="M85.7521 252.92H86V246H78.6234V246.216C82.1624 246.985 84.9397 249.598 85.7521 252.92Z" fill="#FFA057"/>
</g>
<path fill-rule="evenodd" clip-rule="evenodd" d="M-7.1368 340.63C4.38861 340.63 15.4409 336.077 23.5889 327.973C31.7368 319.869 36.3132 308.879 36.3132 297.42L36.3132 247H-12.0001L-12.0001 340.63H-7.1368ZM24.9993 329.391C16.4754 337.869 4.91556 342.63 -7.1368 342.63H-14.0001L-14.0001 245H38.3132L38.3132 297.42C38.3132 309.412 33.5234 320.912 24.9993 329.391Z" fill="#FFA057"/>
<path d="M37.0587 252.92H37.3132V246H29.7408V246.216C33.3728 246.985 36.2264 249.598 37.0587 252.92Z" fill="#FFA057"/>
<path fill-rule="evenodd" clip-rule="evenodd" d="M274.45 -10C262.925 -10 251.872 -5.44621 243.724 2.65788C235.576 10.7618 231 21.7519 231 33.2102V83.6304H279.313V-10H274.45ZM242.314 1.23985C250.838 -7.23811 262.398 -12 274.45 -12H281.313V85.6304H229V33.2102C229 21.2179 233.79 9.71798 242.314 1.23985Z" fill="#FFA057"/>
<path fill-rule="evenodd" clip-rule="evenodd" d="M279.315 -12H331.628V85.6304H322.285C316.643 85.6304 311.056 84.5251 305.843 82.3773C300.629 80.2296 295.892 77.0815 291.902 73.1124C287.912 69.1434 284.746 64.4312 282.586 59.2447C280.426 54.0582 279.315 48.4992 279.315 42.8852V-12ZM281.315 -10V42.8852C281.315 48.2351 282.374 53.5328 284.433 58.4758C286.491 63.4189 289.508 67.9106 293.312 71.6944C297.117 75.4782 301.633 78.48 306.604 80.5281C311.576 82.5762 316.904 83.6304 322.285 83.6304H329.628V-10H281.315Z" fill="#FFA057"/>
<path d="M230.255 77.7105H230V84.6305H237.572V84.4143C233.94 83.6456 231.087 81.0328 230.255 77.7105Z" fill="#FFA057"/>
<path d="M280.059 77.7105H280.313V84.6305H272.741V84.4143C276.38 83.6456 279.225 81.0328 280.059 77.7105Z" fill="#FFA057"/>
</g>
<defs>
<clipPath id="clip0_21_108">
<rect width="310" height="310" fill="white"/>
</clipPath>
</defs>
</svg>
