<svg width="310" height="310" viewBox="0 0 310 310" fill="none" xmlns="http://www.w3.org/2000/svg">
<rect x="155" width="155" height="310" fill="#FDE3DB"/>
<rect width="155" height="310" fill="#EDD7D5"/>
<path d="M13 157C13 78.5755 76.5756 15 155 15V15C233.424 15 297 78.5756 297 157V283.086H13V157Z" fill="white"/>
<path d="M149.063 56.5001C150.961 56.5001 152.5 54.961 152.5 53.0626C152.5 51.1641 150.961 49.6251 149.063 49.6251C147.164 49.6251 145.625 51.1641 145.625 53.0626C145.625 54.961 147.164 56.5001 149.063 56.5001Z" fill="#EDD7D5"/>
<path d="M149.062 57.1251C146.822 57.1251 145 55.3026 145 53.0626C145 50.8226 146.822 49.0001 149.062 49.0001C151.302 49.0001 153.125 50.8226 153.125 53.0626C153.125 55.3026 151.302 57.1251 149.062 57.1251ZM149.062 50.2501C147.512 50.2501 146.25 51.5119 146.25 53.0626C146.25 54.6132 147.512 55.8751 149.062 55.8751C150.613 55.8751 151.875 54.6132 151.875 53.0626C151.875 51.5119 150.613 50.2501 149.062 50.2501Z" fill="#EDD7D5"/>
<path d="M159.687 56.5001C161.586 56.5001 163.125 54.961 163.125 53.0626C163.125 51.1641 161.586 49.6251 159.687 49.6251C157.789 49.6251 156.25 51.1641 156.25 53.0626C156.25 54.961 157.789 56.5001 159.687 56.5001Z" fill="#EDD7D5"/>
<path d="M159.687 57.1251C157.447 57.1251 155.625 55.3026 155.625 53.0626C155.625 50.8226 157.447 49.0001 159.687 49.0001C161.927 49.0001 163.75 50.8226 163.75 53.0626C163.75 55.3026 161.927 57.1251 159.687 57.1251ZM159.687 50.2501C158.137 50.2501 156.875 51.5119 156.875 53.0626C156.875 54.6132 158.137 55.8751 159.687 55.8751C161.238 55.8751 162.5 54.6132 162.5 53.0626C162.5 51.5119 161.238 50.2501 159.687 50.2501Z" fill="#EDD7D5"/>
<path d="M145.625 53.375C145.279 53.375 145 53.0956 145 52.75C145 47.925 148.925 44 153.75 44C154.096 44 154.375 44.2794 154.375 44.625C154.375 44.9706 154.096 45.25 153.75 45.25C149.614 45.25 146.25 48.6144 146.25 52.75C146.25 53.0956 145.971 53.375 145.625 53.375Z" fill="#EDD7D5"/>
<path d="M156.25 53.375C155.904 53.375 155.625 53.0956 155.625 52.75C155.625 47.925 159.55 44 164.375 44C164.721 44 165 44.2794 165 44.625C165 44.9706 164.721 45.25 164.375 45.25C160.239 45.25 156.875 48.6144 156.875 52.75C156.875 53.0956 156.596 53.375 156.25 53.375Z" fill="#EDD7D5"/>
</svg>
