<svg xmlns="http://www.w3.org/2000/svg" width="600" height="317" viewBox="0 0 600 317" fill="none">
<g clip-path="url(#clip0_331_2)">
<path d="M206.8 143.4C208.5 145 210.4 145.7 212 145.7C212.1 146.2 212.1 146.7 212.2 147.2C214.4 150.2 215.7 151.6 215.6 152.4C215.6 152.7 215.4 153.1 215 153.5C215.5 153.1 215.7 152.6 215.7 152.3C215.8 151.5 214.5 150 212.3 147.1C212.2 146.6 212.2 146.2 212.1 145.7C210.4 145.7 208.5 145 206.8 143.4Z" fill="white"/>
<path d="M229.6 156C229.6 156.2 229.6 156.3 229.5 156.5C229.5 156.8 229.3 157.2 229.2 157.5C229.3 157.2 229.5 156.9 229.5 156.6C229.6 156.4 229.6 156.2 229.6 156Z" fill="white"/>
<path d="M196.2 169C196.1 169 195.9 169.1 195.8 169.1C195.9 169.1 196.1 169 196.2 169C198.8 168.6 201.4 168.4 203.9 168.5C201.4 168.4 198.8 168.6 196.2 169Z" fill="white"/>
<path d="M231.2 200.4L231.6 197.9L231.2 200.4Z" fill="white"/>
<path d="M229.8 155.5C229.9 155.5 229.9 155.6 229.9 155.6C229.9 155.6 229.9 155.5 229.8 155.5C229.7 155.3 229.6 155.1 229.4 155C229.5 155.2 229.7 155.3 229.8 155.5Z" fill="white"/>
<path d="M344.1 61.8C344.6 62 345.1 62.1001 345.6 62.2001C345.2 62.2001 344.6 62 344.1 61.8Z" fill="white"/>
<path d="M228.6 154.2C228.6 155 228.6 155.7 228.6 156.3C228.7 155.6 228.6 154.9 228.6 154.2Z" fill="white"/>
<path d="M420.7 21.1H420.2C420.4 21.2 420.5 21.2 420.7 21.3V21.1Z" fill="white"/>
<path d="M351.6 43.4L351.7 42.2H351.6V43.4Z" fill="white"/>
<path d="M346.5 62.8C348.2 62.7 349.8 62.1 351.2 61C349.9 62.1 348.3 62.7 346.6 62.7C342 62.7 338.2 57.9 338.2 52C338.2 57.9 342 62.7 346.5 62.8Z" fill="white"/>
<path d="M415.1 175.6C416.4 175.6 417.5 175.9 418.6 176.5C417.5 175.9 416.4 175.6 415.1 175.6Z" fill="white"/>
<path d="M434.2 262.9L435.2 262.4H434V262.9H434.2Z" fill="white"/>
<path d="M431.1 264.4H429.8L414.6 272.5C414.6 272.7 414.6 272.9 414.6 273.1L415.2 272.8L431.1 264.4Z" fill="white"/>
<path d="M341.2 43.8C339.3 45.7 338.1 48.7 338.1 52.1C338.1 48.8 339.3 45.8 341.2 43.8Z" fill="white"/>
<path d="M347.5 41.5C349 41.7 350.4 42.5 351.6 43.6V43.4C350.5 42.4 349.3 41.7 347.9 41.4C347.8 41.4 347.6 41.5 347.5 41.5Z" fill="white"/>
<path d="M346.6 41.3C344.5 41.3 342.7 42.3 341.2 43.8C342.7 42.3 344.5 41.4001 346.5 41.4001C346.8 41.4001 347 41.4001 347.3 41.4001C347.4 41.4001 347.5 41.4 347.7 41.3C347.3 41.3 346.9 41.3 346.6 41.3Z" fill="white"/>
<path d="M346.5 62.2999C346.2 62.2999 346 62.3 345.7 62.2C346 62.3 346.2 62.2999 346.5 62.2999Z" fill="white"/>
<path d="M190.9 137.4C190.5 139.9 188.1 141.7 185.6 141.3C185.5 141.4 185.5 141.4 185.5 141.5C188.1 141.8 190.5 140 190.9 137.4Z" fill="white"/>
<path d="M327.4 70.3C333.3 70.3 338.1 74 338.2 78.5C338.2 80.5 337.3 82.3 335.9 83.7C337.3 82.3 338.2 80.5 338.2 78.5C338.1 74 333.3 70.3 327.4 70.3Z" fill="white"/>
<path d="M185.5 141.5C185.3 142 185.2 142.5 185.1 143C185.2 142.5 185.3 142 185.5 141.5Z" fill="white"/>
<path d="M375.2 89.4C375.2 87.3 376.2 85.4 377.7 84C376.2 85.4 375.2 87.3 375.2 89.4C375.2 94 380 97.8 385.9 97.8C380 97.8 375.2 94 375.2 89.4Z" fill="white"/>
<path d="M206.8 134.4C213.9 131.9 217.6 135.7 217.7 139.6C217.7 135.6 214 131.8 206.8 134.3C206.8 134.3 197.3 130 190.5 134.5V134.6C197.3 130.1 206.8 134.4 206.8 134.4Z" fill="white"/>
<path d="M194.7 169.4C194.9 169.4 195 169.3 195.2 169.3C195.1 169.3 194.9 169.3 194.7 169.4Z" fill="white"/>
<path d="M186.8 131.8C187.4 131.9 188 132.1 188.5 132.3C188 132 187.4 131.8 186.8 131.8C184.2 131.3 181.6 133.2 181.2 135.8C181.1 136.1 181.1 136.5 181.2 136.8C181.2 136.5 181.2 136.2 181.2 135.9C181.6 133.2 184.1 131.4 186.8 131.8Z" fill="white"/>
<path d="M187 198.5C186.4 198.5 185.8 198.6 185.2 198.6C185.8 198.6 186.4 198.6 187 198.5Z" fill="white"/>
<path d="M250 155.5C249.9 155.6 249.8 155.7 249.7 155.7C249.8 155.7 249.9 155.6 250 155.5Z" fill="white"/>
<path d="M250.8 154.2C250.7 154.3 250.7 154.3 250.7 154.4C250.8 154.3 250.8 154.3 250.8 154.2Z" fill="white"/>
<path d="M250.1 155C250.1 154.9 250.2 154.9 250.2 154.8C250.2 154.9 250.2 154.9 250.1 155Z" fill="white"/>
<path d="M351.7 42.1V21.1H351.6L351.7 42.1C351.7 42 351.6 42 351.7 42.1Z" fill="white"/>
<path d="M351.1 21.3C351.3 21.2 351.4 21.2 351.6 21.1C362.3 17.3 373.9 15.2 385.9 15.2C373.9 15.2 362.3 17.3 351.6 21.1H351.1V21.3C322.1 31.8 299.1 54.9 288.9 83.9C299.1 54.9 322.1 31.8 351.1 21.3Z" fill="white"/>
<path d="M249.2 156C249 156.1 248.9 156.2 248.8 156.3C248.9 156.2 249.1 156.1 249.2 156Z" fill="white"/>
<path d="M249.6 155.8C249.5 155.9 249.4 155.9 249.2 156C249.3 155.9 249.4 155.9 249.6 155.8Z" fill="white"/>
<path d="M184.8 198.6C184.3 198.6 183.7 198.6 183.2 198.6C183.7 198.6 184.3 198.7 184.8 198.6Z" fill="white"/>
<path d="M461.9 151C461.6 151.4 461.3 151.8 461 152.1L460.1 153L461 152.1C461.4 151.7 461.7 151.4 461.9 151Z" fill="white"/>
<path d="M463.2 76.4C463.5 77.1 463.6 77.9 463.6 78.7C463.6 80.7 462.7 82.5 461.3 83.9C462.7 82.5 463.6 80.7 463.6 78.7C463.6 77.9 463.4 77.1 463.2 76.4Z" fill="white"/>
<path d="M460.1 141.7C460.6 142.1 461 142.4 461.3 142.9C461 142.4 460.6 142.1 460.1 141.7Z" fill="white"/>
<path d="M482.9 152.5L461.4 152.4L461.3 152.5H482.9Z" fill="white"/>
<path d="M407.5 190C407.9 191.5 408.6 192.8 409.5 193.9C408.6 192.8 407.9 191.5 407.5 190C407.3 189 407.1 187.9 407.1 186.7C407.1 188 407.2 189 407.5 190Z" fill="white"/>
<path d="M420.7 83.4H443.4C443.3 83.3 443.3 83.3 443.3 83.2H420.7V83.4V83.4Z" fill="white"/>
<path d="M420.2 195.3L420.1 195.4V215.3H419.7H420.1H420.2V195.3Z" fill="white"/>
<path d="M463.7 78.8C463.7 80.8 462.8 82.5 461.4 83.9H461.6C462.9 82.5 463.7 80.8 463.7 78.8C463.7 78.8 463.7 78.9 463.7 78.8Z" fill="white"/>
<path d="M419.8 60.1C418.4 61.5 416.7 62.2 415 62.2C410.6 62.2 407.1 57.7 407.1 52.1V52.2C407.1 57.8 410.6 62.4 415 62.4C416.7 62.4 418.4 61.7 419.8 60.3L420.7 59.4V59.2L419.8 60.1Z" fill="white"/>
<path d="M452.9 139C453.3 139 453.6 139 454 139C454.7 139 455.4 139.1 456.1 139.3C457.1 139.6 458 139.9 458.9 140.4C459.5 140.7 460 141 460.5 141.4C461.2 141.9 461.8 142.6 462.3 143.3C462.6 143.8 462.9 144.3 463.1 144.8C463.4 145.6 463.6 146.4 463.6 147.2C463.6 146.3 463.4 145.5 463.1 144.7C462.9 144.2 462.6 143.7 462.3 143.2C461.8 142.5 461.2 141.9 460.5 141.3C460 140.9 459.5 140.6 458.9 140.3C458 139.8 457.1 139.4 456.1 139.2C455.4 139.1 454.7 139 454 138.9C453.6 138.9 453.3 138.9 452.9 139C447 138.9 442.2 142.7 442.2 147.3C442.2 142.8 447 139 452.9 139Z" fill="white"/>
<path d="M418.6 62.4C419 62.2 419.3 62 419.7 61.7C419.4 62 419 62.2 418.6 62.4Z" fill="white"/>
<path d="M415.1 41.5C415.6 41.5 416 41.5 416.5 41.6C417.2 41.7 417.9 42 418.5 42.3C419.1 42.6 419.7 43.1 420.2 43.6V43.4001C419.7 42.9001 419.1 42.4 418.5 42.1C417.8 41.8 417.2 41.5001 416.5 41.4001C416 41.3001 415.6 41.3 415.1 41.3C410.4 41.3 406.7 46.1 406.7 52C406.7 52.1 406.7 52.1 406.7 52.1C406.7 46.2 410.4 41.4 415.1 41.5C410.5 41.4 406.7 46.2 406.7 52.1C406.7 52.1 406.7 52.1001 406.7 52.2001C406.7 46.3001 410.5 41.5 415.1 41.5Z" fill="white"/>
<path d="M460.9 83.5C461.3 83.2 461.6 82.8 461.8 82.4C461.6 82.8 461.2 83.1 460.9 83.5Z" fill="white"/>
<path d="M415.1 176.1C417 176 418.8 176.8 420.2 178.2C418.8 176.8 417 176 415.1 176C410.5 176 406.7 180.8 406.7 186.7C406.7 180.8 410.5 176 415.1 176.1Z" fill="white"/>
<path d="M444.3 83.9H444.5C443.1 82.5 442.2 80.8 442.2 78.8V78.9C442.2 80.8 443 82.5 444.3 83.9Z" fill="white"/>
<path d="M415.1 176.2C417 176.2 418.8 177 420.2 178.4V152.7V152.6H444.5L444.4 152.5H420.2V152.6V178.2V178.3C418.8 176.9 417 176.1 415.1 176.2C410.4 176.1 406.7 180.9 406.7 186.8C406.7 186.8 406.7 186.8 406.7 186.9C406.7 181 410.4 176.2 415.1 176.2Z" fill="white"/>
<path d="M407.1 191.7C406.9 191.2 406.7 190.6 406.6 190H340.7H406.6C406.7 190.6 406.9 191.1 407.1 191.7Z" fill="white"/>
<path d="M410.4 194.9C410.9 195.4 411.4 195.7 412 196.1C411.4 195.8 410.8 195.4 410.4 194.9Z" fill="white"/>
<path d="M431.1 210.7C427.7 212.3 424.3 213.8 420.7 215.1C424.3 213.8 427.7 212.4 431.1 210.7Z" fill="white"/>
<path d="M420.2 195.2H420.1V195.3L420.2 195.2Z" fill="white"/>
<path d="M420.7 215.3V215.1C420.5 215.2 420.4 215.2 420.2 215.3H420.7Z" fill="white"/>
<path d="M346.5 197.5C347.2 197.5 347.9 197.4 348.6 197.2C347.9 197.4 347.2 197.5 346.5 197.5Z" fill="white"/>
<path d="M345.7 42C345.2 42.1 344.6 42.2 344.2 42.4C344.6 42.2 345.2 42 345.7 42Z" fill="white"/>
<path d="M409.2 195.2C408.5 194.4 407.9 193.5 407.4 192.5C407.9 193.5 408.5 194.4 409.2 195.2Z" fill="white"/>
<path d="M343.4 42.7C342.9 43 342.5 43.2999 342.1 43.5999C342.5 43.2999 342.9 43 343.4 42.7Z" fill="white"/>
<path d="M460.1 141.7C459.6 141.3 459.1 141 458.6 140.7C459.1 141 459.6 141.3 460.1 141.7Z" fill="white"/>
<path d="M350.5 196.2C350.1 196.5 349.7 196.7 349.3 196.9C349.7 196.7 350.1 196.5 350.5 196.2Z" fill="white"/>
<path d="M415.1 197.4C412.7 197.4 410.7 196.2 409.1 194.3C409.4 194.7 409.7 195 410.1 195.4C411.5 196.7 413.2 197.5 415.1 197.4C416.9 197.4 418.6 196.7 419.9 195.5C418.6 196.7 416.9 197.4 415.1 197.4Z" fill="white"/>
<path d="M420.7 193.9L419.8 194.8C419.5 195.1 419.1 195.5 418.7 195.7C419.1 195.4 419.5 195.1 419.8 194.8L420.7 193.9Z" fill="white"/>
<path d="M462.5 83.2C462.5 83.3 462.4 83.3 462.4 83.4H482.7C482.8 83.5 482.8 83.7 482.9 83.8V83.9H483C483 83.8 482.9 83.7 482.9 83.6C482.8 83.5 482.8 83.3 482.7 83.2H462.5Z" fill="white"/>
<path d="M452.9 69.6C446.7 69.6 441.7 73.6 441.7 78.5V78.6C441.8 73.8 446.7 69.8 452.9 69.8C459.1 69.8 464 73.7 464.1 78.6V78.5C464.1 73.6 459.1 69.6 452.9 69.6Z" fill="white"/>
<path d="M422.2 21.9C421.9 21.8 421.6 21.7 421.4 21.6C421.6 21.7 421.9 21.8 422.2 21.9Z" fill="white"/>
<path d="M409.8 195.7C411.3 197.1 413.1 198 415.1 198C416.7 198 418.3 197.5 419.7 196.4C418.3 197.5 416.7 198 415.1 198C413.1 198 411.2 197.1 409.8 195.7Z" fill="white"/>
<path d="M342.1 60.5C342.5 60.9 343 61.2 343.4 61.4C342.9 61.2 342.5 60.9 342.1 60.5Z" fill="white"/>
<path d="M482.7 83.2C472.5 54.9 450.2 32.4 422.2 21.9C450.2 32.4 472.4 54.9 482.7 83.2Z" fill="white"/>
<path d="M212 154.3C212.2 154.3 212.4 154.3 212.6 154.3C212.6 154.9 212.5 155.5 212.4 156C212.2 157.4 211.7 158.6 211 159.5C211.7 160 212.4 160.7 213 161.7C213 161.7 213.1 161.7 213.1 161.6C212.5 160.6 211.8 159.9 211.1 159.4C211.9 158.5 212.3 157.3 212.5 155.9C212.6 155.4 212.7 154.9 212.7 154.3H212.6C212.4 154.3 212.2 154.3 212 154.3Z" fill="white"/>
<path d="M135.9 145.4C136.3 146.9 137.5 147.8 139 147.8C137.6 147.8 136.2 146.9 135.9 145.4Z" fill="white"/>
<path d="M220.8 172C221 172.1 221.2 172.2 221.3 172.2C221.2 172.2 221.1 172.1 220.8 172Z" fill="white"/>
<path d="M250.7 154.2C251.4 152.8 252.1 151.6 252.6 151C252.1 151.6 251.3 152.8 250.7 154.2Z" fill="white"/>
<path d="M141.9 144C141.5 142.3 139.9 141.3 138.2 141.7C139.9 141.3 141.5 142.4 141.9 144Z" fill="white"/>
<path d="M139.6 147.7C141.1 147.3 142 146.1 142 144.6C142 146 141.1 147.4 139.6 147.7Z" fill="white"/>
<path d="M178.9 161.1C181.3 158 182.5 155.2 183.3 152.6C182.5 155.2 181.2 158 178.9 161.1Z" fill="white"/>
<path d="M138.2 141.7C136.7 142.1 135.8 143.3 135.8 144.8C135.8 143.4 136.7 142 138.2 141.7Z" fill="white"/>
<path d="M220.8 172C220.4 172 219.9 172.1 219.5 172.2C219.9 172.1 220.4 172 220.8 172Z" fill="white"/>
<path d="M252.5 163.6C252.5 163.6 251.4 171.4 250.1 179.5C251.4 171.4 252.5 163.6 252.5 163.6L242.1 162L252.5 163.6Z" fill="white"/>
<path d="M253.5 154.4C253.2 155.2 253.1 155.9 253.1 156.7C252.8 157.9 252.6 158.4 252.6 158.6L252.8 158.7C252.8 158.7 252.9 158.4 253.2 157.1C253.2 157 253.2 156.8 253.2 156.7C253.2 155.9 253.3 155.2 253.5 154.4Z" fill="white"/>
<path d="M253.9 153.3C253.8 153.5 253.7 153.8 253.7 154.1C253.8 153.8 253.8 153.6 253.9 153.3Z" fill="white"/>
<path d="M125.1 145.4C125.5 147.1 127.1 148.1 128.8 147.7C127.2 148.1 125.5 147 125.1 145.4Z" fill="white"/>
<path d="M462.8 80.6C462.9 80.2 463 79.8 463.1 79.3C463 79.8 462.9 80.2 462.8 80.6Z" fill="white"/>
<path d="M246.7 199C246.6 199.3 246.5 199.6 246.4 199.9C246.5 199.6 246.6 199.3 246.7 199C246.9 198.5 247 198.1 247.1 197.7C247.5 196.2 248.9 187.6 250.1 179.5C248.9 187.6 247.5 196.2 247.1 197.7C247 198.1 246.9 198.5 246.7 199Z" fill="white"/>
<path d="M253.6 154.9C253.5 155.6 253.3 156.3 253.2 156.7C253.3 156.2 253.4 155.6 253.6 154.9Z" fill="white"/>
<path d="M245.2 201.8C245 201.9 244.9 202.1 244.8 202.2C244.6 202.4 244.3 202.7 244 202.9C243 203.7 241.7 204.1 240 204C239.6 204 239.1 203.9 238.6 203.8C238.1 203.7 237.6 203.5 237 203.3C235.1 202.6 233 201.5 231.2 200.4V200.5C231.2 200.5 231.2 200.5 231.1 200.5L227.5 198.2L227.4 198.1C227.3 198.1 227.3 198 227.2 198L220.6 193.8C217.7 191.9 214.7 190.1 214.7 190.1C214.7 190.1 217.7 191.9 220.6 193.8C220.2 196.4 219.7 200.8 219.7 205.3C219.7 205.3 219.7 205.3 219.7 205.4C219.7 200.9 220.2 196.5 220.6 193.9L227.2 198.1C227.3 198.1 227.3 198.2 227.4 198.2L227.5 198.3L231.1 200.6C231.2 200.6 231.2 200.6 231.2 200.6V200.5C233 201.6 235.1 202.7 237 203.4C237.5 203.6 238.1 203.8 238.6 203.9C239.1 204 239.6 204.1 240 204.1C241.7 204.2 243 203.8 244 203C244.3 202.8 244.6 202.6 244.8 202.3C245 202.2 245.1 202 245.2 201.8C245.4 201.6 245.6 201.3 245.8 201C245.9 200.7 246.1 200.4 246.2 200.1C246.1 200.4 245.9 200.7 245.8 200.9C245.6 201.2 245.4 201.5 245.2 201.8Z" fill="white"/>
<path d="M253.8 150.5C253.9 150.7 254.1 151 254.2 151.3C254.1 151 254 150.7 253.8 150.5Z" fill="white"/>
<path d="M214.6 169.9C214.3 169.8 214.1 169.8 213.8 169.7C214.1 169.8 214.3 169.8 214.6 169.9L214.3 170.2L214.6 169.9Z" fill="white"/>
<path d="M221.5 172.1C221.6 172.2 221.6 172.2 221.5 172.1L221.6 171.9L221.5 172.1Z" fill="white"/>
<path d="M113.6 161.2H114.6C105.5 161.2 98 153.8 98 144.6C98 135.4 105.4 128 114.6 128H113.6C104.4 128 97 135.4 97 144.6C97 153.8 104.5 161.2 113.6 161.2Z" fill="white"/>
<path d="M116.6 141.7C115.1 142.1 114.2 143.3 114.2 144.8C114.2 143.4 115.1 142.1 116.6 141.7Z" fill="white"/>
<path d="M131.1 144C131.5 145.6 130.4 147.3 128.8 147.7C130.5 147.3 131.5 145.7 131.1 144C130.7 142.3 129.1 141.3 127.4 141.7C129.1 141.3 130.7 142.4 131.1 144Z" fill="white"/>
<path d="M216.6 175.1C216.8 174.9 217 174.6 217.2 174.4C217 174.6 216.8 174.9 216.6 175.1Z" fill="white"/>
<path d="M216.9 173.8C217.1 173.6 217.3 173.4 217.6 173.2C217.4 173.4 217.1 173.6 216.9 173.8Z" fill="white"/>
<path d="M223.3 173.5C223.7 173.9 224.2 174.4 224.7 174.8C224.3 174.4 223.8 173.9 223.3 173.5Z" fill="white"/>
<path d="M127.4 141.7C125.9 142.1 125 143.3 125 144.8C125 143.4 125.9 142 127.4 141.7Z" fill="white"/>
<path d="M120.3 144C119.9 142.3 118.3 141.3 116.6 141.7C118.3 141.3 119.9 142.4 120.3 144Z" fill="white"/>
<path d="M114.3 145.4C114.7 147.1 116.3 148.1 118 147.7C116.4 148.1 114.7 147 114.3 145.4Z" fill="white"/>
<path d="M181.3 188.1L182.1 193.9L182.7 198.6L182.1 193.9L181.3 188.1Z" fill="white"/>
<path d="M118 147.7C119.5 147.3 120.4 146.1 120.4 144.6C120.4 146 119.5 147.4 118 147.7Z" fill="white"/>
<path d="M254.1 152.7C254.1 152.9 254 153.1 253.9 153.3C254 153.1 254.1 152.9 254.1 152.7C254.3 152.2 254.3 151.7 254.2 151.3C254.3 151.7 254.2 152.1 254.1 152.7Z" fill="white"/>
<path d="M194.9 165.8C198.5 166 202.3 165.7 206.5 164.4C202.3 165.6 198.4 166 194.9 165.8Z" fill="white"/>
<path d="M211.8 146.7C211.8 146.7 211.8 147.2 211.7 147.9C211.8 147.2 211.8 146.7 211.8 146.7Z" fill="white"/>
<path d="M211.7 148.5C211.7 149.1 211.6 149.8 211.6 150.5C211.6 149.8 211.7 149.1 211.7 148.5Z" fill="white"/>
<path d="M206.3 168.6C206.6 168.7 206.9 168.7 207.2 168.7C207.7 168.7 208 168.8 208.4 168.8C209.8 169 211.1 169.2 212.4 169.4C212.6 169.4 212.8 169.5 213.1 169.5C212.9 169.5 212.7 169.4 212.5 169.4C211.1 169.2 209.8 169 208.5 168.8C208.1 168.8 207.7 168.7 207.2 168.6C207.6 168.7 208.1 168.7 208.5 168.8C209.1 168.9 209.8 168.9 210.4 169C211 169.1 211.7 169.2 212.5 169.4C213.2 169.5 214 169.7 214.7 169.8L223.2 160.1L214.7 169.7C214 169.5 213.2 169.4 212.5 169.3C211.8 169.1 211.1 169 210.5 168.9C209.9 168.8 209.3 168.8 208.6 168.7C208.2 168.6 207.7 168.6 207.3 168.5V168.6C207 168.5 206.7 168.5 206.4 168.5L206.6 164.4H206.5L206.3 168.6Z" fill="white"/>
<path d="M212.6 154.3C212.6 153.8 212.7 153.3 212.7 152.9C212.7 153 212.7 153.2 212.7 153.3C212.6 153.6 212.6 154 212.6 154.3Z" fill="white"/>
<path d="M425.8 128.9C423.8 128.9 421.8 127.9 420.3 126.2V126.3C421.8 127.9 423.7 128.9 425.8 128.9Z" fill="white"/>
<path d="M228.8 154.2C228.8 154.4 228.9 154.6 229 154.7C228.9 154.5 228.9 154.4 228.8 154.2C228.7 154.1 228.7 153.9 228.7 153.8L228.6 153.7L228.7 153.8C228.7 153.9 228.7 154.1 228.8 154.2Z" fill="white"/>
<path d="M340.6 250H431V262.4H342.6V262.9V263.4H342.7L343.3 263.7H431.1L430.7 263.9H432H432.2L434 263V262.9H433.6V262.4H432V250V249.9H342.7V249.5V249H340.8H340.7H339.8V250V262.4H340.6V250Z" fill="white"/>
<path d="M248.6 159C248.6 158.9 248.5 158.8 248.5 158.6C248.5 158.8 248.5 158.9 248.6 159Z" fill="white"/>
<path d="M396.6 147.4C396.6 149.4 395.7 151.2 394.3 152.6H394.4C395.8 151.2 396.7 149.4 396.7 147.4C396.7 142.8 391.9 139 386 139C386 139 386 139 385.9 139C391.8 139 396.6 142.8 396.6 147.4Z" fill="white"/>
<path d="M230.7 148.6L230.1 154.1C232.7 154.2 235.2 154.2 236.3 154.3C236.3 154.3 235.3 156.6 233.9 158.9C233.9 158.9 233.9 159 233.8 159H241.5H242.1C242.3 157.5 242.6 156 242.8 154.3L247.6 154.4C247.7 154.2 249.5 148.3 249.5 148.2L250.1 151.2C251.6 149 254.4 147.4 257.7 147.4C262.5 147.4 266.4 150.7 266.5 154.6C266.5 156.2 265.8 157.8 264.6 159H285.6V136.6C286.8 138 288.4 138.9 290.2 138.9C293.9 138.9 297 134.8 297 129.8C297 124.8 294 120.7 290.2 120.7C288.4 120.7 286.8 121.5 285.6 123V100.5H264.3C265.6 101.7 266.4 103.3 266.4 105.1C266.4 109.1 262.5 112.3 257.7 112.3C252.9 112.3 249 109.1 249 105.1C249 103.4 249.8 101.7 251.1 100.5H229.9V122.4C228.8 121.3 227.3 120.6 225.8 120.6C222.1 120.6 219 124.7 219 129.7C219 134.7 222 138.8 225.8 138.8C227.3 138.8 228.8 138.2 229.9 137V149.7C230.2 149 230.5 148.5 230.7 148.6Z" fill="white"/>
<path d="M237 187L242 162.4L242.1 162C242.1 161.7 242 161.4 241.9 161.1C241.9 161.5 241.9 162 241.9 162.4L237 187Z" fill="white"/>
<path d="M351.6 178.2C350.2 176.9 348.5 176.1 346.6 176.1C348.4 176.1 350.2 176.9 351.6 178.2Z" fill="white"/>
<path d="M204.1 151.7C204.1 151.6 204 150.9 204 149.8C204 150.9 204.1 151.7 204.1 151.7Z" fill="white"/>
<path d="M203.2 150.1C203.2 150.2 203.3 150.3 203.3 150.3C203.3 150.3 203.2 150.2 203.2 150.1Z" fill="white"/>
<path d="M230.7 162.9C231 162.7 231.2 162.5 231.5 162.2C231.2 162.4 231 162.6 230.7 162.9L227.4 159.8L226.4 159.9H227.4L230.7 162.9Z" fill="white"/>
<path d="M204.5 154.8C204.8 154.7 205 154.6 205.3 154.5C205 154.6 204.7 154.7 204.5 154.8Z" fill="white"/>
<path d="M248.4 156.1C248.1 156.6 248 157.1 248 157.6C248 158.1 248.2 158.6 248.4 159H248.5C248.3 158.6 248.1 158.1 248.1 157.6C248.1 157.1 248.2 156.6 248.4 156.1C248.7 155.8 248.9 155.7 249.1 155.6C249.1 155.6 249.1 155.7 249.2 155.8C249.2 155.7 249.2 155.7 249.2 155.6H249.3C249.3 155.5 249.2 155.5 249.1 155.4C249.1 155.5 249.1 155.6 249.1 155.6C248.8 155.7 248.6 155.9 248.4 156.1Z" fill="white"/>
<path d="M212.6 153.3C212.6 152.7 212.6 152.2 212.6 151.6C212.6 151.3 212.5 151 212.5 150.6C212.6 151.6 212.6 152.5 212.6 153.3Z" fill="white"/>
<path d="M420.3 110.1V110.2C421.8 108.5 423.7 107.5 425.8 107.5C423.6 107.5 421.8 108.5 420.3 110.1Z" fill="white"/>
<path d="M206.8 143.4C204.7 143.8 204.1 146.5 204 148.7C204.1 146.5 204.7 143.9 206.8 143.4Z" fill="white"/>
<path d="M205.2 149.8C204.9 149.3 204.5 148.9 204 148.7C204.5 149 204.9 149.4 205.2 149.8Z" fill="white"/>
<path d="M224.7 174.8C224.8 174.9 224.8 174.9 224.7 174.8C224.8 174.9 224.8 174.9 224.7 174.8Z" fill="#FDE3A9"/>
<path d="M230.7 162.9L224.8 174.9C227.7 177.6 231.4 181.4 234.1 184.2V184.1C235.3 185.4 236.4 186.4 237 187L241.9 162.4C241.9 162 241.9 161.5 241.9 161.1C241.7 160.4 241.4 159.8 241.5 159H233.8C233.1 160.2 232.3 161.4 231.4 162.2C231.2 162.4 230.9 162.7 230.7 162.9Z" fill="#FDE3A9"/>
<path d="M600 33.1V0H566.5L594 25.8C596.1 28.2 598.1 30.6 600 33.1Z" fill="#FDE3A9"/>
<path d="M183.8 205.2C183.5 203.4 183.2 201.6 182.9 199.7L182.7 198.6C180.6 198.5 178.8 198.1 177.4 197.7C176.7 197.5 176.1 197.3 175.6 197C174.4 196.5 173.7 196.1 173.7 196.1C173.7 196.1 175.9 188.9 177.8 183.4C178.1 182.6 178.3 181.9 178.6 181.2C178.8 180.7 178.9 180.3 179.1 179.9C179.4 179.1 179.7 178.4 180 178C180.1 177.8 180.2 177.6 180.3 177.5C183.8 174.1 188.3 171.5 192.8 170.1C193.4 169.9 194.1 169.7 194.7 169.5H194.6L194.8 166C185.4 165.5 178.9 161.3 178.9 161.3C178.9 161.3 178.9 161.3 178.9 161.2C181.2 158.1 182.5 155.3 183.3 152.7C184.3 149.2 184.4 146.1 185.1 143.2C185.2 142.7 185.3 142.2 185.5 141.7C185.5 141.7 185.4 141.7 185.3 141.7C182.9 141.3 181.2 139.3 181.2 137C181.2 136.7 181.2 136.3 181.2 136C181.6 133.4 184.2 131.5 186.8 131.9C187.4 132 188 132.2 188.5 132.5C189.4 133 190.1 133.7 190.5 134.7C197.3 130.2 206.8 134.5 206.8 134.5C214 132 217.7 135.9 217.7 139.8C217.7 141.6 217 143.4 215.6 144.7C214.6 145.5 213.4 145.9 212.1 145.9C212.2 146.4 212.2 146.8 212.3 147.3C214.5 150.2 215.8 151.7 215.7 152.5C215.6 152.8 215.4 153.3 215 153.7C214.6 154.1 213.8 154.5 212.7 154.5C212.7 155.1 212.6 155.6 212.5 156.1C212.3 157.5 211.9 158.7 211.1 159.6C211.8 160.1 212.5 160.8 213.1 161.8C213.1 161.8 213 161.8 213 161.9C210.8 163.1 208.7 164 206.6 164.6L206.4 168.7C206.7 168.7 207 168.7 207.3 168.8V168.7C207.7 168.8 208.2 168.8 208.6 168.9C209.3 169 209.9 169 210.5 169.1C211.1 169.2 211.8 169.3 212.5 169.5C213.2 169.6 214 169.7 214.7 169.9L223.2 160.3C223.3 159.8 223.6 156.5 224.2 155.2C224.6 154.3 226.5 151.6 226.5 151.6V150.8C226.4 150.8 226.4 150.8 226.3 150.8C226.4 150.3 226.4 150 226.5 149.7V149.1L226.9 148.8C227.5 148.5 227.7 148.9 227.9 149.6C228.2 150.5 228.5 152.5 228.6 154.3C228.6 154.1 228.6 154 228.6 153.9L228.7 154C228.7 154.1 228.7 154.3 228.8 154.4C228.6 153.6 229.3 151.3 229.9 149.9V137C228.8 138.2 227.3 138.8 225.8 138.8C222 138.8 219 134.7 219 129.7C219 124.7 222.1 120.6 225.8 120.6C227.3 120.6 228.8 121.3 229.9 122.4V100.5H251.1C249.8 101.7 249 103.4 249 105.1C249 109.1 252.9 112.3 257.7 112.3C262.5 112.3 266.4 109.1 266.4 105.1C266.4 103.3 265.6 101.7 264.3 100.5H285.6V123C286.8 121.5 288.4 120.7 290.2 120.7C294 120.7 297 124.8 297 129.8C297 134.8 293.9 138.9 290.2 138.9C288.4 138.9 286.8 138 285.6 136.6V159H264.6C265.8 157.8 266.5 156.2 266.5 154.6C266.4 150.7 262.5 147.4 257.7 147.4C254.4 147.4 251.6 148.9 250.1 151.2L250.7 154.2C251.3 152.8 252.1 151.6 252.6 151C253 150.4 253.3 150.1 253.8 150.5C254 150.7 254.1 151 254.2 151.3C254.3 151.7 254.3 152.1 254.1 152.7C254.1 152.9 254 153.1 253.9 153.3C253.8 153.5 253.8 153.8 253.7 154.1C253.7 154.4 253.6 154.6 253.6 154.9C253.5 155.6 253.3 156.3 253.2 156.7C253.2 156.8 253.2 157 253.2 157.1C253.2 157 253.3 156.9 253.3 156.7C253.3 159.1 254.3 161.5 252.6 163.6H252.5C252.5 163.6 251.3 171.4 250.1 179.5C248.9 187.6 247.5 196.2 247.1 197.7C247 198.1 246.9 198.5 246.7 199C246.6 199.3 246.5 199.6 246.4 199.9C246.4 200 246.3 200 246.3 200.1C246.2 200.4 246 200.7 245.9 201C246.1 200.6 246.4 200.1 246.6 199.6C246.4 200.1 246.2 200.6 245.9 201C245.7 201.3 245.5 201.6 245.3 201.9C245.2 202 245.1 202.2 244.9 202.3C244.7 202.6 244.4 202.8 244.1 203C243.1 203.8 241.8 204.2 240.1 204.1C239.7 204.1 239.2 204 238.7 203.9C238.2 203.8 237.6 203.6 237.1 203.4C235.2 202.7 233.1 201.6 231.3 200.5V200.6C231.3 200.6 231.3 200.6 231.2 200.6L227.6 198.3L227.5 198.2C227.4 198.2 227.4 198.1 227.3 198.1L220.7 193.9C220.3 196.5 219.8 200.9 219.8 205.4C219.8 210.9 220.4 216.4 222.9 219.4C224.8 221.7 225.6 223.3 225.7 224.6C225.8 226.2 224.8 227 223.4 227.6C223.3 227.6 223.3 227.7 223.2 227.7C265.5 252.8 312.6 274.4 359.2 278.9C358.3 277.3 357.8 275.5 357.7 273.5L340.5 264.5H339.9V264.2L336.6 262.5H338.7L338.5 262.4H339.9V250V249H340.8V227.5V223.2V194.5C339.2 192.6 338.2 189.8 338.2 186.8C338.2 180.9 342 176.1 346.6 176.1C346.6 176.1 346.6 176.1 346.7 176.1C348.6 176.1 350.3 176.9 351.7 178.2V152.6H351.8H377.6C376.2 151.2 375.3 149.4 375.3 147.4C375.3 142.7 380.1 139 386 139C386 139 386 139 386.1 139C392 139 396.8 142.8 396.8 147.4C396.8 149.4 395.9 151.2 394.5 152.6H419.8V152H419.9H420.3V126.2L420.4 126.3V126.2C421.9 127.9 423.9 128.9 425.9 128.9C430.5 128.9 434.3 124.1 434.3 118.2C434.3 112.3 430.5 107.5 425.9 107.5C423.7 107.5 421.8 108.5 420.4 110.2V110.1L420.3 110.2V84.4H419.9H419.8V83.9H394C395.6 85.4 396.5 87.3 396.5 89.3C396.6 94 391.8 97.8 385.9 97.8C380 97.8 375.2 94 375.2 89.4C375.2 87.3 376.2 85.4 377.7 84H351.6V83.9H351.1V83.7H335.9C337.3 82.3 338.2 80.5 338.2 78.5C338.1 74 333.3 70.3 327.4 70.3C326.7 70.3 325.9 70.4 325.2 70.5C323.5 70.8 321.9 71.4 320.6 72.3C319.3 73.2 318.2 74.3 317.5 75.5C317 76.5 316.7 77.6 316.7 78.8C316.7 80.8 317.6 82.6 319 84H288.9C299.1 55 322.1 31.9 351.1 21.4V21.2H351.6C362.3 17.4 373.9 15.3 385.9 15.3C397.9 15.3 409.5 17.4 420.2 21.2H420.7V21.4C420.9 21.5 421.1 21.6 421.4 21.7C421.7 21.8 422 21.9 422.2 22V21.2H422.7V21.4C422.5 21.3 422.4 21.3 422.2 21.2V22C450.2 32.5 472.5 55 482.7 83.3H482.9V83.7C482.9 83.8 483 83.9 483 84L482.9 83.7C482.9 83.8 483 83.9 483 84H482.9C486.7 94.7 488.8 106.3 488.8 118.3C488.8 130.3 486.7 141.9 482.9 152.6V153.1H482.7C473.7 178.4 455 199 431.1 210.8V223.3V227.6V249H432H433.1V249.5V249.9H432V250V262.4H433.6H434H435.2L434.2 262.9H435.1L434 263.5V264V264.4H433.2L415.9 273.4C415.9 273.9 415.8 274.3 415.8 274.8C417.2 274.4 418.6 274 419.9 273.6C484.7 254.5 561 216.8 600 168V46.8C592 37.6 572.3 8 562.1 0H0V157.3C0.5 157.6 1 158 1.5 158.4C52.7 193.1 129.4 182.9 183.8 205.2ZM224.9 227.7C224.9 227.6 225 227.6 224.9 227.7C225.1 227.6 225.1 227.6 225.1 227.6C225 227.7 225 227.7 224.9 227.7ZM246 203C246.3 202.8 246.5 202.6 246.8 202.3C246.6 202.6 246.3 202.8 246 203ZM247.2 201.9C247.4 201.6 247.6 201.3 247.8 201C247.6 201.3 247.4 201.6 247.2 201.9ZM113.6 128H114.6H140.5H141.5C150.7 128 158.1 135.4 158.1 144.6C158.1 148.1 157 151.4 155.1 154.1L155.7 154.6C155.8 154.4 156 154.3 156.1 154.1L164.5 161.2H163.5H162.5H142.5H141.5H140.5H134.5H133.5H114.6H113.6C104.5 161.2 97 153.8 97 144.6C97 135.4 104.4 128 113.6 128Z" fill="#FDE3A9"/>
<path d="M434 263L432.2 263.9H433.2L433.6 263.7L434 263.5V263.4V263Z" fill="#FDE3A9"/>
<path d="M414.5 273.1C414.5 273.8 414.4 274.5 414.2 275.2C414.4 275.1 414.6 275.1 414.8 275C414.9 274.3 415 273.5 415 272.8L414.5 273.1Z" fill="#FDE3A9"/>
<path d="M600 46.8V33.1C598.1 30.6 596.1 28.2 594 25.8L566.5 0H562.1C572.3 8 592 37.6 600 46.8Z" fill="#FDE3A9"/>
<path d="M430.7 263.9L431.1 263.7H343.3L343.7 263.9H430.7Z" fill="#3C529F"/>
<path d="M414 273.4L414.5 273.1C414.5 272.9 414.5 272.7 414.5 272.5L429.7 264.4H344.5H343.4H343L358.2 272.5C358.2 274.9 358.9 277.1 360.1 278.9C378.3 280.6 396.5 279.6 414.3 275.3V275.2C414.1 275.2 414 275.3 413.8 275.3C413.9 274.7 414 274 414 273.4Z" fill="#3C529F"/>
<path d="M414 273.4C414 274 413.9 274.7 413.8 275.3C414 275.3 414.1 275.2 414.3 275.2C414.4 274.5 414.5 273.8 414.6 273.1L414 273.4Z" fill="#3C529F"/>
<path d="M415.3 275.4C415.4 275.4 415.6 275.3 415.7 275.3C415.7 275.1 415.8 275 415.8 274.8C415.7 274.8 415.6 274.9 415.4 274.9C415.4 275.1 415.3 275.2 415.3 275.4Z" fill="white"/>
<path d="M433.2 264.4H433H432.2L415.6 273.1C415.6 273.7 415.5 274.3 415.4 274.9C415.5 274.9 415.6 274.8 415.8 274.8C415.9 274.4 415.9 273.9 415.9 273.4L433.2 264.4Z" fill="white"/>
<path d="M341.7 263.5L340.6 262.9H341.7V262.4H340.6H339.8V262.5H338.6L341.7 264.1V263.7V263.5Z" fill="white"/>
<path d="M339.8 262.4H338.4L338.6 262.5H339.8V262.4Z" fill="white"/>
<path d="M415.1 272.8L431.2 264.4H431.1L415.1 272.8Z" fill="white"/>
<path d="M414.9 275C414.9 275.2 414.9 275.3 414.8 275.5C415 275.5 415.2 275.4 415.3 275.4C415.3 275.2 415.4 275.1 415.4 274.9C415.2 274.9 415.1 275 414.9 275Z" fill="white"/>
<path d="M415.6 273.1L432.2 264.4H432H431.2L415.1 272.8C415.1 273.5 415 274.3 414.9 275C415.1 275 415.2 274.9 415.4 274.9C415.5 274.3 415.6 273.7 415.6 273.1Z" fill="white"/>
<path d="M415.4 274.9C415.4 275.1 415.3 275.2 415.3 275.4C415.3 275.2 415.4 275.1 415.4 274.9Z" fill="white"/>
<path d="M415.4 274.9C415.5 274.3 415.6 273.7 415.6 273.1C415.6 273.7 415.5 274.3 415.4 274.9Z" fill="white"/>
<path d="M341.7 262.9H340.6L341.7 263.5V263.4V262.9Z" fill="white"/>
<path d="M434 263L434.2 262.9H434V263Z" fill="white"/>
<path d="M434 263.4V263.5L435.1 262.9H434.2L434 263V263.4Z" fill="white"/>
<path d="M431.1 210.7C427.7 212.4 424.3 213.8 420.7 215.1V215.3H420.2V215.4C418.9 215.9 417.5 216.3 416.1 216.7C412 218 407.8 219 403.5 219.7C402.1 219.9 400.6 220.2 399.2 220.4C394.8 221 390.4 221.3 385.9 221.3C381.4 221.2 376.9 220.9 372.6 220.3C369.7 219.9 366.8 219.4 364 218.8C359.8 217.9 355.6 216.7 351.6 215.3V195.3C351.4 195.5 351.2 195.6 351.1 195.8C350.9 196 350.7 196.1 350.5 196.2C350.1 196.5 349.7 196.7 349.3 196.9C349.1 197 348.9 197.1 348.6 197.1C347.9 197.3 347.2 197.4 346.5 197.4C344.3 197.4 342.3 196.3 340.8 194.5V223.1H431.1V210.7V210.7ZM422.7 215.3H422.2H422.1H422.2C422.4 215.2 422.5 215.1 422.7 215.1V215.3Z" fill="#FBC343"/>
<path d="M340.8 194.6L340.7 194.5V223.2H340.8V194.6Z" fill="#FBC343"/>
<path d="M431.1 227.5H340.8V249H342.7H431.1V227.5Z" fill="white"/>
<path opacity="0.9" d="M431.1 227.5H340.8V249H342.7H431.1V227.5Z" fill="#5C80CF"/>
<path d="M340.8 227.5H340.7V249H340.8V227.5Z" fill="#FDE3A9"/>
<path opacity="0.9" d="M340.8 227.5H340.7V249H340.8V227.5Z" fill="#5C80CF"/>
<path d="M431.1 223.2H340.8V227.5H431.1V223.2Z" fill="white"/>
<path opacity="0.9" d="M431.1 223.2H340.8V227.5H431.1V223.2Z" fill="#5C80CF"/>
<path d="M340.8 223.2H340.7V227.5H340.8V223.2Z" fill="#FDE3A9"/>
<path opacity="0.9" d="M340.8 223.2H340.7V227.5H340.8V223.2Z" fill="#5C80CF"/>
<path d="M460.1 153L461 152.1C461.4 151.7 461.7 151.4 461.9 151C462.7 149.9 463.1 148.6 463.1 147.3C463.1 145.6 462.5 144.1 461.3 142.9C460.9 142.5 460.5 142.1 460.1 141.7C459.6 141.3 459.1 141 458.6 140.7C457 139.9 455 139.4 452.9 139.4C450.8 139.4 448.8 139.9 447.2 140.7C446.7 141 446.2 141.3 445.7 141.7C445.2 142.1 444.8 142.4 444.5 142.9C443.4 144.2 442.7 145.7 442.7 147.3C442.7 148.6 443.1 149.9 443.9 151C444.2 151.4 444.5 151.7 444.8 152.1L445.7 153H420.7V179.5V179.6L419.8 178.7C418.4 177.3 416.8 176.6 415 176.6C410.6 176.6 407.1 181.2 407.1 186.7C407.1 187.9 407.3 189 407.5 189.9H431.1V210.6C455 198.8 473.7 178.1 482.7 152.9H460.1V153Z" fill="#FBC343"/>
<path d="M431.1 210.7C455 198.9 473.7 178.3 482.7 153C473.7 178.2 455 198.9 431.1 210.7Z" fill="#FBC343"/>
<path d="M410.4 194.9C410.9 195.4 411.4 195.7 412 196.1C412.9 196.6 414 196.9 415.1 196.9C416.4 196.9 417.6 196.5 418.8 195.7C419.2 195.4 419.6 195.1 419.9 194.8L420.8 193.9V215.1C424.4 213.8 427.8 212.3 431.2 210.7V190H407.6C408 191.5 408.7 192.8 409.5 193.9C409.7 194.3 410 194.6 410.4 194.9ZM422.1 195.2C422.2 195.2 422.1 195.3 422.1 195.2V195.2Z" fill="#FBC343"/>
<path d="M338.2 186.8C338.2 189.7 339.2 192.5 340.7 194.4V190H406.6C406.3 189 406.2 187.9 406.2 186.8C406.2 180.6 410.2 175.6 415.1 175.6C416.4 175.6 417.5 175.9 418.6 176.5C419 176.7 419.3 176.9 419.7 177.2V152.6H394.4H394.3C395.7 151.2 396.6 149.4 396.6 147.4C396.6 142.8 391.8 139 385.9 139C380 139 375.3 142.7 375.3 147.4C375.3 149.4 376.2 151.2 377.6 152.6H377.5H351.7V178.3L351.6 178.2V178.3C350.2 176.9 348.4 176.1 346.6 176.1C342 176.1 338.2 180.9 338.2 186.8Z" fill="#FBC343"/>
<path d="M375.3 147.4C375.3 142.7 380.1 139 385.9 139C380 139 375.2 142.7 375.2 147.4C375.2 149.4 376.1 151.2 377.5 152.6H377.6C376.2 151.2 375.3 149.4 375.3 147.4Z" fill="#FBC343"/>
<path d="M351.7 152.6H351.6V178.2L351.7 178.3V152.6Z" fill="#FBC343"/>
<path d="M338.2 186.8C338.2 180.9 342 176.1 346.6 176.1C346.6 176.1 346.6 176.1 346.5 176.1C341.9 176.1 338.1 180.9 338.1 186.8C338.1 189.8 339.1 192.6 340.7 194.5V194.4C339.2 192.5 338.2 189.7 338.2 186.8Z" fill="#FBC343"/>
<path d="M346.5 197.5C347.2 197.5 347.9 197.4 348.6 197.2C348.8 197.1 349 197 349.3 197C349.7 196.8 350.1 196.6 350.5 196.3C350.7 196.2 350.9 196 351.1 195.9C351.3 195.7 351.5 195.6 351.6 195.4V215.4C355.6 216.8 359.7 218 364 218.9C366.8 219.5 369.7 220 372.6 220.4C377 221 381.4 221.3 385.9 221.4C390.4 221.4 394.8 221.1 399.2 220.5C400.7 220.3 402.1 220.1 403.5 219.8C407.8 219 412 218 416.1 216.8C417.5 216.4 418.8 215.9 420.2 215.5V215.4H420.1H419.7V196.5C418.3 197.6 416.7 198.1 415.1 198.1C413.1 198.1 411.3 197.2 409.8 195.8C409.6 195.6 409.4 195.4 409.3 195.2C408.6 194.4 408 193.5 407.5 192.5C407.4 192.2 407.3 192 407.2 191.7C407 191.2 406.8 190.6 406.7 190H340.8V194.4L340.9 194.5V194.6C342.3 196.4 344.3 197.5 346.5 197.5Z" fill="#FBC343"/>
<path d="M340.8 194.6V194.5L340.7 194.4V194.5L340.8 194.6Z" fill="#FBC343"/>
<path d="M416.1 216.7C412 218 407.8 219 403.5 219.7C407.8 219 412.1 218 416.1 216.7Z" fill="#FBC343"/>
<path d="M346.5 197.5C344.3 197.5 342.3 196.4 340.8 194.6C342.3 196.4 344.3 197.5 346.5 197.5Z" fill="#FBC343"/>
<path d="M351.6 215.3C355.6 216.7 359.7 217.9 364 218.8C359.7 217.9 355.6 216.7 351.6 215.3Z" fill="#FBC343"/>
<path d="M351.1 195.8C351.3 195.6 351.5 195.5 351.6 195.3C351.4 195.5 351.2 195.6 351.1 195.8Z" fill="#FBC343"/>
<path d="M372.6 220.3C377 220.9 381.4 221.2 385.9 221.3C390.4 221.3 394.8 221 399.2 220.4C394.8 221 390.4 221.3 385.9 221.3C381.4 221.2 376.9 220.9 372.6 220.3Z" fill="#FBC343"/>
<path d="M340.8 194.6L340.7 194.5L340.8 194.6Z" fill="#FBC343"/>
<path d="M422.2 21.9V43.6C421.8 43.2 421.2 42.7 420.7 42.4V44.8V45L419.8 44.1C418.4 42.7 416.8 42 415 42C410.6 42 407.1 46.5 407.1 52.1C407.1 57.7 410.6 62.2 415 62.2C416.7 62.2 418.4 61.5 419.8 60.1L420.7 59.2V59.4V83.2H443.3C442.3 81.8 441.7 80.3 441.7 78.7V78.6V78.5C441.7 73.6 446.7 69.6 452.9 69.6C459.1 69.6 464.1 73.6 464.1 78.5V78.6V78.7C464.1 80.3 463.5 81.8 462.5 83.2H482.7C472.4 54.9 450.2 32.4 422.2 21.9Z" fill="#FBC343"/>
<path d="M420.7 42.4001C421.2 42.7001 421.8 43.1 422.2 43.6V21.9C421.9 21.8 421.6 21.7 421.4 21.6C421.2 21.5 421 21.4 420.7 21.3V42.4001Z" fill="#FBC343"/>
<path d="M421.4 21.6C421.2 21.5 421 21.4 420.7 21.3C420.9 21.4 421.1 21.5 421.4 21.6Z" fill="#FBC343"/>
<path d="M482.9 83.6L483 83.9C483 83.8 482.9 83.7 482.9 83.6Z" fill="#FBC343"/>
<path d="M443.4 152C442.3 150.6 441.7 149 441.7 147.3C441.7 142.4 446.7 138.4 452.9 138.4C459.1 138.4 464.1 142.4 464.1 147.3C464.1 149 463.5 150.6 462.4 152H482.9V152.4V152.5C486.7 141.8 488.8 130.2 488.8 118.2C488.8 106.2 486.7 94.6 482.9 83.9V84.1V84.4H460L460.9 83.5C461.2 83.2 461.6 82.8 461.8 82.4C462.2 81.8 462.5 81.2 462.7 80.6C462.8 80.2 462.9 79.8 463 79.3C463 79.1 463 78.9 463 78.7C463 78.2 462.9 77.6 462.8 77.1C462.6 76.3 462.2 75.6 461.8 74.9C460.1 72.4 456.7 70.8 452.8 70.8C448.9 70.8 445.6 72.5 443.8 74.9C443.3 75.6 443 76.3 442.8 77.1C442.7 77.6 442.6 78.2 442.6 78.7C442.6 80.5 443.3 82.2 444.8 83.5L445.7 84.4H420.2V110.1C421.7 108.5 423.5 107.5 425.7 107.5C425.7 107.5 425.7 107.5 425.8 107.5C430.4 107.5 434.2 112.3 434.2 118.2C434.2 124.1 430.4 128.9 425.8 128.9C425.8 128.9 425.8 128.9 425.7 128.9C423.6 128.9 421.7 127.9 420.2 126.3V152H443.4Z" fill="#FBC343"/>
<path d="M434.3 118.2C434.3 112.3 430.5 107.5 425.9 107.5C425.9 107.5 425.9 107.5 425.8 107.5C430.4 107.5 434.2 112.3 434.2 118.2C434.2 124.1 430.4 128.9 425.8 128.9C425.8 128.9 425.8 128.9 425.9 128.9C430.5 128.9 434.3 124.1 434.3 118.2Z" fill="#FBC343"/>
<path d="M420.3 126.3L420.2 126.2V152H420.3V126.3Z" fill="#FBC343"/>
<path d="M420.2 84.4V110.2L420.3 110.1V84.4H420.2Z" fill="#FBC343"/>
<path d="M488.8 118.2C488.8 130.2 486.7 141.8 482.9 152.5C486.7 141.8 488.8 130.2 488.8 118.2C488.8 106.2 486.7 94.6 482.9 83.9C486.7 94.6 488.8 106.2 488.8 118.2Z" fill="#FBC343"/>
<path d="M418.6 62.4C417.5 63 416.3 63.2999 415.1 63.2999C410.2 63.2999 406.2 58.2999 406.2 52.0999C406.2 45.8999 410.2 40.9 415.1 40.9C416.8 40.9 418.3 41.5 419.7 42.5V21.1H420.2C409.5 17.3 397.9 15.2 385.9 15.2C373.9 15.2 362.3 17.3 351.6 21.1H351.7H352.1V42.2999C352.6 42.5999 353.1 43 353.6 43.4V43.5999C353.1 43.0999 352.6 42.8 352.1 42.4V44.7L351.2 43.9C349.8 42.6 348.2 41.9 346.5 41.9C346.3 41.9 346.1 41.9 345.9 41.9C344.9 42.3 344 42.8999 343.2 43.7999C343.9 42.9999 344.8 42.4 345.7 42C345.2 42.1 344.6 42.2 344.2 42.4C344 42.5 343.7 42.6 343.5 42.7C343 43 342.6 43.2999 342.2 43.5999C340.1 45.3999 338.7 48.5 338.7 52C338.7 55.5 340.1 58.6 342.2 60.4C342.6 60.8 343.1 61.0999 343.5 61.2999C343.7 61.3999 344 61.4999 344.2 61.5999C344.7 61.7999 345.2 61.9 345.7 62C346 62 346.2 62.0999 346.5 62.0999C348.2 62.0999 349.8 61.3999 351.2 60.0999L352.1 59.2999V83.7H351.6V84H377.7C376.2 85.4 375.2 87.3 375.2 89.4C375.2 94 380 97.8 385.9 97.8C391.8 97.8 396.6 94 396.5 89.3C396.5 87.3 395.6 85.4 394 83.9H419.7V61.7C419.3 62 419 62.2 418.6 62.4ZM353.1 21.3V21.1H353.6C353.4 21.2 353.3 21.3 353.1 21.3Z" fill="#FBC343"/>
<path d="M396.5 89.3C396.6 94 391.8 97.8 385.9 97.8C391.8 97.8 396.6 94 396.5 89.3C396.5 87.3 395.6 85.4 394 83.9C395.6 85.4 396.5 87.3 396.5 89.3Z" fill="#FBC343"/>
<path d="M420.2 21.1C409.5 17.3 397.9 15.2 385.9 15.2C397.9 15.2 409.5 17.3 420.2 21.1Z" fill="#FBC343"/>
<path d="M351.1 61.8C349.7 62.8 348.2 63.4001 346.6 63.4001C341.7 63.4001 337.7 58.4001 337.7 52.2001C337.7 46.0001 341.7 41 346.6 41C347.3 41 348 41.1 348.6 41.3C349.5 41.3 350.3 41.5 351.1 41.8V21.3C322.1 31.8 299.1 54.9001 288.9 83.9001H319C317.6 82.5001 316.7 80.7 316.7 78.7C316.7 77.5 317 76.5001 317.5 75.4001C318.2 74.1001 319.2 73 320.6 72.2C322 71.4 323.5 70.7001 325.2 70.4001C325.9 70.3001 326.6 70.2 327.4 70.2C333.3 70.2 338.1 73.9001 338.2 78.4001C338.2 80.4001 337.3 82.2 335.9 83.6H351.1V61.8Z" fill="#FBC343"/>
<path d="M351.1 41.9C350.4 41.6 349.8 41.5 349.1 41.4C349.8 41.7 350.5 42 351.1 42.6V41.9Z" fill="#FBC343"/>
<path d="M325.2 70.5C325.9 70.4 326.6 70.3 327.4 70.3C326.7 70.3 325.9 70.4 325.2 70.5Z" fill="#FBC343"/>
<path d="M317.5 75.4C318.2 74.1 319.2 73 320.6 72.2C319.3 73.1 318.2 74.2 317.5 75.4Z" fill="#FBC343"/>
<path d="M325.2 70.5C323.5 70.8 321.9 71.4 320.6 72.3C321.9 71.4 323.5 70.8 325.2 70.5Z" fill="#FBC343"/>
<path d="M319 83.9C317.6 82.5 316.7 80.7 316.7 78.7C316.7 77.5 317 76.5 317.5 75.4C317 76.4 316.7 77.5 316.7 78.7C316.7 80.7 317.6 82.5 319 83.9Z" fill="#FBC343"/>
<path d="M422.7 21.1H422.2C422.4 21.2 422.5 21.2 422.7 21.3V21.1Z" fill="#FDF6E6"/>
<path d="M415.1 41.4C410.4 41.4 406.7 46.2 406.7 52.1C406.7 46.2 410.5 41.4 415.1 41.4Z" fill="#FDF6E6"/>
<path d="M463.2 76.4C463.5 77.1 463.6 77.9 463.6 78.7C463.6 80.7 462.7 82.5 461.3 83.9H461.4C462.8 82.5 463.7 80.8 463.7 78.8C463.7 78 463.5 77.1 463.2 76.4Z" fill="#FDF6E6"/>
<path d="M420.2 83.9H419.8V84.4H420.2V83.9Z" fill="#FDF6E6"/>
<path d="M419.7 83.9V84.4H419.8V83.9H419.7Z" fill="#FDF6E6"/>
<path d="M482.9 83.2H482.7C482.8 83.3 482.8 83.5 482.9 83.6V83.2Z" fill="#FDF6E6"/>
<path d="M455.1 70.5C454.4 70.4 453.7 70.3 452.9 70.3C453.6 70.3 454.4 70.4 455.1 70.5Z" fill="#FDF6E6"/>
<path d="M459.7 72.2C458.4 71.3 456.8 70.7 455.1 70.4C456.8 70.8 458.4 71.4 459.7 72.2Z" fill="#FDF6E6"/>
<path d="M462.8 75.4C463 75.7 463.1 76 463.2 76.3C463.1 76.1 462.9 75.7 462.8 75.4Z" fill="#FDF6E6"/>
<path d="M420.2 43.6C419.7 43.1 419.1 42.6 418.5 42.3C417.9 42 417.2 41.7 416.5 41.6C416 41.5 415.6 41.5 415.1 41.5C410.5 41.5 406.7 46.3 406.7 52.2C406.7 58 410.4 62.7 415.1 62.7C415.6 62.7 416 62.7 416.5 62.6C417.2 62.5 417.9 62.2 418.5 61.9C419.1 61.6 419.7 61.1 420.2 60.6V60.8V83.9H444.3C443 82.5 442.2 80.8 442.2 78.9V78.8V78.7C442.2 74 447 70.4 452.9 70.3C458.8 70.3 463.6 74 463.7 78.7V78.8V78.9C463.7 80.8 462.9 82.5 461.6 83.9H482.9V83.8C482.8 83.7 482.8 83.5 482.7 83.4H462.4C462.5 83.3 462.5 83.3 462.5 83.2H462.4C463.5 81.8 464.1 80.3 464.1 78.6C464 73.8 459.1 69.8 452.9 69.8C446.7 69.8 441.8 73.7 441.7 78.6C441.7 80.3 442.3 81.8 443.4 83.2H443.3C443.3 83.3 443.4 83.3 443.4 83.4H420.7V83.2V59.4L419.8 60.3C418.4 61.7 416.7 62.4 415 62.4C410.6 62.4 407.1 57.8 407.1 52.2V52.1V52C407.1 46.4 410.6 41.8 415 41.8C416.8 41.8 418.4 42.5 419.8 43.9L420.7 44.8V42.4C420.6 42.4 420.6 42.3 420.5 42.3C420.6 42.3 420.6 42.4 420.7 42.4V21.3C420.5 21.2 420.4 21.2 420.2 21.1V43.4V43.6Z" fill="#FDF6E6"/>
<path d="M459.7 72.2C461 73.1 462.1 74.2 462.8 75.4C462.1 74.2 461 73.1 459.7 72.2Z" fill="#FDF6E6"/>
<path d="M443.3 83.2H443.4C442.3 81.8 441.7 80.3 441.7 78.6V78.7C441.7 80.3 442.3 81.8 443.3 83.2Z" fill="#FDF6E6"/>
<path d="M464.1 78.6C464.1 80.3 463.5 81.8 462.4 83.2H462.5C463.5 81.8 464.1 80.3 464.1 78.7C464.1 78.7 464.1 78.6 464.1 78.6Z" fill="#FDF6E6"/>
<path d="M415 42C416.8 42 418.4 42.7 419.8 44.1L420.7 45V44.8L419.8 43.9001C418.4 42.5001 416.8 41.8 415 41.8C410.6 41.8 407.1 46.4 407.1 52V52.1C407.1 46.5 410.6 42 415 42Z" fill="#FDF6E6"/>
<path d="M459.7 72.2C461 73.1 462.1 74.2 462.8 75.4C463 75.7 463.1 76 463.2 76.3C463.5 77.1 463.7 77.9 463.7 78.7V78.6C463.6 73.9 458.8 70.2 452.9 70.2C453.6 70.2 454.4 70.3 455.1 70.4C456.8 70.8 458.4 71.4 459.7 72.2Z" fill="#FDF6E6"/>
<path d="M445.8 84.4L444.9 83.5C443.4 82.2 442.7 80.5 442.7 78.7C442.7 78.2 442.8 77.6 442.9 77.1C443.1 76.3 443.5 75.6 443.9 74.9C445.6 72.4 449 70.8 452.9 70.8C456.7 70.8 460.1 72.5 461.9 74.9C462.4 75.6 462.7 76.3 462.9 77.1C463 77.6 463.1 78.2 463.1 78.7C463.1 78.9 463.1 79.1 463.1 79.3C463.1 79.7 463 80.1 462.8 80.6C462.6 81.2 462.3 81.8 461.9 82.4C461.6 82.8 461.3 83.2 461 83.5L460.1 84.4H483V84.1H461.5C461.6 84 461.6 84 461.7 83.9H461.5H461.4C462.8 82.5 463.7 80.7 463.7 78.7C463.7 77.9 463.5 77.1 463.3 76.4C461.9 73 457.8 70.5 453 70.5C447.1 70.5 442.4 74.2 442.3 78.8C442.3 80.8 443.2 82.5 444.6 83.9H444.4C444.5 84 444.5 84 444.6 84.1H420.3V84.4H420.4H445.8V84.4Z" fill="#FDF6E6"/>
<path d="M462.9 77.1C462.7 76.3 462.3 75.6 461.9 74.9C462.3 75.6 462.7 76.3 462.9 77.1Z" fill="#FDF6E6"/>
<path d="M463.1 78.7C463.1 78.2 463 77.6 462.9 77.1C463 77.6 463.1 78.1 463.1 78.7Z" fill="#FDF6E6"/>
<path d="M443.9 74.9C443.4 75.6 443.1 76.3 442.9 77.1C443.1 76.3 443.5 75.6 443.9 74.9Z" fill="#FDF6E6"/>
<path d="M442.9 77.1C442.8 77.6 442.7 78.2 442.7 78.7C442.7 78.1 442.8 77.6 442.9 77.1Z" fill="#FDF6E6"/>
<path d="M452.9 70.8C449 70.8 445.7 72.5 443.9 74.9C445.7 72.5 449 70.8 452.9 70.8C456.7 70.8 460.1 72.5 461.9 74.9C460.1 72.5 456.8 70.8 452.9 70.8Z" fill="#FDF6E6"/>
<path d="M461.6 83.9C461.5 84 461.5 84 461.4 84.1H482.9V83.9H461.6Z" fill="#FDF6E6"/>
<path d="M459.7 72.2C458.4 71.3 456.8 70.7 455.1 70.4C454.4 70.3 453.7 70.2 452.9 70.2C452.1 70.2 451.4 70.3 450.7 70.4C449 70.7 447.4 71.3 446.1 72.2C444.8 73.1 443.7 74.2 443 75.4C442.5 76.4 442.2 77.5 442.2 78.7V78.8C442.3 74.1 447 70.5 452.9 70.5C457.7 70.5 461.8 72.9 463.2 76.4C463.1 76.1 462.9 75.8 462.8 75.5C462.1 74.2 461 73.1 459.7 72.2Z" fill="#FDF6E6"/>
<path d="M420.2 84.1H444.5C444.4 84 444.4 84 444.3 83.9H420.2V84.1Z" fill="#FDF6E6"/>
<path d="M446.1 72.2C447.4 71.3 449 70.7 450.7 70.4C451.4 70.3 452.1 70.2 452.9 70.2C447 70.2 442.2 73.9 442.2 78.6C442.2 77.5 442.5 76.4 443 75.4C443.7 74.2 444.8 73.1 446.1 72.2Z" fill="#FDF6E6"/>
<path d="M443 75.4C442.5 76.4 442.2 77.5 442.2 78.6C442.2 77.5 442.5 76.4 443 75.4Z" fill="#FDF6E6"/>
<path d="M443 75.4C443.7 74.1 444.7 73 446.1 72.2C444.8 73.1 443.7 74.2 443 75.4Z" fill="#FDF6E6"/>
<path d="M450.7 70.5C449 70.8 447.4 71.4 446.1 72.3C447.4 71.4 449 70.8 450.7 70.5Z" fill="#FDF6E6"/>
<path d="M452.9 70.3C452.2 70.3 451.4 70.4 450.7 70.5C451.4 70.4 452.2 70.3 452.9 70.3Z" fill="#FDF6E6"/>
<path d="M419.7 21.1V42.5C418.3 41.5 416.8 40.9 415.1 40.9C410.2 40.9 406.2 45.9 406.2 52.1C406.2 58.3 410.2 63.3 415.1 63.3C416.3 63.3 417.5 63 418.6 62.4C419 62.2 419.3 62 419.7 61.7V83.9H419.8H420.2V60.8C419.7 61.3 419.1 61.8 418.5 62.1C417.8 62.4 417.2 62.7 416.5 62.8C416 62.9 415.6 62.9 415.1 62.9C410.5 62.9 406.7 58.2 406.7 52.3C406.7 52.2 406.7 52.2 406.7 52.2C406.7 52.1 406.7 52.1 406.7 52.1C406.7 52.1 406.7 52.1 406.7 52C406.7 46.1 410.4 41.3 415.1 41.3C415.6 41.3 416 41.3 416.5 41.4C417.2 41.5 417.8 41.8 418.5 42.1C419.1 42.4 419.7 42.9 420.2 43.4V21.1H419.7Z" fill="#FDF6E6"/>
<path d="M418.5 61.9C417.9 62.2 417.2 62.4999 416.5 62.5999C416 62.6999 415.6 62.7 415.1 62.7C410.4 62.7 406.7 57.9 406.7 52.2C406.7 58 410.5 62.7999 415.1 62.7999C410.4 62.7999 406.7 58.1 406.7 52.2C406.7 52.2 406.7 52.1999 406.7 52.2999C406.7 58.1999 410.5 62.9 415.1 62.9C415.6 62.9 416 62.8999 416.5 62.7999C417.2 62.6999 417.8 62.3999 418.5 62.0999C419.1 61.7999 419.7 61.2999 420.2 60.7999V60.5999C419.7 61.0999 419.1 61.6 418.5 61.9Z" fill="#FDF6E6"/>
<path d="M415.1 62.7999C410.5 62.7999 406.7 58 406.7 52.2C406.7 58.1 410.4 62.7999 415.1 62.7999Z" fill="#FDF6E6"/>
<path d="M482.7 153H482.9V152.5C482.8 152.7 482.8 152.8 482.7 153Z" fill="#FDF6E6"/>
<path d="M420.2 152.6V152.5V152H419.8V152.6H420.2Z" fill="#FDF6E6"/>
<path d="M419.8 152H419.7V152.6H419.8V152Z" fill="#FDF6E6"/>
<path d="M419.9 195.5C418.5 196.7 416.9 197.4 415.1 197.5C417 197.5 418.7 196.7 420.1 195.4V195.3C420 195.4 420 195.4 419.9 195.5Z" fill="#FDF6E6"/>
<path d="M415.1 197.5C413.2 197.5 411.5 196.7 410.1 195.3C411.5 196.7 413.2 197.5 415.1 197.5Z" fill="#FDF6E6"/>
<path d="M422.7 215.3V215.1C422.5 215.1 422.4 215.2 422.2 215.3H422.7Z" fill="#FDF6E6"/>
<path d="M420.2 152.6V178.4C418.8 177 417 176.2 415.1 176.2C410.4 176.2 406.7 181 406.7 186.9C406.7 188 406.8 189.1 407.1 190H407.5C407.2 189 407.1 188 407.1 186.8C407.1 181.2 410.6 176.6 415 176.6C416.8 176.6 418.4 177.3 419.8 178.7L420.7 179.6V153H445.7L444.8 152.1C444.5 151.7 444.1 151.4 443.9 151C443.1 149.9 442.7 148.6 442.7 147.3C442.7 145.6 443.3 144.1 444.5 142.9C444.9 142.5 445.3 142.1 445.7 141.7C446.2 141.3 446.7 141 447.2 140.7C448.8 139.9 450.8 139.4 452.9 139.4C455 139.4 457 139.9 458.6 140.7C459.1 141 459.6 141.3 460.1 141.7C460.6 142.1 461 142.4 461.3 142.9C462.4 144.2 463.1 145.7 463.1 147.3C463.1 148.6 462.7 149.9 461.9 151C461.6 151.4 461.3 151.8 461 152.1L460.1 153H482.7C482.8 152.8 482.8 152.7 482.9 152.5H461.3L461.4 152.4H461.3C462.7 151 463.6 149.2 463.6 147.2C463.6 146.3 463.4 145.5 463.1 144.8C462.9 144.3 462.6 143.8 462.3 143.3C461.8 142.6 461.2 141.9 460.5 141.4C460 141 459.5 140.7 458.9 140.4C458 139.9 457.1 139.6 456.1 139.3C455.4 139.1 454.7 139 454 139C453.6 139 453.3 139 452.9 139C447 139 442.2 142.8 442.2 147.3C442.2 147.8 442.3 148.3 442.4 148.8C442.5 149.4 442.7 150 443 150.5C443.3 151 443.6 151.5 444 152C444.2 152.1 444.3 152.3 444.5 152.5H444.4L444.5 152.6H420.2ZM442.4 148.7C442.5 149.3 442.7 149.9 443 150.4C442.7 149.9 442.5 149.3 442.4 148.7Z" fill="#FDF6E6"/>
<path d="M444.5 142.9C444.9 142.5 445.3 142.1 445.7 141.7C445.2 142.1 444.8 142.4 444.5 142.9Z" fill="#FDF6E6"/>
<path d="M415 176.5C410.6 176.5 407.1 181.1 407.1 186.7C407.1 181.1 410.6 176.6 415 176.6C416.8 176.6 418.4 177.3 419.8 178.7L420.7 179.6V179.5L419.8 178.6C418.4 177.2 416.8 176.5 415 176.5Z" fill="#FDF6E6"/>
<path d="M445.7 153L444.8 152.1C444.5 151.7 444.1 151.4 443.9 151C444.2 151.4 444.5 151.7 444.8 152.1L445.7 153Z" fill="#FDF6E6"/>
<path d="M447.2 140.7C446.7 141 446.2 141.3 445.7 141.7C446.2 141.3 446.7 141 447.2 140.7Z" fill="#FDF6E6"/>
<path d="M482.7 153C482.8 152.8 482.8 152.7 482.9 152.5C482.8 152.7 482.8 152.8 482.7 153Z" fill="#FDF6E6"/>
<path d="M422.1 195.2C422.1 195.3 422.2 195.2 422.1 195.2V195.2Z" fill="#FDF6E6"/>
<path d="M419.8 194.8C419.5 195.1 419.1 195.5 418.7 195.7C417.6 196.5 416.3 196.9 415 196.9C413.9 196.9 412.9 196.6 411.9 196.1C411.3 195.8 410.8 195.4 410.3 194.9C410 194.6 409.7 194.3 409.4 193.9C408.5 192.8 407.9 191.5 407.5 190V190.1H407.1C407.5 191.7 408.2 193.1 409.1 194.3C410.6 196.2 412.7 197.4 415.1 197.4C416.9 197.4 418.6 196.7 419.9 195.5C420 195.4 420 195.4 420.1 195.3V195.2H420.2L420.1 195.3V195.4L420.2 195.3V215.3C420.4 215.2 420.5 215.2 420.7 215.1V193.9L419.8 194.8Z" fill="#FDF6E6"/>
<path d="M420.1 195.3C420 195.4 420 195.4 419.9 195.5C420 195.4 420 195.4 420.1 195.3Z" fill="#FDF6E6"/>
<path d="M407.5 190.1C407.5 190.1 407.5 190 407.5 190.1L407.1 190V190.1H407.5Z" fill="#FDF6E6"/>
<path d="M418.6 176.5C417.5 175.9 416.3 175.6 415.1 175.6C410.2 175.6 406.2 180.6 406.2 186.8C406.2 187.9 406.4 189 406.6 190H407.1C406.8 189 406.7 188 406.7 186.9C406.7 186.9 406.7 186.9 406.7 186.8C406.7 186.8 406.7 186.8 406.7 186.7C406.7 180.8 410.5 176 415.1 176C417 176 418.8 176.8 420.2 178.2V152.6H419.8H419.7V177.2C419.4 176.9 419 176.7 418.6 176.5Z" fill="#FDF6E6"/>
<path d="M406.6 190C406.4 189 406.2 187.9 406.2 186.8C406.2 187.9 406.3 189 406.6 190Z" fill="#FDF6E6"/>
<path d="M406.7 186.9C406.7 188 406.8 189.1 407.1 190C406.8 189 406.7 188 406.7 186.9Z" fill="#FDF6E6"/>
<path d="M406.7 186.9C406.7 188.1 406.8 189.1 407.1 190C406.8 189 406.7 187.9 406.7 186.9Z" fill="#FDF6E6"/>
<path d="M407.5 192.4C408 193.4 408.6 194.3 409.3 195.1C409.5 195.3 409.7 195.5 409.8 195.7C411.3 197.1 413.1 198 415.1 198C416.7 198 418.3 197.5 419.7 196.4V215.3H420.1V195.4C418.7 196.7 417 197.5 415.1 197.5C413.2 197.5 411.5 196.7 410.1 195.3C408.9 194.2 408 192.7 407.4 191C407.3 190.7 407.2 190.4 407.1 190.1V190H406.6C406.7 190.6 406.9 191.1 407.1 191.7C407.2 191.9 407.3 192.2 407.5 192.4Z" fill="#FDF6E6"/>
<path d="M407.4 191C408 192.7 408.9 194.2 410.1 195.3C409.8 195 409.4 194.6 409.1 194.2C408.4 193.3 407.8 192.3 407.4 191Z" fill="#FDF6E6"/>
<path d="M407.1 190.1C407.2 190.4 407.3 190.7 407.4 191C407.3 190.7 407.2 190.4 407.1 190.1Z" fill="#FDF6E6"/>
<path d="M407.1 190.1C407.2 190.4 407.3 190.7 407.4 191C407.8 192.2 408.4 193.3 409.1 194.2C408.2 193.1 407.5 191.7 407.1 190.1Z" fill="#FDF6E6"/>
<path d="M415.1 176.1C410.5 176 406.7 180.8 406.7 186.7C406.7 186.8 406.7 186.8 406.7 186.8C406.7 180.9 410.4 176.1 415.1 176.1Z" fill="#FDF6E6"/>
<path d="M420.2 178.3V178.2C418.8 176.8 417 176 415.1 176.1C417 176.1 418.8 176.9 420.2 178.3Z" fill="#FDF6E6"/>
<path d="M444.4 152.5C444.3 152.4 444.2 152.3 444 152.1C443.6 151.6 443.3 151.1 443 150.6C442.7 150.1 442.5 149.5 442.4 148.9C442.3 148.4 442.2 147.9 442.2 147.4C442.2 147.4 442.2 147.4 442.2 147.3C442.2 147 442.2 146.7 442.3 146.4C442.4 145.8 442.5 145.3 442.7 144.7C442.8 144.4 442.9 144.2 443.1 143.9C443.4 143.4 443.7 142.9 444.1 142.5C446 140.3 449.3 138.8 453 138.8C453.4 138.8 453.7 138.8 454.1 138.8C454.8 138.9 455.5 139 456.2 139.1C457.2 139.3 458.1 139.7 459 140.2C459.6 140.5 460.1 140.8 460.6 141.2C461.3 141.8 461.9 142.4 462.4 143.1C462.7 143.6 463 144.1 463.2 144.6C463.5 145.4 463.7 146.2 463.7 147.1C463.7 147.1 463.7 147.1 463.7 147.2C463.7 149.2 462.8 150.9 461.5 152.3H483V152H462.5C463.6 150.6 464.2 149 464.2 147.3C464.2 142.4 459.2 138.4 453 138.4C446.8 138.4 441.8 142.4 441.8 147.3C441.8 149 442.4 150.6 443.5 152H420.4H420.3V152.5H444.4Z" fill="#FDF6E6"/>
<path d="M444 152C443.6 151.5 443.3 151 443 150.5C442.7 150 442.5 149.4 442.4 148.8C442.3 148.3 442.2 147.8 442.2 147.3C442.2 147.3 442.2 147.3 442.2 147.4C442.2 147.9 442.3 148.4 442.4 148.9C442.5 149.5 442.7 150.1 443 150.6C443.3 151.1 443.6 151.6 444 152.1C444.2 152.3 444.3 152.4 444.4 152.5H444.5C444.3 152.3 444.2 152.1 444 152Z" fill="#FDF6E6"/>
<path d="M461.4 152.4C462.7 151 463.6 149.3 463.6 147.3C463.6 147.3 463.6 147.3 463.6 147.2C463.6 149.2 462.7 151 461.4 152.4Z" fill="#FDF6E6"/>
<path d="M452.9 138.9C449.2 138.9 446 140.3 444 142.6C443.6 143 443.3 143.5 443 144C442.9 144.3 442.7 144.5 442.6 144.8C442.4 145.3 442.2 145.9 442.2 146.5C442.2 146.8 442.1 147.1 442.1 147.4C442.2 142.7 447 138.9 452.9 138.9Z" fill="#FDF6E6"/>
<path d="M442.2 147.3C442.2 147 442.2 146.7 442.3 146.4C442.2 146.7 442.2 147 442.2 147.3Z" fill="#FDF6E6"/>
<path d="M443 144C443.3 143.5 443.6 143 444 142.6C443.6 143 443.3 143.5 443 144Z" fill="#FDF6E6"/>
<path d="M442.3 146.4C442.4 145.8 442.5 145.3 442.7 144.7C442.5 145.3 442.3 145.9 442.3 146.4Z" fill="#FDF6E6"/>
<path d="M353.1 21.3C353.3 21.3 353.4 21.2 353.6 21.1H353.1V21.3Z" fill="#FDF6E6"/>
<path d="M351.6 83.7H351.1V83.9H351.6V83.7Z" fill="#FDF6E6"/>
<path d="M351.7 42.2V42.1H351.6L351.7 42.2C351.7 42.2 351.6 42.2 351.7 42.2Z" fill="#FDF6E6"/>
<path d="M345.7 42C345.8 42 345.8 42 345.9 42C345.8 41.9 345.8 41.9 345.7 42Z" fill="#FDF6E6"/>
<path d="M347.6 41.4C347.5 41.4 347.4 41.4 347.2 41.5C347.3 41.5 347.4 41.5 347.6 41.4C347.6 41.5 347.8 41.5 347.9 41.4C347.8 41.4 347.7 41.4 347.6 41.4Z" fill="#FDF6E6"/>
<path d="M353.6 43.6V43.4001C353.1 43.0001 352.6 42.6 352.1 42.3V42.4001C352.6 42.8001 353.1 43.1 353.6 43.6Z" fill="#FDF6E6"/>
<path d="M343.2 43.8C344 43 344.9 42.4 345.9 41.9C345.8 41.9 345.8 41.9 345.7 41.9C344.8 42.4 343.9 43 343.2 43.8Z" fill="#FDF6E6"/>
<path d="M351.1 41.9001V41.8C350.3 41.5 349.5 41.3 348.6 41.3C348.7 41.3 348.9 41.4001 349 41.4001C349.8 41.5001 350.4 41.7001 351.1 41.9001Z" fill="#FDF6E6"/>
<path d="M347.3 41.4C347.1 41.4 346.8 41.4 346.5 41.4C344.5 41.4 342.7 42.3 341.2 43.8C339.4 45.7 338.2 48.7 338.2 52C338.2 57.9 342 62.7 346.6 62.7C348.3 62.7 349.8 62.1 351.2 61C351.4 60.8 351.6 60.7 351.7 60.5V83.7H351.6V83.9H352.1V59.5L351.2 60.3C349.8 61.6 348.2 62.3 346.5 62.3C346.2 62.3 346 62.3 345.7 62.2C345.2 62.1 344.6 62 344.2 61.8C344 61.7 343.7 61.6 343.5 61.5C343 61.2 342.6 60.9 342.2 60.6C340.1 58.8 338.7 55.7 338.7 52.2C338.7 48.7 340.1 45.6 342.2 43.8C342.6 43.4 343.1 43.1 343.5 42.9C343.7 42.8 344 42.7 344.2 42.6C344.7 42.4 345.2 42.3 345.7 42.2C346.2 41.7 346.7 41.6 347.3 41.4Z" fill="#FDF6E6"/>
<path d="M351.7 43.5L351.6 43.6C350.4 42.4 349 41.7 347.5 41.5C346.9 41.6 346.4 41.7 345.9 42C346.1 42 346.3 42 346.5 42C348.2 42 349.8 42.7 351.2 44L352.1 44.8V42.5C352 42.4 351.8 42.3 351.7 42.3V43.5V43.5Z" fill="#FDF6E6"/>
<path d="M352.1 42.3V21.1H351.7V42.1C351.8 42.1 352 42.2 352.1 42.3Z" fill="#FDF6E6"/>
<path d="M351.2 60.3L352.1 59.5L351.2 60.3C349.8 61.6 348.2 62.3 346.5 62.3C348.2 62.3 349.8 61.6 351.2 60.3Z" fill="#FDF6E6"/>
<path d="M346.5 41.9C348.2 41.9 349.8 42.6 351.2 43.9L352.1 44.7L351.2 43.9C349.8 42.6 348.2 41.9 346.5 41.9Z" fill="#FDF6E6"/>
<path d="M351.7 42.2C351.8 42.3 352 42.3 352.1 42.4V42.3C352 42.2 351.8 42.1 351.7 42.1V42.2Z" fill="#FDF6E6"/>
<path d="M345.7 42C345.8 42 345.8 42 345.9 42C346.4 41.8 347 41.6 347.5 41.5C347.4 41.5 347.3 41.5 347.2 41.5C346.7 41.6 346.2 41.7 345.7 42Z" fill="#FDF6E6"/>
<path d="M346.5 62.8C341.9 62.8 338.1 58 338.1 52.1C338.1 48.7 339.3 45.7 341.2 43.8C342.7 42.3 344.5 41.3 346.6 41.3C346.9 41.3 347.3 41.3 347.6 41.4C347.9 41.4 348.3 41.3 348.6 41.3C347.9 41.1 347.3 41 346.6 41C341.7 41 337.7 46 337.7 52.2C337.7 58.4 341.7 63.4 346.6 63.4C348.2 63.4 349.7 62.8 351.1 61.8V83.7H351.6V60.6C350.2 62 348.4 62.8 346.5 62.8Z" fill="#FDF6E6"/>
<path d="M351.1 41.8C351.3 41.9 351.4 41.9 351.6 42V21.1C351.4 21.2 351.3 21.2 351.1 21.3V41.8Z" fill="#FDF6E6"/>
<path d="M351.1 41.9V42.6C350.5 42.1 349.8 41.7 349.1 41.4C348.9 41.4 348.7 41.4 348.5 41.4C348.3 41.4 348.1 41.4 347.9 41.4C349.3 41.7 350.5 42.4 351.6 43.4V42.2C351.4 42.1 351.3 42 351.1 41.9Z" fill="#FDF6E6"/>
<path d="M347.6 41.4001C347.7 41.4001 347.8 41.4001 347.9 41.4001C348.1 41.4001 348.3 41.4001 348.5 41.4001C348.7 41.4001 348.9 41.4001 349.1 41.4001C349 41.3001 348.8 41.3 348.7 41.3C348.3 41.3 347.9 41.3001 347.6 41.4001Z" fill="#FDF6E6"/>
<path d="M351.6 42.2001V42C351.4 41.9 351.3 41.8 351.1 41.8V41.9001C351.3 42.0001 351.4 42.1001 351.6 42.2001Z" fill="#FDF6E6"/>
<path d="M346.5 62.8C342 62.7 338.2 57.9 338.2 52C338.2 48.7 339.3 45.8 341.2 43.8C339.3 45.8 338.1 48.8 338.1 52.1C338.1 58 341.9 62.8 346.5 62.8Z" fill="#FDF6E6"/>
<path d="M351.7 60.5C351.5 60.7 351.3 60.8 351.2 61C349.9 62.1 348.3 62.7 346.5 62.8C348.4 62.8 350.2 62 351.7 60.5L351.6 83.7H351.7V60.5Z" fill="#FDF6E6"/>
<path d="M341.2 43.8C339.3 45.8 338.2 48.7 338.2 52C338.2 48.7 339.4 45.7 341.2 43.8Z" fill="#FDF6E6"/>
<path d="M351.7 60.5C351.5 60.7 351.3 60.8 351.2 61C351.3 60.8 351.5 60.7 351.7 60.5Z" fill="#FDF6E6"/>
<path d="M342.6 262.4H431V250H340.6V262.4H341.7H342.2H342.6Z" fill="#3C529F"/>
<path d="M433.2 264.4H434V264L433.4 264.3L433.2 264.4Z" fill="white"/>
<path d="M341.7 264.1V264.4H342.3L342.1 264.3L341.7 264.1Z" fill="white"/>
<path d="M432 263.9H430.7L429.8 264.4H431.1L432 263.9Z" fill="white"/>
<path d="M343.7 263.9L344.6 264.4H429.8L430.7 263.9H343.7Z" fill="white"/>
<path d="M342.2 262.4H341.7V262.9H342.2V262.4Z" fill="white"/>
<path d="M341.7 263.7H342.2L341.7 263.5V263.7Z" fill="white"/>
<path d="M341.7 264.1L342.1 264.3L342.3 264.4H342.7H343L341.7 263.7V264.1Z" fill="white"/>
<path d="M342.5 263.9H342.2V263.7H341.7L343 264.4H343.5L342.5 263.9Z" fill="white"/>
<path d="M434 262.4H433.6V262.9H434V262.4Z" fill="white"/>
<path d="M433.6 263.9H433.2L432.2 264.4H433H433.2L433.4 264.3L434 264V263.5L433.6 263.7V263.9Z" fill="white"/>
<path d="M342.5 263.9L343.5 264.4H344.6L343.7 263.9H342.5Z" fill="white"/>
<path d="M341.7 262.9V263.4V263.5L342.2 263.7V262.9H341.7Z" fill="white"/>
<path d="M432.2 263.9H432L431.1 264.4H431.2H432V264L432.2 263.9Z" fill="white"/>
<path d="M432.2 263.9L432 264V264.4H432.2L433.2 263.9H432.2Z" fill="white"/>
<path d="M342.7 249V249.5H432V249H431.1H342.7Z" fill="white"/>
<path d="M433.1 249H432V249.5H433.1V249Z" fill="white"/>
<path d="M342.2 263.9H342.5L342.2 263.7V263.9Z" fill="white"/>
<path d="M433.6 263.7L433.2 263.9H433.6V263.7Z" fill="white"/>
<path d="M342.6 262.4H342.2V262.9H342.6V262.4Z" fill="white"/>
<path d="M342.7 263.4H342.6V262.9H342.2V263.7H343.3L342.7 263.4Z" fill="white"/>
<path d="M343.3 263.7H342.2L342.5 263.9H343.7L343.3 263.7Z" fill="white"/>
<path d="M432 249.5H342.7V249.9H432V249.5Z" fill="white"/>
<path d="M433.1 249.5H432V249.9H433.1V249.5Z" fill="white"/>
<path d="M195.8 169.1C195.9 169.1 196.1 169 196.2 169C198.8 168.5 201.4 168.4 203.9 168.5C204.7 168.5 205.5 168.6 206.3 168.6L206.5 164.4C202.3 165.7 198.5 166 194.9 165.8V165.9L194.7 169.4C194.9 169.4 195 169.3 195.2 169.3C195.4 169.2 195.6 169.1 195.8 169.1Z" fill="#F9B384"/>
<path d="M194.8 165.9L194.6 169.4H194.7L194.8 165.9C194.8 165.9 194.9 165.9 194.8 165.9Z" fill="#F9B384"/>
<path d="M212.2 147.2C212.3 148.3 212.4 149.4 212.5 150.5V150.6C212.5 150.6 212.6 150.6 212.5 150.6C212.5 150.9 212.6 151.2 212.6 151.6C212.6 151.3 212.6 151 212.6 150.6C212.6 150.6 212.5 150.6 212.6 150.6C212.7 151.4 212.7 152.1 212.7 152.9C212.7 153.4 212.7 153.9 212.6 154.3H212.7V154.2C213.8 154.2 214.5 153.9 215 153.5C215.4 153.1 215.6 152.7 215.6 152.4C215.7 151.6 214.4 150.2 212.2 147.2Z" fill="#E28B6D"/>
<path d="M212.7 154.3C213.8 154.3 214.5 153.9 215 153.5C214.5 153.9 213.8 154.2 212.7 154.3C212.7 154.3 212.7 154.2 212.7 154.3Z" fill="#E28B6D"/>
<path d="M211.7 147.9C211.7 148.1 211.7 148.3 211.7 148.5C211.7 149.1 211.6 149.8 211.6 150.5C211.7 150.5 211.8 150.5 211.9 150.5C212.1 150.5 212.3 150.5 212.5 150.6C212.4 149.4 212.3 148.3 212.2 147.2C212.1 147.1 211.9 146.9 211.8 146.7C211.8 146.7 211.8 147.2 211.7 147.9Z" fill="#F9B384"/>
<path d="M212.5 150.6C212.4 149.4 212.3 148.3 212.2 147.2C212.3 148.3 212.4 149.4 212.5 150.6Z" fill="#F9B384"/>
<path d="M224.9 227.7C225 227.7 225 227.7 225.1 227.6C225.1 227.6 225.1 227.6 224.9 227.7C224.9 227.6 225 227.6 224.9 227.7Z" fill="#EE6F57"/>
<path d="M208.5 168.8C209.8 169 211.1 169.2 212.5 169.4C211.7 169.2 211 169.1 210.4 169C209.8 168.9 209.1 168.9 208.5 168.8Z" fill="#EE6F57"/>
<path d="M214.7 169.8C214 169.7 213.2 169.5 212.5 169.4C212.7 169.5 212.9 169.5 213.1 169.5C213.4 169.6 213.6 169.6 213.9 169.7C214.2 169.8 214.4 169.8 214.7 169.9V169.8Z" fill="#EE6F57"/>
<path d="M208.5 168.8C208.1 168.7 207.6 168.7 207.2 168.6C207.7 168.7 208.1 168.8 208.5 168.8Z" fill="#EE6F57"/>
<path d="M214.6 169.9C217.1 170.6 219.6 171.5 220.8 172C221 172 221.1 172 221.2 172H221.3C219.3 170.9 217.1 170.3 214.7 169.8L214.6 169.9Z" fill="#EE6F57"/>
<path d="M214.6 169.9L214.7 169.8L214.6 169.9Z" fill="#EE6F57"/>
<path d="M246.8 202.3C246.5 202.6 246.3 202.8 246 203C246.3 202.8 246.6 202.6 246.8 202.3Z" fill="#F9B384"/>
<path d="M229 154.7C229.1 154.8 229.2 154.9 229.4 155C229.5 155.1 229.7 155.3 229.8 155.5C229.9 155.5 229.9 155.6 229.9 155.7C229.9 155.8 229.9 155.8 229.9 155.9V155.8V154.3C229.6 154.3 229.2 154.3 228.8 154.3C228.9 154.4 228.9 154.5 229 154.7Z" fill="#F9B384"/>
<path d="M230.1 154.1L230.7 148.6C230.5 148.5 230.2 149 229.9 149.7V154.1C230 154.1 230 154.1 230.1 154.1Z" fill="#F9B384"/>
<path d="M229.9 154.1V149.7C229.3 151.1 228.6 153.4 228.8 154.2C229.2 154.2 229.6 154.2 229.9 154.1Z" fill="#F9B384"/>
<path d="M230.6 162.9L227.4 159.9H226.4L223.4 160.2C223.6 161.3 229.9 162.7 230.6 162.9Z" fill="#F9B384"/>
<path d="M205.8 151.3C205.7 150.7 205.5 150.2 205.2 149.8C204.9 149.3 204.5 149 204 148.7C204 149.1 204 149.5 204 149.8C204 150.8 204.1 151.6 204.1 151.7C204.1 153 204.3 154 204.5 154.8C204.7 154.7 205 154.6 205.3 154.5C205.9 154.4 206.2 153.3 205.8 151.3Z" fill="#F9B384"/>
<path d="M212.2 156C212.1 156 212.1 156.1 212 156.1C210.4 156.1 209.2 154.8 209.2 153.3C209.2 151.8 210.3 150.6 211.7 150.5C211.7 149.8 211.8 149.1 211.8 148.5C211.8 148.3 211.8 148.1 211.8 147.9C211.8 147.2 211.9 146.7 211.9 146.7C212 146.8 212.2 147 212.3 147.2C212.2 146.7 212.2 146.2 212.1 145.7C210.5 145.7 208.6 145 206.9 143.4C204.8 143.9 204.2 146.5 204.1 148.7C204.6 149 205 149.4 205.3 149.8C205.6 150.2 205.8 150.7 205.9 151.3C206.3 153.3 206 154.4 205.4 154.5C205.1 154.6 204.9 154.7 204.6 154.8C204.7 155 204.7 155.2 204.8 155.4C205 155.8 205.2 156.1 205.4 156.4C205.6 156.7 205.9 156.9 206.1 157.1C206.2 157.2 206.4 157.3 206.5 157.4C206.8 157.6 207.1 157.7 207.4 157.8C207.7 157.9 208 158 208.3 158.1C208.5 158.2 208.6 158.2 208.8 158.3C209.1 158.4 209.4 158.5 209.8 158.6C210.2 158.7 210.4 158.9 210.7 159C210.9 159.1 211 159.2 211.2 159.3C211.9 158.4 212.4 157.2 212.6 155.8C212.3 156 212.2 156 212.2 156Z" fill="#F9B384"/>
<path d="M211.8 146.7C211.9 146.9 212.1 147.1 212.2 147.2C212.1 147 211.9 146.8 211.8 146.7Z" fill="#F9B384"/>
<path d="M205.2 149.8C205.4 150.2 205.6 150.7 205.8 151.3C205.7 150.7 205.5 150.2 205.2 149.8Z" fill="#F9B384"/>
<path d="M204 149.8C204 149.5 204 149.1 204 148.7C203.7 148.6 203.4 148.4 203 148.3C202 148 200.6 148.5 200.2 149.6C200.2 149.7 200.1 149.9 200.1 150C200 150.3 200 150.6 200 150.9C200 151.2 200 151.6 200.1 151.9C200.1 152.1 200.2 152.2 200.2 152.4C200.3 152.7 200.4 153.1 200.6 153.4C200.8 153.7 201 154 201.2 154.2C201.9 154.9 203 155.2 204.5 154.7C204.3 153.9 204.1 152.9 204.1 151.6C204.1 151.7 204 150.9 204 149.8ZM203.3 150.9C203 150.5 202.7 150.1 202.4 150C202.2 150 202.1 150 201.9 150.1C201.7 150.2 201.5 150.4 201.3 150.5L201.1 150.4C201.2 150.2 201.3 149.9 201.6 149.7C201.8 149.5 202.2 149.4 202.5 149.5C202.8 149.6 203.1 149.8 203.2 150.1C203.2 150.2 203.3 150.3 203.3 150.3C203.4 150.5 203.4 150.7 203.4 150.9H203.3Z" fill="#F9B384"/>
<path d="M185.1 198.7C185.1 198.6 185.1 198.6 185.1 198.7C185 198.7 184.9 198.7 184.8 198.7C184.9 198.7 185 198.7 185.1 198.7Z" fill="#6F3428"/>
<path d="M181.3 188.1L182.1 193.9L182.7 198.6C182.8 198.6 182.9 198.6 183 198.6C182.3 193.3 181.4 187.6 180.8 182.3H180.7C180.8 184.2 181.1 186.2 181.3 188.1Z" fill="#6F3428"/>
<path d="M185.1 198.7C185.1 198.7 185.2 198.7 185.1 198.7C185.2 198.6 185.1 198.6 185.1 198.7C185.1 198.6 185.1 198.6 185.1 198.7Z" fill="#6F3428"/>
<path d="M183.2 198.6L182.6 193.9L181.8 188.1C181.5 186.1 181.2 184.2 180.9 182.3H180.8C181.4 187.6 182.3 193.3 183.2 198.6Z" fill="#6F3428"/>
<path d="M214.7 190.1C214.7 190.2 216.3 199.1 219.7 205.3C219.7 200.8 220.2 196.4 220.6 193.8L214.7 190.1Z" fill="#EE6F57"/>
<path opacity="0.3" d="M214.7 190.1C214.7 190.2 216.3 199.1 219.7 205.3C219.7 200.8 220.2 196.4 220.6 193.8L214.7 190.1Z" fill="#6F3428"/>
<path d="M220.6 193.8C217.7 191.9 214.7 190.1 214.7 190.1L220.6 193.8Z" fill="#EE6F57"/>
<path opacity="0.3" d="M220.6 193.8C217.7 191.9 214.7 190.1 214.7 190.1L220.6 193.8Z" fill="#6F3428"/>
<path d="M221.6 172C221.5 172 221.4 172 221.3 172C221.4 172.1 221.5 172.1 221.5 172.2L221.6 172Z" fill="#6F3428"/>
<path d="M221.5 172.2C221.4 172.1 221.3 172.1 221.2 172C221.1 172 221 172 220.8 172C221.1 172.1 221.2 172.2 221.3 172.2C221.4 172.2 221.5 172.3 221.5 172.3V172.4L221.6 172.2C221.6 172.2 221.6 172.2 221.5 172.2Z" fill="#6F3428"/>
<path d="M221.5 172.2C221.5 172.1 221.4 172.1 221.3 172H221.2C221.3 172.1 221.4 172.1 221.5 172.2Z" fill="#6F3428"/>
<path d="M216.6 175.1L216.1 174.9C215.7 175.4 215.3 176 215.1 176.7L215.3 176.8C215.7 176.3 216.1 175.7 216.6 175.1Z" fill="#6F3428"/>
<path d="M221.3 172.2C221.2 172.2 221 172.1 220.8 172C220.4 172 219.9 172.1 219.5 172.2C218.8 172.4 218.2 172.8 217.6 173.2C217.4 173.4 217.1 173.6 216.9 173.8C216.6 174.1 216.4 174.4 216.2 174.8C216.2 174.9 216.2 174.9 216.2 174.9H216.1L216.6 175.1C216.8 174.9 217 174.6 217.2 174.4C217.4 174.2 217.6 174 217.9 173.8C218.2 173.6 218.4 173.4 218.7 173.3C219 173.1 219.3 173 219.6 172.8C219.8 172.7 219.9 172.7 220.1 172.6C220.6 172.5 221 172.4 221.5 172.4C221.5 172.4 221.5 172.3 221.3 172.2Z" fill="#6F3428"/>
<path d="M221.3 172.2C221.4 172.3 221.5 172.3 221.5 172.4V172.3C221.5 172.3 221.4 172.3 221.3 172.2Z" fill="#6F3428"/>
<path d="M212.6 154.3C212.6 154.9 212.5 155.5 212.4 156C212.5 155.5 212.6 154.9 212.6 154.3Z" fill="#E8D7D1"/>
<path opacity="0.4" d="M212.6 154.3C212.6 154.9 212.5 155.5 212.4 156C212.5 155.5 212.6 154.9 212.6 154.3Z" fill="#EE6F57"/>
<path d="M212.7 152.9C212.7 152.5 212.7 152 212.7 151.6C212.7 152.2 212.7 152.8 212.7 153.3C212.6 153.2 212.7 153 212.7 152.9Z" fill="#E28B6D"/>
<path opacity="0.4" d="M212.7 152.9C212.7 152.5 212.7 152 212.7 151.6C212.7 152.2 212.7 152.8 212.7 153.3C212.6 153.2 212.7 153 212.7 152.9Z" fill="#EE6F57"/>
<path d="M212.7 152.9C212.7 152.2 212.7 151.4 212.6 150.6C212.6 150.9 212.6 151.2 212.6 151.6C212.7 152 212.7 152.4 212.7 152.9Z" fill="#E28B6D"/>
<path opacity="0.4" d="M212.7 152.9C212.7 152.2 212.7 151.4 212.6 150.6C212.6 150.9 212.6 151.2 212.6 151.6C212.7 152 212.7 152.4 212.7 152.9Z" fill="#EE6F57"/>
<path d="M211.6 150.5C210.2 150.7 209.1 151.8 209.1 153.3C209.1 154.8 210.3 156.1 211.9 156.1C212 156.1 212.1 156.1 212.1 156C212.2 156 212.2 156 212.3 156C212.4 155.5 212.5 154.9 212.5 154.3C212.3 154.3 212.1 154.3 211.9 154.3C211.7 154.3 211.5 154.3 211.3 154.2C211.4 153.9 211.5 152.2 211.6 150.5Z" fill="#F9B384"/>
<path opacity="0.4" d="M211.6 150.5C210.2 150.7 209.1 151.8 209.1 153.3C209.1 154.8 210.3 156.1 211.9 156.1C212 156.1 212.1 156.1 212.1 156C212.2 156 212.2 156 212.3 156C212.4 155.5 212.5 154.9 212.5 154.3C212.3 154.3 212.1 154.3 211.9 154.3C211.7 154.3 211.5 154.3 211.3 154.2C211.4 153.9 211.5 152.2 211.6 150.5Z" fill="#EE6F57"/>
<path d="M211.6 150.5C210.2 150.6 209.1 151.8 209.1 153.3C209.1 151.8 210.2 150.7 211.6 150.5Z" fill="#F9B384"/>
<path opacity="0.4" d="M211.6 150.5C210.2 150.6 209.1 151.8 209.1 153.3C209.1 151.8 210.2 150.7 211.6 150.5Z" fill="#EE6F57"/>
<path d="M211.6 150.5C211.5 152.2 211.4 153.9 211.4 154.2C211.6 154.2 211.8 154.3 212 154.3C212.2 154.3 212.4 154.3 212.6 154.3C212.6 154 212.6 153.7 212.6 153.3C212.6 152.4 212.5 151.5 212.5 150.6C212.3 150.5 212.1 150.5 211.9 150.5C211.8 150.5 211.7 150.5 211.6 150.5Z" fill="#F9B384"/>
<path opacity="0.4" d="M211.6 150.5C211.5 152.2 211.4 153.9 211.4 154.2C211.6 154.2 211.8 154.3 212 154.3C212.2 154.3 212.4 154.3 212.6 154.3C212.6 154 212.6 153.7 212.6 153.3C212.6 152.4 212.5 151.5 212.5 150.6C212.3 150.5 212.1 150.5 211.9 150.5C211.8 150.5 211.7 150.5 211.6 150.5Z" fill="#EE6F57"/>
<path d="M203.3 150.3C203.3 150.2 203.2 150.1 203.2 150.1C203.1 149.8 202.8 149.6 202.5 149.5C202.2 149.4 201.8 149.5 201.6 149.7C201.3 149.9 201.2 150.2 201.1 150.4L201.3 150.5C201.5 150.4 201.7 150.2 201.9 150.1C202.1 150 202.2 150 202.4 150C202.7 150.1 203 150.5 203.3 150.9C203.4 150.7 203.3 150.5 203.3 150.3Z" fill="#6F3428"/>
<path d="M203.3 150.9H203.4C203.4 150.7 203.4 150.5 203.3 150.3C203.3 150.5 203.4 150.7 203.3 150.9Z" fill="#6F3428"/>
<path d="M212.1 145.7C212 145.1 212 144.5 211.9 144C212 144.6 212 145.2 212.1 145.7Z" fill="#383838"/>
<path d="M206.5 164.4C206.5 164.4 206.6 164.4 206.5 164.4L206.6 164.3C208.7 163.6 210.8 162.8 213 161.7C212.4 160.7 211.7 160 211 159.5C210.8 159.7 210.6 159.9 210.4 160.1C210.6 159.9 210.8 159.7 211 159.5C210.8 159.4 210.7 159.3 210.5 159.2C210.2 159 209.9 158.9 209.6 158.8C209.3 158.7 209 158.6 208.6 158.5C208.4 158.4 208.3 158.4 208.1 158.3C207.8 158.2 207.5 158.1 207.2 158C206.9 157.9 206.6 157.7 206.3 157.6C206.2 157.5 206 157.4 205.9 157.3C205.6 157.1 205.4 156.9 205.2 156.6C205 156.3 204.8 156 204.6 155.6C204.5 155.4 204.4 155.2 204.4 155C202.9 155.5 201.8 155.2 201.1 154.5C200.9 154.3 200.7 154 200.5 153.7C200.3 153.4 200.2 153.1 200.1 152.7C200.1 152.5 200 152.4 200 152.2C199.9 151.9 199.9 151.5 199.9 151.2C199.9 150.9 199.9 150.5 200 150.3C200 150.2 200.1 150 200.1 149.9C200.5 148.8 201.9 148.3 202.9 148.6C203.3 148.7 203.6 148.8 203.9 149C204 146.8 204.6 144.1 206.7 143.7C208.4 145.3 210.3 146 212 146C211.9 145.5 211.9 144.9 211.8 144.3C211.9 144.8 211.9 145.4 212 146V145.9C213.3 146 214.5 145.5 215.5 144.7C216.9 143.5 217.7 141.7 217.6 139.9C217.5 136 213.8 132.2 206.7 134.7C206.7 134.7 197.2 130.4 190.4 134.9V134.8C190 133.9 189.3 133.1 188.4 132.6C187.9 132.3 187.3 132.1 186.7 132.1C184 131.7 181.5 133.5 181.1 136.2C181.1 136.5 181 136.8 181.1 137.1C181.2 139.3 182.9 141.3 185.2 141.7C185.2 141.7 185.3 141.7 185.4 141.7V141.8C185.4 141.7 185.4 141.7 185.5 141.6C188 142 190.4 140.2 190.8 137.7C190.8 137.6 190.8 137.5 190.8 137.5C190.8 137.5 190.8 137.6 190.8 137.7C190.4 140.3 188 142.1 185.4 141.8C185.2 142.3 185.1 142.8 185 143.3C184.4 146.2 184.2 149.3 183.2 152.8C182.5 155.4 181.2 158.2 178.9 161.3C179.4 161.6 185.7 165.5 194.9 166C198.4 166 202.3 165.6 206.5 164.4ZM209.8 160.5C209.3 160.8 208.8 160.9 208.1 161C208.8 160.9 209.3 160.8 209.8 160.5Z" fill="#383838"/>
<path d="M185.3 141.4C182.9 141.1 181.3 139 181.2 136.8C181.2 139.1 182.9 141.1 185.3 141.4C185.4 141.5 185.4 141.5 185.5 141.5V141.4C185.4 141.4 185.3 141.4 185.3 141.4Z" fill="#383838"/>
<path d="M190.5 134.5C190.1 133.6 189.4 132.8 188.5 132.3C189.4 132.8 190.1 133.6 190.5 134.5Z" fill="#383838"/>
<path d="M194.9 165.8C185.8 165.3 179.5 161.4 178.9 161.1C178.9 161.1 178.9 161.1 178.9 161.2C178.9 161.2 185.4 165.4 194.8 165.9L194.9 165.8C194.9 165.8 194.8 165.8 194.9 165.8Z" fill="#383838"/>
<path d="M183.3 152.6C184.3 149.1 184.5 146 185.1 143.1C184.4 146 184.3 149.1 183.3 152.6Z" fill="#383838"/>
<path d="M206.6 164.4C208.7 163.8 210.8 162.9 213 161.7C210.8 162.8 208.7 163.6 206.6 164.4Z" fill="#383838"/>
<path d="M215.6 144.4C214.6 145.2 213.4 145.7 212.1 145.6V145.7C213.4 145.7 214.6 145.3 215.6 144.4C217.1 143.2 217.8 141.4 217.7 139.6C217.8 141.4 217 143.2 215.6 144.4Z" fill="#383838"/>
<path d="M194.9 165.8C194.9 165.8 194.8 165.8 194.9 165.8L194.8 165.9C194.8 165.9 194.9 165.9 194.9 165.8Z" fill="#383838"/>
<path d="M209.6 158.8C209.3 158.7 209 158.6 208.6 158.5C209 158.6 209.3 158.7 209.6 158.8Z" fill="#383838"/>
<path d="M210.5 159.2C210.2 159 209.9 158.9 209.6 158.8C209.9 158.9 210.2 159.1 210.5 159.2Z" fill="#383838"/>
<path d="M207.3 157.9C207 157.8 206.7 157.6 206.4 157.5C206.7 157.7 207 157.8 207.3 157.9Z" fill="#383838"/>
<path d="M205.3 156.5C205.5 156.8 205.8 157 206 157.2C205.8 157 205.5 156.8 205.3 156.5Z" fill="#383838"/>
<path d="M205.3 156.5C205.1 156.2 204.9 155.9 204.7 155.5C204.9 155.8 205.1 156.2 205.3 156.5Z" fill="#383838"/>
<path d="M208.2 158.3C207.9 158.2 207.6 158.1 207.3 158C207.6 158.1 207.9 158.2 208.2 158.3Z" fill="#383838"/>
<path d="M200.1 152C200 151.7 200 151.3 200 151C200 151.3 200 151.6 200.1 152Z" fill="#383838"/>
<path d="M201.2 154.3C201 154.1 200.8 153.8 200.6 153.5C200.7 153.8 200.9 154.1 201.2 154.3Z" fill="#383838"/>
<path d="M203 148.3C203.4 148.4 203.7 148.6 204 148.7C203.7 148.5 203.4 148.4 203 148.3Z" fill="#383838"/>
<path d="M200.6 153.5C200.4 153.2 200.3 152.9 200.2 152.5C200.3 152.8 200.4 153.2 200.6 153.5Z" fill="#383838"/>
<path d="M200 150.9C200 150.6 200 150.2 200.1 150C200.1 150.3 200 150.6 200 150.9Z" fill="#383838"/>
<path d="M237 203.3C237.6 203.5 238.1 203.7 238.6 203.8C239.1 203.9 239.6 204 240 204C241.7 204.1 243 203.7 244 202.9C244.3 202.7 244.6 202.4 244.8 202.2C244.9 202.1 245 201.9 245.2 201.8C245.4 201.5 245.6 201.2 245.8 200.9C246 200.6 246.1 200.4 246.2 200.1C246.2 200 246.3 199.9 246.3 199.9C246.4 199.6 246.5 199.3 246.6 199C241.9 198 238.6 199.2 237 203.3ZM239 203.4C239.6 203.6 240.1 203.7 240.6 203.9C240.1 203.8 239.5 203.6 239 203.4Z" fill="#F9B384"/>
<path opacity="0.4" d="M237 203.3C237.6 203.5 238.1 203.7 238.6 203.8C239.1 203.9 239.6 204 240 204C241.7 204.1 243 203.7 244 202.9C244.3 202.7 244.6 202.4 244.8 202.2C244.9 202.1 245 201.9 245.2 201.8C245.4 201.5 245.6 201.2 245.8 200.9C246 200.6 246.1 200.4 246.2 200.1C246.2 200 246.3 199.9 246.3 199.9C246.4 199.6 246.5 199.3 246.6 199C241.9 198 238.6 199.2 237 203.3ZM239 203.4C239.6 203.6 240.1 203.7 240.6 203.9C240.1 203.8 239.5 203.6 239 203.4Z" fill="#EE6F57"/>
<path d="M246.4 199.9C246.4 200 246.3 200.1 246.3 200.1C246.3 200 246.3 199.9 246.4 199.9Z" fill="#F9B384"/>
<path opacity="0.4" d="M246.4 199.9C246.4 200 246.3 200.1 246.3 200.1C246.3 200 246.3 199.9 246.4 199.9Z" fill="#EE6F57"/>
<path d="M240.6 203.9C240.1 203.7 239.6 203.6 239 203.4C239.5 203.6 240.1 203.8 240.6 203.9Z" fill="#F9B384"/>
<path opacity="0.4" d="M240.6 203.9C240.1 203.7 239.6 203.6 239 203.4C239.5 203.6 240.1 203.8 240.6 203.9Z" fill="#EE6F57"/>
<path d="M250.5 154.4C250.6 154.3 250.6 154.3 250.6 154.2C250.5 154.3 250.5 154.3 250.5 154.4Z" fill="#F9B384"/>
<path d="M247.6 154.4H248.9C248.9 154.4 248.9 154.5 248.9 154.6C248.9 154.8 248.9 155.1 249 155.4C249.1 155.5 249.2 155.5 249.2 155.6C249.4 155.5 249.6 155.4 249.8 155.3C249.9 155.2 250 155.1 250.1 155C250.1 155 250.2 154.9 250.2 154.8C250.3 154.7 250.4 154.6 250.5 154.4H250.4H249C249.1 153.2 249.5 152.1 250.1 151.2L249.5 148.2C249.5 148.3 247.7 154.2 247.6 154.4Z" fill="#F9B384"/>
<path d="M250.5 154.4C250.5 154.3 250.5 154.3 250.6 154.2H250.7L250.1 151.2C249.5 152.2 249.1 153.3 249 154.4H250.5Z" fill="#F9B384"/>
<path d="M246.5 199.6C246.3 200.1 246 200.6 245.8 201C246.1 200.6 246.3 200.1 246.5 199.6Z" fill="#F9B384"/>
<path d="M231.6 197.9L231.2 200.4L234.1 184.2L231.6 197.9Z" fill="#F9B384"/>
<path d="M250.8 154.2C250.8 154.3 250.8 154.3 250.7 154.4C250.7 154.6 250.6 154.9 250.4 155.1C250.4 155.2 250.3 155.2 250.3 155.3C250.2 155.4 250.1 155.4 250 155.5C249.9 155.6 249.8 155.7 249.7 155.7L249.6 155.8C249.5 155.9 249.3 155.9 249.2 156C249.1 156.1 248.9 156.2 248.8 156.3C248.5 156.6 248.4 157.1 248.4 157.6C248.4 158 248.4 158.3 248.5 158.6C248.5 158.7 248.6 158.8 248.6 159L248.5 159.1V159H248.4C248.2 158.6 248 158.1 248 157.6C248 157.1 248.1 156.6 248.4 156.1C248.6 155.9 248.8 155.7 249 155.6C249 155.5 249 155.5 249 155.4C248.6 155.1 247.6 154.7 247.6 154.4L242.8 154.3C242.6 156 242.3 157.5 242.1 159C242 159.7 242 160.4 241.9 161.1C242 161.4 242.1 161.7 242.1 162L252.5 163.6C254.2 161.6 253.3 159.4 253.2 157.1C252.9 158.5 252.8 158.7 252.8 158.7L252.6 158.6C252.6 158.4 252.8 157.9 253.1 156.7C253.1 155.9 253.2 155.2 253.5 154.4H253.6C253.3 155.2 253.2 155.9 253.2 156.7C253.3 156.2 253.4 155.6 253.6 154.9C253.6 154.7 253.7 154.4 253.7 154.1C253.7 153.8 253.8 153.6 253.9 153.3C254 153.1 254 152.9 254.1 152.7C252.8 152.3 253.5 151.7 253.7 150.6C253.8 150.7 253.9 150.8 254 150.9C254.2 151.1 254.3 151.5 254.2 151.9C254.2 152.1 254.2 152.4 254.1 152.7C254.3 152.2 254.3 151.7 254.2 151.3C254.1 150.9 254 150.7 253.8 150.5C253.3 150.1 253 150.4 252.6 151C252.1 151.6 251.4 152.8 250.7 154.2H250.8V154.2Z" fill="#F9B384"/>
<path d="M242.1 162L242 162.4L237 187C236.4 186.4 235.3 185.4 234.1 184.2L231.2 200.4C233 201.5 235.1 202.6 237 203.3C238.6 199.2 241.9 198 246.7 198.9V199C246.9 198.5 247 198.1 247.1 197.7C247.5 196.2 248.9 187.6 250.1 179.5C251.3 171.4 252.5 163.6 252.5 163.6L242.1 162Z" fill="#F9B384"/>
<path d="M241.9 161.1C241.9 160.4 242 159.7 242.1 159H241.5C241.4 159.8 241.7 160.4 241.9 161.1Z" fill="#F9B384"/>
<path d="M234.1 184.1C235.3 185.4 236.4 186.4 237 187C236.4 186.4 235.3 185.4 234.1 184.1Z" fill="#F9B384"/>
<path d="M253.8 150.5C253.3 150.1 253 150.4 252.6 151C253 150.4 253.3 150.1 253.8 150.5Z" fill="#F9B384"/>
<path d="M252.5 163.6C254.3 161.5 253.3 159.1 253.3 156.7C253.3 156.8 253.2 157 253.2 157.1C253.3 159.3 254.2 161.6 252.5 163.6Z" fill="#F9B384"/>
<path d="M246.7 199C246.7 199 246.7 198.9 246.7 199C241.9 198 238.6 199.2 237 203.3C238.6 199.2 241.9 198 246.7 199Z" fill="#F9B384"/>
<path d="M249 155.4C249 155.1 248.9 154.9 248.9 154.6C248.9 154.5 248.9 154.4 248.9 154.4H247.6C247.6 154.7 248.5 155.1 249 155.4Z" fill="#F9B384"/>
<path d="M254 150.9C253.9 150.8 253.8 150.7 253.7 150.6C253.5 151.7 252.8 152.3 254.1 152.7C254.2 152.4 254.2 152.2 254.2 151.9C254.2 151.5 254.1 151.1 254 150.9Z" fill="#E28B6D"/>
<path d="M254 150.9C254.2 151.1 254.3 151.5 254.2 151.9C254.2 151.5 254.1 151.1 254 150.9Z" fill="#E28B6D"/>
<path d="M179.1 179.9C178.9 180.3 178.8 180.7 178.6 181.2C178.3 181.9 178.1 182.6 177.8 183.4C175.9 188.9 173.7 196.1 173.7 196.1C173.7 196.1 174.4 196.5 175.6 197C176.1 197.2 176.7 197.4 177.4 197.7C178.8 198.1 180.6 198.5 182.7 198.6L182.1 193.9L181.3 188.1C181.1 186.2 180.8 184.2 180.7 182.3H180.8C180.6 180.6 180.4 179 180.3 177.4C180.2 177.5 180.1 177.7 180 177.9C179.7 178.4 179.4 179.1 179.1 179.9Z" fill="#EE6F57"/>
<path d="M177.4 197.7C176.7 197.5 176.1 197.3 175.6 197C176.1 197.2 176.7 197.5 177.4 197.7Z" fill="#EE6F57"/>
<path d="M177.8 183.4C178.1 182.6 178.3 181.9 178.6 181.2C178.3 181.9 178.1 182.6 177.8 183.4Z" fill="#EE6F57"/>
<path d="M180 177.9C180.1 177.7 180.2 177.5 180.3 177.4C180.2 177.5 180.1 177.7 180 177.9Z" fill="#EE6F57"/>
<path d="M179.1 179.9C179.4 179.1 179.7 178.4 180 178C179.7 178.4 179.4 179.1 179.1 179.9Z" fill="#EE6F57"/>
<path d="M219.7 205.4C219.7 205.3 219.7 205.3 219.7 205.4C216.3 199.1 214.7 190.2 214.7 190.1C214.7 190.1 217.7 191.9 220.6 193.8L227.2 198C227.3 198 227.3 198.1 227.4 198.1L227.5 198.2L231.1 200.5C231.2 200.5 231.2 200.5 231.2 200.5V200.4L231.6 197.9L234.1 184.2C231.4 181.4 227.8 177.7 224.8 175L223.3 178L224.8 175C224.8 175 224.8 175 224.7 174.9V174.8C224.2 174.3 223.7 173.8 223.3 173.5C222.8 173 222.2 172.6 221.6 172.2L221.5 172.4C221 172.5 220.5 172.5 220.1 172.6C219.9 172.6 219.8 172.7 219.6 172.8C219.3 172.9 219 173.1 218.7 173.3C218.4 173.5 218.1 173.6 217.9 173.8C217.7 174 217.4 174.2 217.2 174.4C217 174.6 216.8 174.8 216.6 175.1L216.5 175.2C216.1 175.7 215.7 176.3 215.3 176.8L215.1 176.7C215.3 176 215.7 175.4 216.1 174.9H216L210.5 173.6L214.3 170.2L214.5 169.9C214.3 169.8 214.1 169.8 213.8 169.7C213.5 169.6 213.3 169.6 213 169.5C212.8 169.5 212.6 169.4 212.3 169.4C211 169.2 209.7 169 208.3 168.8C207.9 168.8 207.6 168.7 207.1 168.7C206.8 168.7 206.5 168.7 206.2 168.6C205.4 168.6 204.6 168.5 203.8 168.5C201.3 168.4 198.7 168.6 196.2 169C196 169 195.8 169.1 195.7 169.1C195.5 169.1 195.3 169.2 195.2 169.2C195 169.2 194.8 169.3 194.7 169.4L194.4 175.1L194.7 169.4C194.1 169.6 193.4 169.7 192.8 170C188.3 171.5 183.8 174 180.3 177.4C180.4 179 180.6 180.6 180.9 182.3C181.2 184.2 181.5 186.1 181.8 188.1L182.6 193.9L183.2 198.6C183.7 198.6 184.3 198.6 184.8 198.6C184.9 198.6 185 198.6 185.1 198.6H185.2C185.8 198.6 186.4 198.5 187 198.5C186.4 198.6 185.8 198.6 185.2 198.7L185.3 199.7C185.4 200.8 185.6 202 185.7 203.1C185.8 203.8 185.9 204.6 186.1 205.3C186 205.3 186 205.3 186 205.2C186 205.2 186 205.2 186 205.3C186 205.4 186 205.4 186 205.5H185.8C185.8 205.4 185.8 205.3 185.8 205.2C185.8 205.2 185.9 205.3 186 205.3C186 205.3 186 205.3 186 205.2C186 205.2 186 205.2 185.9 205.2C185.6 203.4 185.3 201.6 185 199.7L184.8 198.7C184.3 198.7 183.7 198.7 183.2 198.6L183.3 199.7C183.5 201.5 183.8 203.5 184 205.3C190.2 207.9 196.2 210.9 201.7 214.4C207.3 218 213.1 221.6 218.9 225.1C220.3 225.9 221.6 226.7 223 227.5C223.1 227.5 223.2 227.4 223.3 227.3C223.2 227.4 223.1 227.5 223 227.5C223 227.5 223 227.5 223.1 227.5C223.2 227.5 223.3 227.4 223.3 227.4C224.6 226.9 225.6 226 225.6 224.6C225.5 223.4 224.7 221.8 222.8 219.5C220.3 216.5 219.7 210.9 219.7 205.4ZM221.4 177.2L221 191.4L221.4 177.2Z" fill="#EE6F57"/>
<path d="M224.8 174.9C227.8 177.7 231.4 181.4 234.1 184.2C231.4 181.4 227.7 177.6 224.8 174.9Z" fill="#EE6F57"/>
<path d="M224.7 174.8C224.7 174.9 224.7 174.9 224.7 174.9V174.8C224.8 174.9 224.8 174.9 224.7 174.8Z" fill="#EE6F57"/>
<path d="M194.7 169.4C194.1 169.6 193.4 169.7 192.8 170C193.4 169.7 194.1 169.6 194.7 169.4Z" fill="#EE6F57"/>
<path d="M192.8 170C188.3 171.5 183.8 174 180.3 177.4C183.8 174 188.3 171.4 192.8 170Z" fill="#EE6F57"/>
<path d="M222.8 219.4C220.3 216.4 219.7 210.8 219.7 205.4C219.7 210.9 220.3 216.5 222.8 219.5C224.7 221.7 225.5 223.3 225.6 224.6C225.5 223.3 224.7 221.7 222.8 219.4Z" fill="#EE6F57"/>
<path d="M203.9 168.5C204.7 168.5 205.5 168.6 206.3 168.6C205.5 168.5 204.7 168.5 203.9 168.5Z" fill="#EE6F57"/>
<path d="M195.8 169.1C195.6 169.1 195.4 169.2 195.3 169.2C195.4 169.2 195.6 169.2 195.8 169.1Z" fill="#EE6F57"/>
<path d="M213.8 169.7C213.5 169.6 213.3 169.6 213 169.5C213.3 169.6 213.6 169.7 213.8 169.7Z" fill="#EE6F57"/>
<path d="M185.8 205.5H186C186 205.4 186 205.4 186 205.3C185.9 205.3 185.8 205.2 185.8 205.2C185.8 205.3 185.8 205.4 185.8 205.5Z" fill="#EE6F57"/>
<path d="M186.1 205.3C186 204.6 185.8 203.9 185.7 203.1C185.8 203.8 185.9 204.5 186 205.2C186 205.3 186 205.3 186.1 205.3Z" fill="#EE6F57"/>
<path d="M184.8 198.7L185 199.7C185.3 201.6 185.6 203.4 185.9 205.2H186C185.7 203.1 185.4 200.9 185.1 198.6C185 198.7 184.9 198.7 184.8 198.7Z" fill="#EE6F57"/>
<path d="M185.7 203.1C185.5 201.9 185.4 200.8 185.3 199.7L185.2 198.7H185.1C185.3 200.2 185.5 201.7 185.7 203.1Z" fill="#EE6F57"/>
<path d="M185.1 198.7C185.4 201 185.7 203.2 186 205.3C185.9 204.6 185.8 203.9 185.7 203.2C185.5 201.7 185.3 200.2 185.1 198.7Z" fill="#EE6F57"/>
<path d="M214.7 190.1C214.7 190.2 216.3 199.1 219.7 205.3C216.3 199.1 214.7 190.2 214.7 190.1Z" fill="#EE6F57"/>
<path d="M218.7 173.3C219 173.1 219.3 173 219.6 172.8C219.8 172.7 219.9 172.7 220.1 172.6C219.9 172.6 219.8 172.7 219.6 172.8C219.3 172.9 219 173.1 218.7 173.3Z" fill="#EE6F57"/>
<path d="M217.2 174.4C217.4 174.2 217.6 174 217.9 173.8C218.1 173.6 218.4 173.4 218.7 173.3C218.4 173.5 218.1 173.6 217.9 173.8C217.7 174 217.4 174.2 217.2 174.4Z" fill="#EE6F57"/>
<path d="M234.1 184.2L231.6 197.9L234.1 184.2Z" fill="#EE6F57"/>
<path d="M216.1 174.8C216.3 174.4 216.6 174.1 216.9 173.8C217.1 173.6 217.3 173.4 217.6 173.2C218.2 172.8 218.8 172.4 219.5 172.2C219.9 172.1 220.4 172 220.8 172C219.6 171.6 217.1 170.6 214.6 169.9L214.3 170.2L212 173.1L216 174.9L216.1 174.8Z" fill="#EE6F57"/>
<path d="M220.8 172C219.6 171.5 217.1 170.6 214.6 169.9C217.1 170.6 219.6 171.6 220.8 172Z" fill="#EE6F57"/>
<path d="M216.1 174.8L216.2 174.9C216.2 174.9 216.2 174.9 216.2 174.8C216.4 174.4 216.6 174.1 216.9 173.8C216.6 174.1 216.3 174.4 216.1 174.8Z" fill="#EE6F57"/>
<path d="M214.3 170.2L210.5 173.6L216 174.9L212 173.1L214.3 170.2Z" fill="#EE6F57"/>
<path d="M230.6 162.9C229.9 162.7 223.6 161.3 223.3 160.2H223.2C223.2 160.2 223.2 160.2 223.2 160.1L214.7 169.8C217.1 170.2 219.4 170.9 221.3 172C221.4 172 221.5 172 221.6 172V172.2C222.2 172.6 222.8 173 223.3 173.5C223.8 173.9 224.3 174.4 224.7 174.8L230.6 162.9Z" fill="#F9B384"/>
<path d="M230.6 162.9L224.7 174.9C224.7 174.9 224.7 174.9 224.8 175L230.6 162.9C230.7 162.9 230.7 162.9 230.6 162.9Z" fill="#F9B384"/>
<path d="M214.7 169.8C217.1 170.3 219.3 170.9 221.3 172C219.4 170.9 217.1 170.2 214.7 169.8Z" fill="#F9B384"/>
<path d="M223.4 159.9H226.4L227.4 159.8L230.7 162.8C231 162.6 231.2 162.4 231.5 162.2C232.3 161.4 233.1 160.2 233.8 159C233.8 159 233.8 158.9 233.9 158.9C235.3 156.6 236.3 154.3 236.3 154.3C235.2 154.2 232.7 154.2 230.1 154.1L229.9 155.8C229.9 155.9 229.9 156 229.9 156.1V156.2C229.9 156.4 229.8 156.5 229.8 156.7C229.7 157.1 229.5 157.4 229.3 157.7L229.2 157.6C229.2 157.6 229.2 157.6 229.2 157.5C229.3 157.2 229.5 156.8 229.5 156.5C229.5 156.4 229.6 156.2 229.6 156C229.6 155.8 229.6 155.7 229.5 155.6C229.4 155.3 229.1 155.1 228.8 154.8C228.7 154.6 228.6 154.4 228.6 154.2C228.6 154.9 228.7 155.6 228.6 156.3C228.6 155.7 228.6 155 228.6 154.2C228.5 152.4 228.2 150.4 227.9 149.5C227.7 148.8 228 153.7 227.4 154C227.6 154.6 227.7 155.3 227.6 155.3L228 156.7C228 156.7 225.3 157.6 223.6 159.5L223.4 159.9L223.2 160.1L223.4 159.9Z" fill="#F9B384"/>
<path d="M227.5 155.3C227.6 155.3 227.6 155.3 227.5 155.3V155.1C227.5 155.2 227.5 155.2 227.5 155.3Z" fill="#F9B384"/>
<path d="M226.7 152.5L227.5 155.1C227.6 154.2 227.1 154.2 227.4 154C227.1 153.2 226.8 152.2 226.7 152.5Z" fill="#F9B384"/>
<path d="M233.8 159C233 160.2 232.2 161.3 231.4 162.2C232.3 161.4 233.1 160.2 233.8 159Z" fill="#F9B384"/>
<path d="M223.6 159.5C225.3 157.6 228 156.7 228 156.7L227.6 155.3C227.6 155.3 227.6 155.3 227.5 155.3C227.5 155.2 227.5 155.2 227.5 155.1L226.7 152.5C226.8 152.2 227.1 153.2 227.4 154C228 153.7 227.7 148.8 227.9 149.5C228.2 150.4 228.5 152.4 228.6 154.2V154.1C228.5 152.3 228.2 150.3 227.9 149.4C227.7 148.7 227.5 148.3 226.9 148.6L226.5 148.9V149.5C226.6 149.1 226.7 148.8 227 148.7C226.8 149.8 227.6 150.6 226.5 150.6V151.4C226.5 151.4 224.6 154.1 224.2 155C223.7 156.3 223.3 159.6 223.2 160.1L223.4 159.9L223.6 159.5Z" fill="#F9B384"/>
<path d="M227.5 155.1L227.6 155.3C227.7 155.3 227.6 154.6 227.4 154C227.1 154.2 227.6 154.2 227.5 155.1Z" fill="#F9B384"/>
<path d="M229.9 154.2V155.7V155.8L230.1 154.1C230 154.1 230 154.1 229.9 154.2Z" fill="#F9B384"/>
<path d="M223.3 160.2L226.3 159.9H223.3C223.3 160 223.3 160.1 223.3 160.2Z" fill="#F9B384"/>
<path d="M223.3 160.2C223.3 160.1 223.3 160 223.4 159.9L223.2 160.1V160.2H223.3Z" fill="#F9B384"/>
<path d="M226.3 150.6C226.4 150.6 226.4 150.6 226.5 150.6V149.5C226.4 149.8 226.4 150.1 226.3 150.6Z" fill="#E28B6D"/>
<path d="M227 148.7C226.7 148.8 226.6 149.1 226.5 149.5V150.6C227.6 150.6 226.8 149.8 227 148.7Z" fill="#E28B6D"/>
<path d="M228.8 154.2C228.7 154.1 228.7 153.9 228.7 153.8L228.6 153.7C228.6 153.8 228.6 153.9 228.6 154.1V154.2C228.7 154.2 228.7 154.2 228.8 154.2Z" fill="#E28B6D"/>
<path d="M229.8 155.5C229.7 155.3 229.6 155.2 229.4 155C229.2 154.9 229.1 154.8 229 154.7C228.9 154.6 228.8 154.4 228.8 154.2C228.7 154.2 228.7 154.2 228.6 154.2C228.6 154.4 228.7 154.5 228.8 154.7C229.1 155 229.4 155.2 229.5 155.5C229.6 155.7 229.6 155.9 229.6 156C229.6 156.2 229.6 156.4 229.5 156.6C229.5 156.9 229.3 157.2 229.2 157.5L229.3 157.6C229.5 157.3 229.7 157 229.8 156.6C229.8 156.4 229.9 156.3 229.9 156.1C229.9 156 229.9 155.9 229.9 155.8C229.9 155.7 229.9 155.7 229.9 155.6C229.9 155.6 229.9 155.6 229.8 155.5Z" fill="#E28B6D"/>
<path d="M229.5 155.5C229.4 155.2 229.1 155 228.8 154.7C228.7 154.5 228.6 154.4 228.6 154.2C228.6 154.4 228.7 154.6 228.8 154.8C229.1 155.1 229.4 155.3 229.5 155.6C229.5 155.7 229.6 155.9 229.6 156C229.6 155.9 229.6 155.7 229.5 155.5Z" fill="#E28B6D"/>
<path d="M229.3 157.6C229.2 157.6 229.2 157.6 229.3 157.6C229.5 157.4 229.7 157.1 229.8 156.7C229.8 156.5 229.9 156.4 229.9 156.2V156.1C229.9 156.3 229.8 156.4 229.8 156.6C229.7 157 229.5 157.3 229.3 157.6Z" fill="#E28B6D"/>
<path d="M250.6 154.4C250.6 154.3 250.7 154.3 250.7 154.2C250.7 154.3 250.6 154.3 250.6 154.4Z" fill="#E28B6D"/>
<path d="M250.6 154.2C250.6 154.3 250.6 154.3 250.5 154.4H250.6C250.6 154.3 250.7 154.3 250.7 154.2H250.6Z" fill="#E28B6D"/>
<path d="M249.2 155.8C249.2 155.9 249.2 156 249.2 156C249.3 156 249.5 155.9 249.6 155.8L249.7 155.7C249.8 155.6 249.9 155.5 250 155.5L250.1 155.4C250.2 155.4 250.2 155.3 250.2 155.3C250.3 155 250.5 154.7 250.6 154.4C250.5 154.5 250.4 154.6 250.3 154.8C250.3 154.9 250.2 154.9 250.2 155C250.1 155.1 250 155.2 249.9 155.3C249.7 155.4 249.4 155.5 249.3 155.6H249.2C249.1 155.6 249.1 155.7 249.2 155.8Z" fill="#E28B6D"/>
<path d="M250.3 154.8C250.4 154.7 250.5 154.5 250.6 154.4C250.5 154.6 250.4 154.7 250.3 154.8Z" fill="#E28B6D"/>
<path d="M249.8 155.3C249.6 155.4 249.4 155.5 249.2 155.6C249.3 155.5 249.6 155.4 249.8 155.3Z" fill="#E28B6D"/>
<path d="M249.8 155.3C249.9 155.2 250 155.1 250.1 155C250 155.1 249.9 155.2 249.8 155.3Z" fill="#E28B6D"/>
<path d="M250.1 155.4L250 155.5C250.1 155.4 250.2 155.4 250.3 155.3C250.3 155.2 250.4 155.2 250.4 155.1C250.3 155.2 250.3 155.2 250.2 155.3C250.2 155.3 250.2 155.4 250.1 155.4Z" fill="#E28B6D"/>
<path d="M249.7 155.7L249.6 155.8C249.6 155.8 249.7 155.8 249.7 155.7Z" fill="#E28B6D"/>
<path d="M248.5 159V159.1L248.6 159H248.5Z" fill="#E28B6D"/>
<path d="M249.1 155.6C248.9 155.7 248.7 155.8 248.5 156.1C248.2 156.6 248.1 157.1 248.1 157.6C248.1 158.1 248.3 158.6 248.5 159H248.6C248.6 158.9 248.5 158.8 248.5 158.6C248.4 158.3 248.4 157.9 248.4 157.6C248.4 157.1 248.5 156.6 248.8 156.3C248.9 156.2 249 156.1 249.2 156C249.2 156 249.2 155.9 249.2 155.8C249.1 155.7 249.1 155.6 249.1 155.6Z" fill="#E28B6D"/>
<path d="M250.6 154.4C250.7 154.3 250.7 154.3 250.8 154.2H250.7C250.7 154.3 250.7 154.3 250.6 154.4Z" fill="#E28B6D"/>
<path d="M250.7 154.2C250.7 154.3 250.6 154.3 250.6 154.4C250.7 154.3 250.7 154.3 250.7 154.2Z" fill="#E28B6D"/>
<path d="M250.7 154.4C250.6 154.6 250.5 154.9 250.4 155.1C250.6 154.9 250.7 154.6 250.7 154.4Z" fill="#E28B6D"/>
<path d="M250.2 155.3C250.4 155 250.6 154.7 250.7 154.4H250.6C250.5 154.7 250.3 155 250.2 155.3Z" fill="#E28B6D"/>
<path d="M250.4 155.1C250.5 154.9 250.6 154.6 250.7 154.4C250.6 154.7 250.4 155 250.2 155.3C250.3 155.2 250.3 155.2 250.4 155.1Z" fill="#E28B6D"/>
<path d="M185.7 221.2L185.5 221.4C185.6 221.4 185.6 221.3 185.7 221.2Z" fill="#6F3428"/>
<path d="M164.5 161.2L156.1 154.1C156 154.3 155.8 154.4 155.7 154.6L163.5 161.2H164.5Z" fill="#E8D7D1"/>
<path d="M98 144.6C98 153.8 105.5 161.2 114.6 161.2H133.5H134.5H140.5H141.5H142.5C147.6 161.2 152.3 158.8 155.3 155.1L154.1 154.1C156 151.4 157.1 148.2 157.1 144.6C157.1 135.4 149.7 128 140.5 128H114.6C105.4 128 98 135.4 98 144.6ZM138.2 141.7C139.9 141.3 141.5 142.3 141.9 144C142 144.2 142 144.4 142 144.6C142.1 146.1 141.1 147.3 139.6 147.7C139.4 147.8 139.2 147.8 139 147.8C137.5 147.9 136.3 146.9 135.9 145.4C135.8 145.2 135.8 145 135.8 144.8C135.8 143.3 136.7 142.1 138.2 141.7ZM127.4 141.7C129.1 141.3 130.7 142.3 131.1 144C131.5 145.7 130.5 147.3 128.8 147.7C127.1 148.1 125.5 147.1 125.1 145.4C125 145.2 125 145 125 144.8C125 143.3 125.9 142.1 127.4 141.7ZM116.6 141.7C118.3 141.3 119.9 142.3 120.3 144C120.4 144.2 120.4 144.4 120.4 144.6C120.5 146.1 119.5 147.3 118 147.7C116.3 148.1 114.7 147.1 114.3 145.4C114.2 145.2 114.2 145 114.2 144.8C114.2 143.3 115.1 142.1 116.6 141.7Z" fill="#3C529F"/>
<path d="M157.1 144.6C157.1 148.2 156 151.4 154.1 154.1L155.3 155.1C155.4 154.9 155.6 154.8 155.7 154.6L155.1 154.1C157 151.4 158.1 148.1 158.1 144.6C158.1 135.4 150.7 128 141.5 128H140.5C149.7 128 157.1 135.4 157.1 144.6Z" fill="#3C529F"/>
<path d="M142.5 161.2H162.5L155.3 155.1C152.3 158.8 147.6 161.2 142.5 161.2Z" fill="#3C529F"/>
<path d="M162.5 161.2H163.5L155.7 154.6C155.6 154.8 155.4 154.9 155.3 155.1L162.5 161.2Z" fill="#3C529F"/>
<path d="M139 147.8C139.2 147.8 139.4 147.8 139.6 147.7C141.1 147.4 142 146 142 144.6C142 144.4 142 144.2 141.9 144C141.5 142.4 139.9 141.3 138.2 141.7C136.7 142 135.8 143.4 135.8 144.8C135.8 145 135.8 145.2 135.9 145.4C136.2 146.9 137.6 147.8 139 147.8Z" fill="white"/>
<path d="M139.6 147.7C139.4 147.7 139.2 147.8 139 147.8C139.2 147.8 139.4 147.8 139.6 147.7Z" fill="white"/>
<path d="M141.9 144C141.9 144.2 142 144.4 142 144.6C142 144.4 142 144.2 141.9 144Z" fill="white"/>
<path d="M135.9 145.4C135.9 145.2 135.8 145 135.8 144.8C135.8 145 135.8 145.2 135.9 145.4Z" fill="white"/>
<path d="M125.1 145.4C125.5 147 127.2 148.1 128.8 147.7C130.4 147.3 131.5 145.6 131.1 144C130.7 142.4 129.1 141.3 127.4 141.7C125.9 142 125 143.4 125 144.8C125 145 125.1 145.2 125.1 145.4Z" fill="white"/>
<path d="M125.1 145.4C125.1 145.2 125 145 125 144.8C125 145 125 145.2 125.1 145.4Z" fill="white"/>
<path d="M118 147.7C119.5 147.4 120.4 146 120.4 144.6C120.4 144.4 120.4 144.2 120.3 144C119.9 142.4 118.3 141.3 116.6 141.7C115.1 142 114.2 143.4 114.2 144.8C114.2 145 114.2 145.2 114.3 145.4C114.7 147 116.4 148.1 118 147.7Z" fill="white"/>
<path d="M120.3 144C120.3 144.2 120.4 144.4 120.4 144.6C120.4 144.4 120.4 144.2 120.3 144Z" fill="white"/>
<path d="M114.3 145.4C114.3 145.2 114.2 145 114.2 144.8C114.2 145 114.2 145.2 114.3 145.4Z" fill="white"/>
<path opacity="0.3" d="M285.1 81.7C293.9 41.7 339.8 11.1 390.5 11.1C449.5 11.1 491.8 56.2 496.4 95.6" stroke="#FBC343" stroke-width="18" stroke-miterlimit="10"/>
<path opacity="0.3" d="M496.8 95.6C501.1 139.4 486.3 189.5 449.5 207.6C416.6 223.8 377.4 208 347.5 184.1" stroke="#FBC343" stroke-width="20" stroke-miterlimit="10"/>
<path d="M250.9 159C247.7 156.5 248.5 147.8 257.8 147.4C262.6 147 266.5 150.7 266.6 154.6C266.6 156.2 265.9 157.8 264.7 159H285.7V136.6C286.9 138 288.5 138.9 290.3 138.9C294 138.9 297.1 134.8 297.1 129.8C297.1 124.8 294.1 120.7 290.3 120.7C288.5 120.7 286.9 121.5 285.7 123V100.6H264.4C265.7 101.8 266.5 103.4 266.5 105.2C266.5 109.2 262.6 112.4 257.8 112.4C253 112.4 249.1 109.2 249.1 105.2C249.1 103.5 249.9 101.8 251.2 100.6H230V122.5C228.9 121.4 227.4 120.7 225.9 120.7C222.2 120.7 219.1 124.8 219.1 129.8C219.1 134.8 222.1 138.9 225.9 138.9C227.4 138.9 228.9 138.3 230 137.1L229.9 159C232.6 159 250.9 159 250.9 159Z" fill="#FBC343"/>
</g>
<defs>
<clipPath id="clip0_331_2">
<rect width="600" height="316.4" fill="white"/>
</clipPath>
</defs>
</svg>