<svg width="220" height="116" viewBox="0 0 220 116" fill="none" xmlns="http://www.w3.org/2000/svg">
<path fill-rule="evenodd" clip-rule="evenodd" d="M165.982 -31.7578C209.814 -23.1944 258.395 -6.97804 264.793 28.1116C270.537 59.608 226.306 87.776 190.668 100.36C163.463 109.967 131.981 97.1689 106.18 83.0101C84.7836 71.268 51.2986 79.6967 28.6203 66.4344C-7.63913 45.2298 -5.09446 -1.53355 10.1365 -30.3637C35.2311 -77.8641 100.37 -44.5763 165.982 -31.7578Z" fill="url(#paint0_linear_126_3)"/>
<mask id="mask0_126_3" style="mask-type:alpha" maskUnits="userSpaceOnUse" x="-1" y="-56" width="267" height="160">
<path fill-rule="evenodd" clip-rule="evenodd" d="M165.982 -31.7578C209.814 -23.1944 258.395 -6.97804 264.793 28.1116C270.537 59.608 226.306 87.776 190.668 100.36C163.463 109.967 131.981 97.1689 106.18 83.0101C84.7836 71.268 51.2986 79.6967 28.6203 66.4344C-7.63913 45.2298 -5.09446 -1.53355 10.1365 -30.3637C35.2311 -77.8641 100.37 -44.5763 165.982 -31.7578Z" fill="url(#paint1_linear_126_3)"/>
</mask>
<g mask="url(#mask0_126_3)">
<path d="M111.5 143C154.302 143 189 108.344 189 65.5932C189 22.8426 154.302 -11.8136 111.5 -11.8136C68.6979 -11.8136 34 22.8426 34 65.5932C34 108.344 68.6979 143 111.5 143Z" fill="#F2E6DC"/>
<path d="M137.531 32.3148H133.581C133.228 30.3921 132.723 28.5219 132.082 26.7161L135.5 24.7452L128.817 13.1829L125.391 15.1581C124.134 13.6877 122.763 12.3189 121.291 11.0628L123.269 7.64098L111.693 0.965816L109.719 4.38005C107.911 3.73972 106.039 3.23576 104.114 2.88256V-1.06189H90.7474V2.88256C88.8224 3.23576 86.95 3.73972 85.142 4.38005L83.1687 0.965816L71.5925 7.64183L73.57 11.0637C72.0979 12.3198 70.7275 13.6885 69.4699 15.1589L66.0439 13.1837L59.3607 24.746L62.7791 26.717C62.138 28.5228 61.6334 30.3929 61.2798 32.3156H57.3306V45.666H61.2806C61.6342 47.5886 62.1388 49.4588 62.7799 51.2646L59.3616 53.2355L66.0448 64.7979L69.4707 62.8227C70.7283 64.2931 72.0987 65.6618 73.5709 66.9179L71.5933 70.3398L83.1696 77.0149L85.1429 73.6007C86.9508 74.241 88.8233 74.745 90.7483 75.0982V79.0426H104.114V75.0982C106.039 74.745 107.911 74.241 109.719 73.6007L111.693 77.0149L123.269 70.3398L121.291 66.9179C122.763 65.6618 124.134 64.2931 125.391 62.8227L128.817 64.7979L135.5 53.2355L132.082 51.2646C132.723 49.4588 133.228 47.5886 133.581 45.666H137.531V32.3148ZM119.57 39.7141C119.2 51.2985 109.754 60.7331 98.1557 61.1024C85.3489 61.5107 74.8828 51.0571 75.2915 38.2658C75.6612 26.6814 85.1073 17.2467 96.7056 16.8775C109.512 16.4692 119.978 26.9228 119.57 39.7141Z" fill="white"/>
<path d="M97.4306 68.3814C81.2047 68.3814 68.0045 55.1962 68.0045 38.9907C68.0045 31.9098 70.5613 25.0694 75.2042 19.7291C79.8004 14.4422 86.1291 10.9611 93.0252 9.92688C93.1261 9.91164 93.2219 9.98194 93.2372 10.0836C93.2524 10.1852 93.1821 10.2801 93.0803 10.2953C78.9982 12.4077 68.3785 24.7434 68.3785 38.9898C68.3785 54.9904 81.4116 68.0078 97.4315 68.0078C110.668 68.0078 122.232 59.0822 125.554 46.3019C125.58 46.202 125.682 46.1427 125.781 46.1681C125.881 46.1943 125.941 46.296 125.915 46.3951C122.55 59.3405 110.837 68.3814 97.4306 68.3814Z" fill="#F2E6DC"/>
<path d="M178.794 130.991H117.803V16.0651H131.548C132.716 19.7995 136.005 22.3193 139.712 22.3193H156.887C160.59 22.3193 163.878 19.8029 165.048 16.0718L165.05 16.0651H178.796V130.991H178.794Z" fill="#E6D0BE"/>
<path d="M176.54 137.964H119.635C115.961 137.964 112.972 134.978 112.972 131.309V14.6548C112.972 10.9857 115.961 8 119.635 8H176.54C180.215 8 183.203 10.9857 183.203 14.6548V131.309C183.203 134.978 180.215 137.964 176.54 137.964ZM119.635 8.37268C116.167 8.37268 113.346 11.1906 113.346 14.654V131.308C113.346 134.771 116.167 137.589 119.635 137.589H176.54C180.008 137.589 182.83 134.771 182.83 131.308V14.6548C182.83 11.1915 180.008 8.37352 176.54 8.37352H119.635V8.37268Z" fill="#D3BBA3"/>
<path d="M175.69 26.7051H120.485V73.6523H175.69V26.7051Z" fill="#F2E6DC"/>
<path d="M43.1187 142.674C43.0373 142.674 42.9542 142.665 42.8711 142.649C42.1994 142.513 41.7636 141.857 41.9001 141.185L54.8484 77.4918C54.985 76.8209 55.643 76.3856 56.3138 76.5219C56.6394 76.588 56.9193 76.7769 57.1024 77.053C57.2856 77.3291 57.3501 77.6612 57.2839 77.9856L44.3356 141.679C44.2169 142.267 43.697 142.674 43.1187 142.674ZM56.067 76.8701C55.6617 76.8701 55.2987 77.1546 55.2148 77.5663L42.2664 141.259C42.1715 141.729 42.4759 142.189 42.9457 142.283C43.4146 142.378 43.8751 142.074 43.9709 141.605L56.9193 77.9119C56.9659 77.6849 56.9201 77.4528 56.7921 77.2597C56.664 77.0666 56.4681 76.9344 56.24 76.8878C56.1815 76.8751 56.1238 76.8701 56.067 76.8701Z" fill="#D3BBA3"/>
<path d="M82.5191 142.719C81.9391 142.719 81.4192 142.311 81.3005 141.721L68.4964 77.9983C68.3615 77.3266 68.7983 76.671 69.4707 76.5364C70.1432 76.4017 70.7996 76.8379 70.9344 77.5096L83.7386 141.232C83.8039 141.558 83.7386 141.889 83.5545 142.165C83.3705 142.441 83.0898 142.629 82.7642 142.694C82.6819 142.71 82.5997 142.719 82.5191 142.719ZM82.7269 142.511H82.7286H82.7269ZM69.715 76.8853C69.6581 76.8853 69.6013 76.8913 69.5437 76.9023C69.0739 76.9963 68.7677 77.4554 68.8619 77.9246L81.666 141.647C81.7602 142.117 82.2198 142.422 82.6896 142.328C82.9177 142.283 83.1136 142.151 83.2425 141.958C83.3714 141.765 83.4172 141.533 83.3714 141.306L70.5672 77.5833C70.485 77.1708 70.1212 76.8853 69.715 76.8853Z" fill="#D3BBA3"/>
<path d="M72.6118 72.9028L53.1812 72.8807C51.5607 72.879 50.2454 74.1893 50.2437 75.8088L50.2429 76.3627C50.2412 77.9813 51.553 79.295 53.1736 79.2967L72.6041 79.3187C74.2247 79.3204 75.54 78.0101 75.5417 76.3915L75.5425 75.8376C75.5442 74.2181 74.2323 72.9045 72.6118 72.9028Z" fill="#E6D0BE"/>
<path d="M169.352 90.3844L169.342 88.5388L142.16 88.6904L142.18 92.3808L169.363 92.2292L169.352 90.3844Z" fill="white"/>
<path d="M166.526 85.8679L157.097 85.9204L157.106 87.6644L166.536 87.6119L166.526 85.8679Z" fill="white"/>
<path d="M164.058 80.6039L157.067 80.6428L157.077 82.3868L164.068 82.3479L164.058 80.6039Z" fill="white"/>
<path d="M166.511 83.2523L157.081 83.3048L157.091 85.0488L166.521 84.9963L166.511 83.2523Z" fill="white"/>
<path d="M145.076 82.7295C140.712 78.42 133.677 78.4589 129.363 82.8167C125.048 87.1754 125.087 94.202 129.45 98.5115C133.813 102.821 140.849 102.782 145.164 98.4243C149.479 94.0665 149.44 87.0398 145.076 82.7295ZM133.547 94.025L130.141 90.6607L133.509 87.2592L136.915 90.6235L133.547 94.025Z" fill="white"/>
<path d="M148.107 69.5164C148.104 69.5164 148.1 69.5164 148.097 69.5164C146.074 69.5139 144.174 68.7245 142.746 67.2948C141.318 65.865 140.533 63.9644 140.536 61.9451L140.545 54.3832L155.687 54.4027L155.677 61.9646C155.672 66.1301 152.277 69.5164 148.107 69.5164ZM140.919 54.7559L140.91 61.9443C140.907 63.8644 141.654 65.6711 143.011 67.0305C144.369 68.3899 146.175 69.1404 148.098 69.1429C148.1 69.1429 148.105 69.1429 148.107 69.1429C152.072 69.1429 155.299 65.9243 155.304 61.9638L155.313 54.7753L140.919 54.7559Z" fill="#363E44"/>
<path d="M161.654 52.4213C169.119 44.9644 169.119 32.8745 161.654 25.4176C154.188 17.9608 142.083 17.9608 134.617 25.4176C127.152 32.8745 127.152 44.9644 134.617 52.4213C142.083 59.8781 154.188 59.8781 161.654 52.4213Z" fill="#EFBC73"/>
<path d="M148.121 64.6665C148.114 64.6665 148.108 64.6665 148.104 64.6665C147.807 64.6665 140.836 64.6436 140.838 63.4604C140.838 63.357 140.922 63.274 141.024 63.274C141.125 63.274 141.207 63.3537 141.211 63.4536C141.356 63.7543 143.767 64.2879 148.104 64.2938C152.459 64.2972 154.872 63.7678 155.001 63.468C155.001 63.3655 155.084 63.2867 155.186 63.2867C155.29 63.2867 155.372 63.3757 155.372 63.479C155.371 64.6453 148.599 64.6665 148.121 64.6665ZM141.211 63.4604H141.213H141.211Z" fill="#363E44"/>
<path d="M148.124 61.4336C148.117 61.4336 148.111 61.4336 148.107 61.4336C146.207 61.4311 144.42 61.3226 143.074 61.1295C141.094 60.8441 140.84 60.4977 140.841 60.2275C140.841 60.1241 140.925 60.0411 141.028 60.0411C141.129 60.0411 141.21 60.1208 141.214 60.2207C141.359 60.5214 143.77 61.055 148.107 61.0609C148.13 61.0609 148.153 61.0609 148.175 61.0609C152.485 61.0609 154.876 60.5332 155.004 60.2351C155.004 60.1318 155.087 60.0538 155.19 60.0538C155.293 60.0538 155.375 60.1428 155.375 60.2461C155.375 61.4124 148.601 61.4336 148.124 61.4336ZM141.215 60.2275H141.217H141.215Z" fill="#363E44"/>
<path d="M150.671 53.5564C150.647 53.5564 150.622 53.5513 150.599 53.5412C150.504 53.5005 150.459 53.3912 150.5 53.2964L156.526 39.2024C156.567 39.1075 156.677 39.0635 156.771 39.1041C156.866 39.1448 156.91 39.254 156.87 39.3489L150.844 53.4429C150.813 53.5141 150.744 53.5564 150.671 53.5564Z" fill="#363E44"/>
<path d="M145.565 53.5497C145.492 53.5497 145.423 53.5073 145.393 53.4362L139.403 39.3269C139.362 39.2321 139.407 39.1228 139.502 39.0822C139.597 39.0423 139.707 39.0864 139.747 39.1813L145.737 53.2905C145.778 53.3854 145.733 53.4946 145.638 53.5353C145.614 53.5446 145.589 53.5497 145.565 53.5497Z" fill="#363E44"/>
<path d="M151.572 41.1632C150.572 41.1632 149.57 40.8422 148.785 40.2222C148.007 40.572 147.146 40.733 146.291 40.6466C144.008 40.4162 142.036 38.4495 141.802 36.1702C141.792 36.0677 141.867 35.9762 141.969 35.9652C142.073 35.9542 142.163 36.0296 142.174 36.1321C142.391 38.2419 144.216 40.0621 146.329 40.2756C147.061 40.3493 147.799 40.2273 148.478 39.9512C147.218 38.7281 146.788 36.7182 147.459 35.092C147.774 34.3305 148.456 33.4827 149.426 33.387C150.264 33.3048 151.122 33.8384 151.519 34.6854C151.845 35.3825 151.869 36.2608 151.587 37.1586C151.2 38.3927 150.29 39.4184 149.16 40.0359C150.413 40.9337 152.198 41.0497 153.544 40.2849C153.633 40.2341 153.747 40.2654 153.798 40.3544C153.849 40.4441 153.818 40.5576 153.728 40.6084C153.072 40.982 152.323 41.1632 151.572 41.1632ZM149.591 33.7529C149.548 33.7529 149.505 33.7546 149.461 33.7588C148.656 33.8384 148.077 34.5736 147.803 35.2343C147.169 36.7682 147.608 38.6756 148.844 39.7835C149.953 39.2219 150.855 38.2394 151.229 37.0468C151.484 36.238 151.465 35.4553 151.179 34.8438C150.874 34.1942 150.223 33.7529 149.591 33.7529Z" fill="white"/>
<path d="M85.4499 56.9606L80.5441 55.6012L68.1851 58.4149L108.511 112.318C120.625 90.7625 120.19 77.1945 85.4499 56.9606Z" fill="#8B865C"/>
<path d="M74.9837 56.3872L57.9903 54.3367C56.748 61.3659 58.037 68.6077 61.6275 74.7797L89.2634 122.275L115.184 117.44L74.9837 56.3872Z" fill="#8B865C"/>
<path d="M105.693 103.213C105.632 103.213 105.572 103.183 105.537 103.129L84.4161 71.0521C84.3593 70.9657 84.3831 70.8505 84.4696 70.7938C84.5552 70.737 84.6714 70.7608 84.7282 70.8471L105.849 102.924C105.906 103.01 105.882 103.125 105.795 103.182C105.763 103.203 105.728 103.213 105.693 103.213Z" fill="white"/>
<path d="M59.5329 54.3367C59.7652 54.5611 62.4712 63.618 68.2598 64.7174C74.0492 65.8168 76.2718 55.3658 76.2718 55.3658L59.5329 54.3367Z" fill="white"/>
<path d="M76.6534 55.6003C76.6534 55.6003 80.7688 63.989 85.3311 63.6705C89.8935 63.352 85.1615 55.3657 85.1615 55.3657L76.6534 55.6003Z" fill="white"/>
<path d="M98.9341 43.0352C98.9341 43.0352 114.513 37.4171 119.786 35.8908C125.324 34.2883 133.734 32.7272 133.938 33.9054C134.054 34.5762 132.951 35.026 129.922 36.0322C130.127 36.1339 130.668 36.5963 130.673 37.2358C130.68 38.1827 129.916 38.3987 129.859 38.4504C129.931 38.4792 130.733 38.8536 130.846 39.4863C130.973 40.1994 130.606 40.6932 130.131 41.0058C130.307 41.0837 131.001 41.5351 131.078 42.1484C131.179 42.9454 130.474 43.49 129.833 43.6645C128.658 43.9855 125.424 44.7842 123.768 45.4245C120.509 46.6849 109.537 52.7104 104.344 53.288C105.36 48.8879 98.9341 43.0352 98.9341 43.0352Z" fill="#E2A18D"/>
<path d="M121.685 42.0467C121.626 42.0467 121.568 42.0196 121.532 41.9688C121.472 41.885 121.491 41.7681 121.576 41.7088C122.573 40.9998 123.037 40.1147 123.41 39.4033C123.794 38.6698 124.127 38.0362 124.89 38.1251C125.341 38.1777 125.919 38.0125 126.561 37.6474C126.747 37.5407 126.733 37.3561 126.724 37.3027C126.706 37.1892 126.625 37.0562 126.454 37.0232L122.776 36.3033C122.675 36.2838 122.609 36.1855 122.628 36.0847C122.648 35.9839 122.745 35.917 122.847 35.9374L126.525 36.6573C126.821 36.7149 127.043 36.9453 127.092 37.2426C127.141 37.5382 127.004 37.8245 126.745 37.9718C126.023 38.3826 125.383 38.5597 124.846 38.4961C124.358 38.4394 124.143 38.807 123.74 39.576C123.349 40.3222 122.863 41.2514 121.792 42.012C121.76 42.0357 121.722 42.0467 121.685 42.0467Z" fill="#363E44"/>
<path d="M127.626 43.7078C127.544 43.7078 127.469 43.6536 127.446 43.5706C127.214 42.7329 127.542 41.8579 128.213 41.3641L128.078 41.3811C127.414 41.4666 126.785 41.0668 126.581 40.4299C126.467 40.0716 126.501 39.6913 126.678 39.3593C126.855 39.0273 127.151 38.7859 127.513 38.6809L127.872 38.5767C127.548 38.4285 127.296 38.1329 127.222 37.7619C127.108 37.191 127.441 36.6269 127.996 36.449L129.304 36.0315C129.402 36.0001 129.508 36.0543 129.539 36.1526C129.57 36.2508 129.516 36.3559 129.418 36.3872L128.11 36.8048C127.736 36.9242 127.511 37.3045 127.589 37.689C127.67 38.0973 128.069 38.37 128.481 38.2963L129.412 38.1295C129.509 38.1117 129.603 38.1735 129.626 38.2701C129.649 38.3666 129.592 38.464 129.497 38.492L127.616 39.0391C127.352 39.1162 127.136 39.2924 127.007 39.5346C126.878 39.7769 126.852 40.0547 126.936 40.3164C127.085 40.7814 127.545 41.0728 128.029 41.0109L129.488 40.8229C129.581 40.8111 129.671 40.872 129.693 40.9644C129.715 41.0575 129.664 41.1515 129.574 41.1837L128.868 41.4327C128.037 41.7267 127.57 42.6211 127.805 43.4698C127.832 43.5689 127.774 43.6722 127.674 43.6993C127.66 43.7052 127.643 43.7078 127.626 43.7078Z" fill="#363E44"/>
<path d="M116.422 35.9187L119.151 48.4949L103.566 54.6161C100.422 55.851 83.87 48.6516 83.87 48.6516L85.9273 31.8396L105.961 39.6023L116.422 35.9187Z" fill="#EFBC73"/>
<path d="M54.1302 45.0485L45.4202 55.1811L36.5847 46.1801C32.7449 42.9133 33.2656 36.8471 37.6024 34.2748C43.6165 30.7089 50.3344 26.8957 62.8545 27.3396L59.8763 38.7325L51.3851 43.1148L54.1302 45.0485Z" fill="#EFBC73"/>
<path d="M49.2219 42.8454C49.1778 42.8454 49.1337 42.8302 49.098 42.7988L48.8648 42.5922C47.0034 40.9456 45.0785 39.2432 43.2213 37.528C43.1458 37.4577 43.1407 37.34 43.2111 37.2646C43.2815 37.1892 43.3994 37.1841 43.4749 37.2544C45.3286 38.9662 47.2519 40.6678 49.1125 42.3127L49.3457 42.5193C49.4228 42.5879 49.4296 42.7057 49.3618 42.7827C49.3253 42.8242 49.2736 42.8454 49.2219 42.8454Z" fill="#363E44"/>
<path d="M52.8938 53.6608C52.8938 53.6608 69.7794 61.0025 87.8964 56.5685L87.6555 32.7332C87.6555 32.7332 77.4319 26.4536 58.773 27.2659L52.8938 53.6608Z" fill="#EFBC73"/>
<path d="M68.2682 45.3051C67.5788 45.3051 66.8741 45.1509 66.2084 44.8299C65.0127 44.2531 64.1206 43.213 63.7619 41.9772C63.7331 41.8782 63.7899 41.7748 63.8891 41.746C63.9883 41.7172 64.0918 41.774 64.1206 41.8731C64.4496 43.0072 65.2705 43.9626 66.3712 44.4937C68.1936 45.3728 70.334 44.896 71.4593 43.3604C71.5204 43.2774 71.6374 43.2588 71.7205 43.3197C71.8036 43.3807 71.8214 43.4976 71.7612 43.5806C70.9412 44.6986 69.6344 45.3051 68.2682 45.3051Z" fill="#363E44"/>
<path d="M80.1583 46.4664C80.0836 46.4664 80.009 46.4647 79.9335 46.4613C78.6064 46.4004 77.3776 45.7939 76.561 44.7987C76.4957 44.7191 76.5076 44.6014 76.5873 44.5361C76.667 44.4709 76.7849 44.4828 76.8502 44.5624C77.5998 45.4763 78.7302 46.0328 79.9513 46.0887C81.9747 46.1835 83.753 44.9037 84.1838 43.0497C84.2067 42.9489 84.3076 42.887 84.4077 42.9099C84.5077 42.9328 84.5705 43.0336 84.5476 43.1335C84.0913 45.0943 82.2664 46.4664 80.1583 46.4664Z" fill="#363E44"/>
<path d="M87.7276 47.8495C87.6242 47.8495 87.5411 47.7657 87.5411 47.6632V39.8776C87.5411 39.7743 87.625 39.6913 87.7276 39.6913C87.8311 39.6913 87.9142 39.7751 87.9142 39.8776V47.6632C87.9142 47.7657 87.8302 47.8495 87.7276 47.8495Z" fill="#363E44"/>
<path d="M56.5707 48.0909C56.2188 47.7648 54.7831 46.6933 52.9209 45.2839C50.9272 43.7754 48.1805 43.6992 46.1291 45.1281C46.074 45.1671 46.0181 45.206 45.9621 45.245C42.8015 47.4794 42.6743 52.1192 45.7102 54.5196C50.6889 58.4564 55.5099 62.1806 56.2867 62.8989C57.116 63.7205 59.0215 65.6203 59.6516 65.0638C60.5098 64.3057 58.7756 61.9867 58.8019 61.8376C59.3963 62.4856 61.4765 64.5531 62.2219 63.9492C62.7943 63.485 61.3552 60.8314 61.0211 60.1521C61.0796 60.1766 63.0742 62.998 63.9993 62.306C64.7863 61.7173 63.5049 59.1543 63.2472 58.4589C63.8459 59.0247 65.6657 60.6467 66.2067 59.9581C67.3414 58.5157 58.2981 49.69 56.5707 48.0909Z" fill="#E2A18D"/>
<path d="M63.3286 58.6013C63.2607 58.6013 63.1954 58.5641 63.1624 58.4997C62.9419 58.0694 62.6892 57.6501 62.411 57.2554C61.9124 56.5448 61.3239 55.8952 60.6616 55.3226C60.5835 55.2548 60.5751 55.1371 60.6429 55.0592C60.7107 54.9813 60.8278 54.9728 60.9066 55.0397C61.5918 55.6318 62.2016 56.3051 62.718 57.0403C63.0055 57.4494 63.2675 57.8831 63.4956 58.3286C63.5423 58.4201 63.5066 58.5327 63.4142 58.5793C63.3862 58.5945 63.3574 58.6013 63.3286 58.6013Z" fill="#363E44"/>
<path d="M61.0983 60.3258C61.0372 60.3258 60.9779 60.2961 60.9423 60.2419C60.8863 60.1572 60.8286 60.0717 60.7676 59.9853C60.2689 59.2747 59.6804 58.625 59.0181 58.0525C58.9401 57.9847 58.9316 57.867 58.9995 57.789C59.0673 57.7111 59.1843 57.7027 59.2632 57.7696C59.9484 58.3616 60.5581 59.035 61.0745 59.7702C61.1373 59.8591 61.1975 59.948 61.2552 60.0353C61.312 60.1217 61.2882 60.2369 61.2017 60.2936C61.1687 60.3156 61.1331 60.3258 61.0983 60.3258Z" fill="#363E44"/>
<path d="M58.779 61.9674C58.7255 61.9674 58.673 61.9445 58.6357 61.9004C58.271 61.4659 57.8674 61.056 57.4349 60.6825C57.3568 60.6147 57.3484 60.497 57.4162 60.4191C57.4841 60.3411 57.6011 60.3327 57.6799 60.3996C58.1277 60.7858 58.5458 61.2101 58.9223 61.6599C58.9884 61.7387 58.9783 61.8564 58.8994 61.9225C58.8638 61.953 58.8214 61.9674 58.779 61.9674Z" fill="#363E44"/>
<path d="M63.951 26.4011C69.8508 26.4011 74.6334 21.6241 74.6334 15.7315C74.6334 9.83883 69.8508 5.06189 63.951 5.06189C58.0513 5.06189 53.2686 9.83883 53.2686 15.7315C53.2686 21.6241 58.0513 26.4011 63.951 26.4011Z" fill="#363E44"/>
<path d="M65.9795 22.0237C61.1076 22.0237 57.1432 18.0649 57.1432 13.1981C57.1432 13.0947 57.2271 13.0117 57.3297 13.0117C57.4332 13.0117 57.5163 13.0956 57.5163 13.1981C57.5163 17.8591 61.3128 21.6502 65.9786 21.6502C67.7391 21.6502 69.4258 21.1158 70.8581 20.1045C70.942 20.0452 71.0591 20.0646 71.1184 20.1493C71.1778 20.2332 71.1583 20.3501 71.0735 20.4094C69.5793 21.4656 67.8171 22.0237 65.9795 22.0237Z" fill="#40484C"/>
<path d="M70.9666 20.4442C70.9081 20.4442 70.8505 20.4171 70.814 20.3654C70.7546 20.2815 70.7741 20.1647 70.8589 20.1054C73.1028 18.5215 74.4426 15.939 74.4426 13.199C74.4426 8.53796 70.6461 4.74682 65.9803 4.74682C61.3137 4.74682 57.518 8.53881 57.518 13.199C57.518 13.3023 57.434 13.3853 57.3314 13.3853C57.228 13.3853 57.1449 13.3015 57.1449 13.199C57.1449 8.33299 61.1085 4.37329 65.9812 4.37329C70.8538 4.37329 74.8175 8.33214 74.8175 13.199C74.8175 16.0601 73.4191 18.7561 71.076 20.4103C71.0413 20.4332 71.0039 20.4442 70.9666 20.4442Z" fill="#363E44"/>
<path d="M64.95 27.6809C64.95 27.6809 72.549 33.6226 81.7949 30.7445C81.7949 30.7445 75.4009 27.3201 64.95 27.6809Z" fill="#E2A18D"/>
<path d="M73.9499 31.0799L73.0264 30.7284C71.9766 30.3286 71.4491 29.1556 71.8494 28.1061L73.8109 22.9623C74.2111 21.9137 75.3856 21.3869 76.4363 21.7867L77.3598 22.1382C78.4096 22.538 78.9371 23.7111 78.5368 24.7605L76.5754 29.9043C76.1751 30.9529 74.9998 31.4789 73.9499 31.0799Z" fill="#E2A18D"/>
<path d="M74.6665 15.4833C74.8751 15.3842 76.8875 14.4677 78.6479 15.4341C79.9581 16.1532 80.5577 17.4652 81.231 19.8182C82.0239 22.5896 82.1104 24.3564 81.5236 25.1712C80.5967 26.4586 76.2243 25.9013 73.9839 24.0396C72.3667 22.6963 71.6874 20.4594 72.1377 18.3918C72.5855 16.3294 74.5334 15.5459 74.6665 15.4833Z" fill="#E2A18D"/>
<path d="M80.8808 17.3264C80.885 17.345 80.9011 17.356 80.9053 17.3747C80.9053 17.3755 80.9053 17.3764 80.9053 17.3772C81.0419 17.6093 81.1869 17.8541 81.3641 18.0573C81.4421 18.1471 81.5337 18.1818 81.6168 18.2581C81.6779 18.314 81.7364 18.3682 81.7991 18.4207C82.1841 17.6144 82.1392 16.7708 82.1392 16.7708C82.1392 16.7708 81.4956 16.9097 80.8808 17.3264Z" fill="white"/>
<path d="M79.5994 20.0309C79.6121 20.0376 79.6257 20.0444 79.6384 20.0512C79.847 20.0012 80.8765 19.7175 81.504 18.9035C81.6219 18.7511 81.7177 18.5893 81.7958 18.4267C81.7813 18.3538 81.7627 18.2818 81.7372 18.2098C81.5855 17.7897 81.2641 17.4797 80.8791 17.3264C80.6501 17.484 80.4237 17.6805 80.2346 17.9261C79.5977 18.7528 79.5943 19.8403 79.5994 20.0309Z" fill="#363E44"/>
<path d="M76.7433 20.7331C76.8459 21.0346 76.9799 21.243 77.2284 21.4209C77.9263 21.121 78.3859 20.6391 78.3859 20.6391C78.3859 20.6391 77.5625 20.0758 76.5754 20.0377C76.5711 20.2723 76.6704 20.5197 76.7433 20.7331Z" fill="white"/>
<path d="M76.5728 20.0376C76.4626 20.0342 76.3507 20.0376 76.2379 20.0486C75.0956 20.163 74.2493 21.0523 74.2493 21.0523C74.2493 21.0523 75.255 21.7562 76.3982 21.6418C76.6933 21.6122 76.968 21.5309 77.2148 21.4267C77.2691 20.8906 77.0308 20.3527 76.5728 20.0376Z" fill="#363E44"/>
<path d="M69.6522 18.8552C69.7735 21.4758 70.5672 23.246 73.4445 24.375C74.7462 23.412 73.5658 21.8671 73.7668 21.1175C74.0169 20.1849 73.1282 18.4113 72.6033 17.6677C75.5044 16.8978 79.9191 16.188 79.97 16.0702C80.1209 15.7213 79.2831 14.8819 77.7533 14.0468C76.89 13.5758 75.5518 12.9296 74.3375 13.3158C72.1776 14.0044 69.5021 15.6019 69.6522 18.8552Z" fill="#363E44"/>
<path d="M74.6329 23.976C75.1849 23.422 75.1004 22.444 74.4442 21.7916C73.7879 21.1393 72.8083 21.0596 72.2563 21.6136C71.7042 22.1677 71.7887 23.1457 72.445 23.798C73.1013 24.4504 74.0808 24.5301 74.6329 23.976Z" fill="#E2A18D"/>
<path d="M73.0688 23.5984C73.0315 23.5984 72.9942 23.5874 72.962 23.5645C72.9069 23.5256 72.8543 23.4815 72.806 23.4341C72.3998 23.0301 72.3565 22.4143 72.7093 22.0603C72.7983 21.9705 72.9052 21.9044 73.0273 21.8638C73.1248 21.8307 73.2308 21.8832 73.2639 21.9815C73.297 22.0789 73.2444 22.1848 73.146 22.2178C73.0799 22.2398 73.0214 22.2754 72.9739 22.3237C72.7661 22.532 72.8094 22.9115 73.0688 23.1698C73.1019 23.2029 73.1384 23.2333 73.1765 23.2596C73.2605 23.3189 73.2817 23.4349 73.2223 23.5196C73.185 23.5713 73.1274 23.5984 73.0688 23.5984Z" fill="#363E44"/>
<path d="M80.2999 21.6062C80.2855 21.6062 80.2702 21.6045 80.2549 21.6011C80.1549 21.5766 80.0938 21.4758 80.1184 21.3758C80.1455 21.2657 80.1413 21.1802 80.1065 21.1209C80.0751 21.0667 80.0183 21.0421 79.9047 20.9947C79.808 20.9549 79.6884 20.9049 79.5579 20.8134C79.3916 20.6957 79.2509 20.539 79.1398 20.3467C79.0881 20.2578 79.1186 20.1434 79.2085 20.0918C79.2975 20.0401 79.412 20.0706 79.4637 20.1604C79.5477 20.3052 79.652 20.423 79.7741 20.5085C79.8699 20.5763 79.9607 20.6135 80.048 20.65C80.1879 20.7075 80.3329 20.7677 80.4296 20.932C80.5153 21.0777 80.5331 21.2572 80.4822 21.4639C80.4601 21.5495 80.3838 21.6062 80.2999 21.6062Z" fill="#363E44"/>
<path d="M79.7054 23.2536C79.289 23.2536 79.0126 23.0097 78.9371 22.9343C78.8642 22.8614 78.8642 22.7429 78.938 22.6709C79.0109 22.598 79.1288 22.598 79.2025 22.6717C79.2534 22.7225 79.4408 22.8885 79.7232 22.8809C79.9759 22.875 80.1447 22.7352 80.2057 22.6751C80.2795 22.6031 80.3974 22.6039 80.4695 22.6768C80.5415 22.7505 80.5407 22.8682 80.4678 22.9402C80.3753 23.0308 80.1184 23.2443 79.7325 23.2536C79.7224 23.2536 79.7139 23.2536 79.7054 23.2536Z" fill="#363E44"/>
<path d="M79.222 26.0394C76.734 26.0394 75.7672 25.239 75.7231 25.2009C75.6451 25.134 75.6358 25.0163 75.7028 24.9375C75.7698 24.8596 75.8868 24.8502 75.9657 24.9172C75.9835 24.9316 77.1308 25.8548 80.1438 25.6312C80.2447 25.6235 80.3363 25.7006 80.344 25.8031C80.3516 25.9056 80.2744 25.9954 80.1718 26.003C79.8335 26.0276 79.5172 26.0394 79.222 26.0394Z" fill="#363E44"/>
</g>
<defs>
<linearGradient id="paint0_linear_126_3" x1="-2.34564" y1="47.2764" x2="235.16" y2="9.89399" gradientUnits="userSpaceOnUse">
<stop stop-color="#F2E6DC"/>
<stop offset="1" stop-color="#F2E6DC"/>
</linearGradient>
<linearGradient id="paint1_linear_126_3" x1="-2.34564" y1="47.2764" x2="235.16" y2="9.89399" gradientUnits="userSpaceOnUse">
<stop stop-color="#D9D9D9"/>
<stop offset="1" stop-color="#DBD0DD"/>
</linearGradient>
</defs>
</svg>
