<svg width="220" height="102" viewBox="0 0 220 102" fill="none" xmlns="http://www.w3.org/2000/svg">
<path fill-rule="evenodd" clip-rule="evenodd" d="M157.918 -34.0283C200.014 -25.9904 246.725 -11.0456 253.142 20.5C258.902 48.8153 216.718 73.7421 182.648 84.7508C156.641 93.1544 125.852 89.4152 101 76.5C80.3898 65.7892 46.8511 82.0855 25 70C-9.9369 50.677 -5.87248 -8.27449 8.49999 -34.0283C32.18 -76.4602 94.9047 -46.0602 157.918 -34.0283Z" fill="url(#paint0_linear_126_1022)"/>
<mask id="mask0_126_1022" style="mask-type:alpha" maskUnits="userSpaceOnUse" x="-3" y="-56" width="257" height="146">
<path fill-rule="evenodd" clip-rule="evenodd" d="M157.918 -34.0283C200.014 -25.9904 246.725 -11.0456 253.142 20.5C258.902 48.8153 216.718 73.7421 182.648 84.7508C156.641 93.1544 125.852 89.4152 101 76.5C80.3898 65.7892 46.8511 82.0855 25 70C-9.9369 50.677 -5.87248 -8.27449 8.49999 -34.0283C32.18 -76.4602 94.9047 -46.0602 157.918 -34.0283Z" fill="url(#paint1_linear_126_1022)"/>
</mask>
<g mask="url(#mask0_126_1022)">
<path d="M125.087 34.3564H109.108V73.4256H125.087V34.3564Z" fill="#E6D0BE"/>
<path d="M146.28 25.6886H130.301V73.4256H146.28V25.6886Z" fill="#E6D0BE"/>
<path d="M167.473 14.8846H151.494V73.4256H167.473V14.8846Z" fill="#E6D0BE"/>
<path d="M174.79 7.90552L160.954 21.8169L152.804 13.6213L133.096 33.4382H137.486L152.804 18.0356L160.954 26.2312L176.985 10.1127L174.79 7.90552Z" fill="#D87355"/>
<path d="M177.399 13.0945L172.196 7.86271L180 5.24683L177.399 13.0945Z" fill="#D87355"/>
<path d="M76.189 8.58074L70.925 -0.334961L65.6611 8.58074H68.1073V70.5998H73.7427V8.58074H76.189Z" fill="#F7F1EB"/>
<path d="M65.6865 70.073H59.2993C59.2615 70.073 59.2306 70.042 59.2306 70.004V33.7634H56.5262C56.5015 33.7634 56.4788 33.7503 56.4665 33.7282C56.4541 33.7068 56.4548 33.6798 56.4671 33.6584L62.4342 23.5532C62.4589 23.5111 62.5275 23.5111 62.5523 23.5532L68.5193 33.6584C68.5316 33.6798 68.5323 33.7061 68.52 33.7282C68.5076 33.7496 68.485 33.7634 68.4602 33.7634H65.7558V70.004C65.7551 70.042 65.7242 70.073 65.6865 70.073ZM59.3679 69.935H65.6178V33.6943C65.6178 33.6564 65.6487 33.6253 65.6865 33.6253H68.3394L62.4925 23.7244L56.6463 33.6253H59.2993C59.337 33.6253 59.3679 33.6564 59.3679 33.6943V69.935V69.935Z" fill="#8B865C"/>
<path d="M121.699 62.1966C121.699 62.1966 114.002 66.5143 98.4385 68.3397C81.1911 70.3625 98.0081 52.3385 98.0081 52.3385C98.0081 52.3385 110.478 47.4374 116.779 44.9472C122.176 42.8139 121.699 62.1966 121.699 62.1966Z" fill="#E2A18D"/>
<path d="M110.129 54.5796C110.129 54.5796 115.55 38.4818 118.156 32.1343C120.892 25.4686 125.897 16.0275 127.202 16.7483C127.945 17.1591 127.527 18.5882 126.158 22.3349C126.415 22.2148 127.285 22.0463 127.912 22.5407C128.839 23.2725 128.458 24.1886 128.462 24.2853C128.546 24.2376 129.532 23.7454 130.236 24.1299C131.028 24.5628 131.225 25.3071 131.16 26.0154C131.372 25.9036 132.351 25.5791 133.008 25.9816C133.862 26.5056 133.845 27.6199 133.518 28.3827C132.919 29.7829 131.188 33.5676 130.526 35.6871C129.225 39.857 127.469 55.97 123.113 60.818C115.328 69.481 108.752 58.7868 110.129 54.5796Z" fill="#E2A18D"/>
<path d="M125.439 35.0092C125.437 35.0092 125.436 35.0092 125.435 35.0092C125.397 35.0071 125.368 34.9746 125.37 34.9367C125.455 33.3688 124.945 32.2041 124.535 31.2686C124.112 30.3021 123.805 29.6041 124.406 29.0062C124.838 28.5754 125.133 27.8698 125.282 26.9088C125.328 26.614 125.162 26.4062 124.992 26.3102C124.819 26.2129 124.553 26.1784 124.324 26.3744L120.769 29.408C120.741 29.4329 120.697 29.4294 120.673 29.3997C120.648 29.3707 120.651 29.3272 120.681 29.3024L124.235 26.2688C124.469 26.07 124.792 26.0389 125.06 26.1894C125.329 26.3413 125.466 26.6244 125.419 26.9295C125.264 27.9209 124.956 28.652 124.503 29.1042C123.97 29.6345 124.246 30.2627 124.662 31.2127C125.078 32.162 125.595 33.3432 125.508 34.9443C125.505 34.9808 125.475 35.0092 125.439 35.0092Z" fill="#363E44"/>
<path d="M131.665 30.4974C131.656 30.4974 131.647 30.4954 131.638 30.4919C130.484 29.9969 129.903 28.6755 130.313 27.4846L130.406 27.2133L129.792 28.2309C129.401 28.8785 128.607 29.1526 127.903 28.8826C127.507 28.7307 127.196 28.4318 127.028 28.0403C126.859 27.6489 126.855 27.216 127.017 26.8218L127.463 25.7303C127.118 26.2778 126.4 26.4801 125.82 26.1791C125.249 25.8829 124.992 25.2049 125.221 24.6022L125.829 22.9984C125.843 22.9625 125.882 22.9446 125.917 22.9584C125.953 22.9722 125.97 23.0115 125.957 23.0475L125.349 24.6512C125.145 25.1883 125.375 25.7924 125.883 26.0562C126.422 26.3358 127.096 26.1273 127.385 25.5908L127.946 24.5497C127.963 24.5173 128.002 24.5042 128.035 24.5201C128.068 24.5359 128.084 24.5746 128.07 24.6084L127.144 26.8736C126.997 27.2333 127.001 27.6282 127.155 27.9844C127.308 28.3414 127.592 28.6141 127.953 28.7528C128.594 28.9986 129.319 28.7487 129.676 28.1584L130.625 26.5857C130.642 26.5553 130.68 26.5436 130.712 26.5588C130.744 26.574 130.76 26.6106 130.748 26.6437L130.443 27.5281C130.056 28.6513 130.605 29.8968 131.692 30.3635C131.727 30.3787 131.743 30.4187 131.729 30.454C131.717 30.4816 131.691 30.4974 131.665 30.4974Z" fill="#363E44"/>
<path d="M40.7175 77.4329C41.0642 76.5609 45.2152 59.2646 58.8918 52.9592C58.8918 52.9592 60.8369 67.6887 60.8369 68.2113C60.8369 68.7346 54.0755 79.3687 54.0755 79.3687L40.7175 77.4329Z" fill="#E2A18D"/>
<path d="M109.301 46.0215C109.301 46.0215 94.0692 48.3902 79.6394 47.2511C72.8506 46.7153 60.0968 46.6566 55.7981 49.4914C46.1874 55.8292 43.6059 66.1636 43.6059 66.1636L60.3075 69.2358L57.9464 86.167H103.392L100.583 70.219L111.022 67.9441L109.301 46.0215Z" fill="#8B865C"/>
<path d="M100.174 69.0502C100.141 69.0502 100.112 69.0274 100.106 68.9943L99.1876 64.1243C99.1808 64.087 99.2048 64.0504 99.2426 64.0435C99.2803 64.0359 99.316 64.0607 99.3229 64.0987L100.242 68.9687C100.248 69.006 100.224 69.0426 100.187 69.0495C100.182 69.0495 100.178 69.0502 100.174 69.0502Z" fill="#363E44"/>
<path d="M91.9703 73.4728C90.3054 72.6284 83.9422 68 80.6858 69.6777C77.406 71.3671 75.7953 75.129 75.4952 78.8226C75.5049 78.8343 75.5151 78.8475 75.5241 78.8592C75.8756 79.8223 76.5478 81.2093 77.8976 82.229C79.4362 83.3916 80.3809 82.9643 82.1948 83.937C85.2563 85.5794 85.5385 88.4998 86.6988 88.0911C87.4952 87.8108 87.4032 86.1021 86.9171 84.5653C86.4173 82.9877 85.4341 82.1786 85.6195 81.9818C85.8234 81.7657 86.7166 82.7178 87.936 83.7982C88.5024 84.3002 89.213 86.6426 90.3569 86.4203C91.2686 86.2436 91.1361 83.6229 89.8399 81.7409C88.9233 80.4098 87.4114 80.0094 87.5412 79.7443C87.6387 79.5454 88.5333 79.8057 89.2384 80.2614C90.4015 81.0132 91.154 83.4013 92.2031 83.1769C93.2309 82.9567 93.0743 80.6701 91.9916 78.8633C91.0784 77.3396 89.3716 76.9751 89.5309 76.6444C89.6428 76.4118 90.4413 76.4152 92.0348 76.922C93.3647 77.3445 95.6806 79.029 96.3287 77.6959C96.8738 76.574 94.4832 74.7472 91.9703 73.4728Z" fill="#E2A18D"/>
<path d="M42.8122 72.3219C42.8122 72.3219 35.1809 82.4734 45.0621 87.3351C54.9433 92.1969 78.821 79.1948 78.821 79.1948L82.4695 69.316C69.2158 67.6466 54.7058 68.4751 42.8122 72.3219Z" fill="#E2A18D"/>
<path d="M49.3999 70.6201C49.3669 70.6201 49.3374 70.596 49.3319 70.5614C49.3264 70.5235 49.3518 70.4882 49.3889 70.4827L59.4088 68.9135C59.4466 68.9079 59.4816 68.9335 59.4871 68.9708C59.4926 69.0087 59.4671 69.044 59.4301 69.0495L49.4102 70.6187C49.4068 70.6194 49.4033 70.6201 49.3999 70.6201Z" fill="#363E44"/>
<path d="M75.4952 48.5227C78.6343 50.4786 81.6298 50.8466 84.429 49.0281L88.6741 38.1572L80.7633 35.0332L75.4952 48.5227Z" fill="#E2A18D"/>
<path d="M93.7108 39.2474C92.7846 41.4394 86.188 41.1239 86.188 41.1239L80.1097 37.1769C78.3638 34.3235 79.2494 30.5871 82.0877 28.8315C84.9254 27.0765 88.6411 27.9664 90.3871 30.8205C90.3864 30.8205 94.6541 37.0147 93.7108 39.2474Z" fill="#E2A18D"/>
<path d="M90.6266 32.5444C90.6266 32.5444 92.9967 33.1713 93.1656 33.6194C93.3668 34.1544 91.9401 35.4392 91.9401 35.4392C91.9401 35.4392 90.6672 32.5244 90.6266 32.5444Z" fill="#E2A18D"/>
<path d="M85.8543 35.1914C85.8543 35.1914 86.4297 34.1937 87.4671 33.5524C87.6875 33.4157 88.3576 35.4489 88.0864 35.4779C86.8952 35.6056 85.8543 35.1914 85.8543 35.1914Z" fill="white"/>
<path d="M87.4829 33.4799C87.7465 32.3663 88.8587 31.678 89.9669 31.9438C91.0743 32.2089 91.7588 33.3273 91.4945 34.4416C91.2309 35.5552 90.1186 36.2435 89.0105 35.9777C87.903 35.7119 87.2192 34.5942 87.4829 33.4799Z" fill="#363E44"/>
<path d="M90.7736 37.3164C90.766 37.3164 90.7592 37.3164 90.7516 37.3164C90.4063 37.3081 90.0891 37.0975 89.9435 36.7806C89.9277 36.7461 89.9428 36.7047 89.9772 36.6888C90.0115 36.6729 90.0527 36.6881 90.0685 36.7226C90.1927 36.9926 90.4626 37.1714 90.7557 37.1783C91.0626 37.1852 91.3428 37.0105 91.476 36.733C91.4924 36.6985 91.5329 36.684 91.5673 36.7005C91.6016 36.7171 91.616 36.7585 91.5995 36.7924C91.4457 37.112 91.1231 37.3164 90.7736 37.3164Z" fill="#363E44"/>
<path d="M87.0647 41.2972C86.5663 41.2972 86.2498 41.2827 86.2388 41.2827C86.201 41.2806 86.1715 41.2488 86.1736 41.2102C86.1756 41.1722 86.2086 41.1439 86.2457 41.1446C86.2841 41.1467 90.0912 41.3172 92.2841 40.448C92.3191 40.4342 92.3589 40.4515 92.3733 40.4867C92.3871 40.5219 92.3699 40.5619 92.3349 40.5764C90.7441 41.206 88.3239 41.2972 87.0647 41.2972Z" fill="#363E44"/>
<path d="M87.1554 29.1794C88.1591 28.9247 88.926 28.1066 89.11 27.082C89.4389 25.2525 89.682 22.4233 88.4228 21.0673C88.1832 20.8091 87.9655 20.6759 87.6531 20.593C85.9113 20.1346 85.0002 23.3857 81.6978 25.4051C78.5148 27.3506 75.7932 26.5118 74.8712 28.5954C74.4661 29.5115 74.6611 30.4456 74.6995 30.6741C75.2124 33.6897 77.9896 34.4582 77.9896 34.4582C77.9896 34.4582 76.1303 34.1136 76.0095 36.628C75.8887 39.1424 83.5955 37.7223 83.5955 37.7223L84.3157 36.5949L82.8794 34.3284C81.787 32.6045 82.6933 30.3117 84.6645 29.8118L87.1554 29.1794Z" fill="#363E44"/>
<path d="M79.1251 37.8142C79.2961 38.9568 80.3562 39.7438 81.4925 39.5719C82.6287 39.4 83.4114 38.334 83.2405 37.1915C83.0695 36.0489 82.0094 35.2618 80.8732 35.4337C79.7362 35.6056 78.9542 36.6716 79.1251 37.8142Z" fill="#E2A18D"/>
<path d="M82.6398 24.6871C82.6398 24.6871 82.8313 33.5994 79.3415 38.6765C76.7881 39.1197 76.2333 38.2526 76.2333 38.2526C76.2333 38.2526 79.6223 28.7804 79.3394 25.187C80.6041 24.3537 82.6398 24.6871 82.6398 24.6871Z" fill="#EFBC73"/>
<path d="M79.5193 25.6226C76.6631 25.9174 74.2821 27.5336 73.5152 29.8112C72.7778 32.0025 73.7507 34.1578 73.8921 34.4602C73.8921 34.4602 74.2134 35.1472 76.6061 37.975C76.6068 37.9743 80.5004 29.0165 79.5193 25.6226Z" fill="#EFBC73"/>
<path d="M77.6937 35.2874C77.6841 35.2874 77.6745 35.2853 77.6648 35.2812C77.6305 35.2653 77.6154 35.2245 77.6312 35.1893C79.4328 31.2451 79.2989 26.1977 79.2975 26.1473C79.2961 26.1093 79.3264 26.0776 79.3641 26.0762C79.4005 26.0755 79.4335 26.1052 79.4348 26.1432C79.4362 26.1942 79.5715 31.2734 77.7562 35.2473C77.7445 35.2722 77.7198 35.2874 77.6937 35.2874Z" fill="#E0AA63"/>
<path d="M130.112 86.1312C129.404 87.6521 127.885 88.6242 126.215 88.6242H99.4025L111.411 62.8174H140.96L130.112 86.1312Z" fill="white"/>
<path d="M81.8029 86.0332C81.8029 87.4713 82.9618 88.6367 84.3919 88.6367H109.116L110.327 86.0332H81.8029Z" fill="white"/>
<path d="M122.975 75.7965C123.766 75.2231 123.945 74.1133 123.375 73.3178C122.805 72.5223 121.701 72.3422 120.91 72.9156C120.119 73.489 119.94 74.5988 120.51 75.3943C121.08 76.1898 122.184 76.3699 122.975 75.7965Z" fill="#F2E6DC"/>
<path d="M110.576 90.0001H85.8523C84.3871 90.0001 83.1945 88.8016 83.1945 87.3276C83.1945 87.2896 83.2254 87.2585 83.2632 87.2585H102.025L112.809 64.0822C112.82 64.058 112.845 64.0421 112.872 64.0421H142.421C142.445 64.0421 142.467 64.0539 142.479 64.0739C142.491 64.0939 142.493 64.1188 142.483 64.1402L131.635 87.4546C130.919 88.9928 129.365 89.987 127.676 89.987H110.616C110.604 89.9953 110.59 90.0001 110.576 90.0001ZM83.3332 87.3966C83.3696 88.7622 84.486 89.862 85.8529 89.862H110.543C110.555 89.8537 110.568 89.8496 110.582 89.8496H127.676C129.312 89.8496 130.817 88.8865 131.511 87.3966L142.313 64.1809H112.916L102.132 87.3573C102.121 87.3814 102.096 87.3973 102.069 87.3973H83.3332V87.3966Z" fill="#363E44"/>
<path d="M146.411 6.58669C146.411 9.3089 144.216 11.5154 141.509 11.5154H114.977C112.27 11.5154 110.076 9.3089 110.076 6.58669V5.99779C110.076 3.27558 112.271 1.06909 114.977 1.06909H141.509C144.216 1.06909 146.411 3.27558 146.411 5.99779V6.58669V6.58669Z" fill="white"/>
<path d="M112.904 28.6342L119.738 6.81238L98.0366 13.6845L102.241 17.9125L93.7874 26.4139L100.245 32.907L108.698 24.4056L112.904 28.6342Z" fill="#D87355"/>
<path d="M120.615 4.12194C120.578 4.12194 120.547 4.09088 120.547 4.0529V1.06904C120.547 1.03107 120.578 1 120.615 1C120.653 1 120.684 1.03107 120.684 1.06904V4.0529C120.684 4.09088 120.654 4.12194 120.615 4.12194Z" fill="#363E44"/>
<path d="M120.615 10.9341C120.578 10.9341 120.547 10.903 120.547 10.865V7.88117C120.547 7.8432 120.578 7.81213 120.615 7.81213C120.653 7.81213 120.684 7.8432 120.684 7.88117V10.865C120.684 10.9037 120.654 10.9341 120.615 10.9341Z" fill="#363E44"/>
<path d="M118.712 6.03639H115.745C115.707 6.03639 115.676 6.00533 115.676 5.96735C115.676 5.92938 115.707 5.89832 115.745 5.89832H118.712C118.75 5.89832 118.781 5.92938 118.781 5.96735C118.781 6.00533 118.75 6.03639 118.712 6.03639Z" fill="#363E44"/>
<path d="M125.487 6.03639H122.519C122.481 6.03639 122.451 6.00533 122.451 5.96735C122.451 5.92938 122.481 5.89832 122.519 5.89832H125.487C125.524 5.89832 125.555 5.92938 125.555 5.96735C125.555 6.00533 125.524 6.03639 125.487 6.03639Z" fill="#363E44"/>
<rect x="162" y="51" width="18" height="18" rx="9" fill="white"/>
<path fill-rule="evenodd" clip-rule="evenodd" d="M167.512 60.0001C167.512 59.6101 167.578 59.2363 167.696 58.8857L165.63 57.3407C165.227 58.1413 165 59.0434 165 60.0001C165 60.9559 165.227 61.8575 165.629 62.6575L167.694 61.1095C167.577 60.7605 167.512 60.3881 167.512 60.0001Z" fill="#FBBC05"/>
<path fill-rule="evenodd" clip-rule="evenodd" d="M171.14 56.4528C172.005 56.4528 172.786 56.7529 173.4 57.2441L175.186 55.4977C174.098 54.57 172.702 53.9969 171.14 53.9969C168.713 53.9969 166.628 55.3556 165.63 57.3407L167.696 58.8856C168.172 57.4705 169.529 56.4528 171.14 56.4528Z" fill="#EB4335"/>
<path fill-rule="evenodd" clip-rule="evenodd" d="M171.14 63.5475C169.529 63.5475 168.172 62.5297 167.696 61.1146L165.63 62.6593C166.628 64.6447 168.713 66.0033 171.14 66.0033C172.637 66.0033 174.067 65.4827 175.14 64.5072L173.179 63.0225C172.625 63.3639 171.928 63.5475 171.14 63.5475Z" fill="#34A853"/>
<path fill-rule="evenodd" clip-rule="evenodd" d="M177 60C177 59.6453 176.944 59.2633 176.86 58.9086H171.14V61.2279H174.433C174.268 62.0187 173.82 62.6267 173.178 63.0223L175.14 64.507C176.267 63.4826 177 61.9568 177 60Z" fill="#4285F4"/>
</g>
<defs>
<linearGradient id="paint0_linear_126_1022" x1="-2.84502" y1="35.5562" x2="223.112" y2="-4.40221" gradientUnits="userSpaceOnUse">
<stop stop-color="#F2E6DC"/>
<stop offset="1" stop-color="#F2E6DC"/>
</linearGradient>
<linearGradient id="paint1_linear_126_1022" x1="-2.84502" y1="35.5562" x2="223.112" y2="-4.40221" gradientUnits="userSpaceOnUse">
<stop stop-color="#F2E6DC"/>
<stop offset="1" stop-color="#F2E6DC"/>
</linearGradient>
</defs>
</svg>
