<svg xmlns:x="http://ns.adobe.com/Extensibility/1.0/" xmlns:i="http://ns.adobe.com/AdobeIllustrator/10.0/" xmlns:graph="http://ns.adobe.com/Graphs/1.0/" xmlns="http://www.w3.org/2000/svg" xmlns:xlink="http://www.w3.org/1999/xlink" version="1.1" id="Layer_1" x="0px" y="0px" viewBox="0 0 600 316" style="enable-background:new 0 0 600 316;" xml:space="preserve">
<style type="text/css">
	.st0{fill:#FFFFFF;}
	.st1{fill:#FDEAEE;}
	.st2{fill:#FFB8CE;}
	.st3{fill:#5C3362;}
	.st4{fill:#7C4290;}
	.st5{fill:#DF617B;}
	.st6{fill:#E26D84;}
	.st7{fill:none;stroke:#E199D3;stroke-width:17;stroke-miterlimit:10;}
	.st8{fill:#FFFFFF;stroke:#DDDAEC;stroke-width:15;stroke-miterlimit:10.0001;}
	.st9{fill:none;stroke:#FC8E90;stroke-width:16;stroke-miterlimit:10;}
	.st10{fill:#0288D1;}
	.st11{fill:#FFB300;}
	.st12{fill:#37474F;}
	.st13{fill:#FFC107;}
	.st14{fill:#FF3D00;}
	.st15{fill:#4CAF50;}
	.st16{fill:#1976D2;}
	.st17{fill:#E199D3;stroke:#E199D3;stroke-width:17;stroke-miterlimit:10;}
	.st18{fill:none;stroke:#FCB445;stroke-width:17;stroke-miterlimit:10;}
</style>
<metadata>
	<sfw xmlns="http://ns.adobe.com/SaveForWeb/1.0/">
		<slices/>
		<sliceSourceBounds bottomLeftOrigin="true" height="329.6" width="600" x="0" y="-1"/>
	</sfw>
</metadata>
<g>
	<path class="st0" d="M575,106.1L575,106.1l-0.1,107c-11.3,6.5-23,12.5-34.9,18v0c-5,2.3-10,4.6-15,6.7v-103h-0.1v102.9   c-11.7,5-23.4,9.5-34.9,13.5v0c-2.9,1-5.9,2-8.8,2.9c-1.7,0.6-3.4,1.1-5.1,1.6c-11.4,3.4-23.1,5.9-35,7.7v0   c-9.8,1.5-19.6,2.4-29.6,2.8L313,172l98.4,94.2c-9.8,0.4-19.6,0.3-29.5-0.3l0,0c-14.9-0.9-29.8-2.9-44.5-6l-57.1-54.6l18.5-18.9   l0,0l-18.6,18.9l57.1,54.6c-27.8-5.8-54.8-15.4-79.7-28.3c-56.4-29.3-148.2,15.3-208-17.8c-21.8-12-38-29.7-49.6-50.6V317h600   V197.6c-8,5.4-16.4,10.6-25,15.5V106.1z"/>
	<path class="st1" d="M0,1v162.2c11.6,20.9,27.8,38.5,49.6,50.6c59.8,33.1,151.6-11.5,208,17.8c24.9,12.9,51.9,22.5,79.7,28.3   l-57.1-54.6l18.6-18.9l0,0L313,172l98.5,94.2c10-0.4,19.8-1.3,29.6-2.8v0v-93.5v0h35v0v85.8c1.7-0.5,3.4-1,5.1-1.6   c2.9-0.9,5.9-1.9,8.8-2.9v0c0,0-0.1,0-0.1,0V134.8v-0.1h35v0.1h0.1v103c5-2.1,10-4.4,15-6.7v0c0,0-0.1,0-0.1,0v-125   c0,0,0.1,0,0.1,0h34.9h0.1v107c8.6-4.9,17-10.1,25-15.5V1H0z"/>
	<path class="st2" d="M574.9,106.1H540v125c11.9-5.5,23.6-11.5,34.9-18V106.1z"/>
	<path class="st2" d="M539.9,106.1v125c0,0,0.1,0,0.1,0L539.9,106.1C540,106.1,539.9,106.1,539.9,106.1z"/>
	<path class="st2" d="M524.9,134.8H490v116.4c11.5-4,23.2-8.5,34.9-13.5V134.8z"/>
	<path class="st2" d="M524.9,134.8L524.9,134.8l-35-0.1v0.1v116.4c0,0,0.1,0,0.1,0V134.8H524.9z"/>
	<path class="st2" d="M476.1,169.9h-35v93.5c11.9-1.8,23.6-4.3,35-7.7V169.9z"/>
	<rect x="441.1" y="169.9" class="st2" width="35" height="0"/>
	<path class="st3" d="M280.3,205.3l57.1,54.6c14.7,3.1,29.6,5.1,44.5,6l-83.1-79.5L280.3,205.3z"/>
	<path class="st4" d="M382,265.9c0,0-0.1,0-0.1,0L382,265.9c9.8,0.6,19.6,0.7,29.4,0.3L313,172l-14.2,14.4L382,265.9z"/>
	<rect x="298.8" y="186.4" transform="matrix(0.6911 -0.7227 0.7227 0.6911 -42.4344 273.5437)" class="st4" width="0" height="0"/>
	<polygon class="st4" points="298.8,186.4 298.8,186.4 298.8,186.4  "/>
	<polygon class="st4" points="298.8,186.4 313,172 298.8,186.4  "/>
	<path class="st4" d="M298.8,186.4L298.8,186.4l83.1,79.5c0,0,0.1,0,0.1,0L298.8,186.4z"/>
	<polygon class="st4" points="313,172 298.8,186.4 298.8,186.4  "/>
</g>
<path class="st5" d="M327,185.9l-30.6,37c-6.5,7.9-18.3,9-26.3,2.6l0,0c-8-6.4-9.2-18.1-2.7-26l30.6-37c6.5-7.9,18.3-9,26.3-2.6l0,0  C332.2,166.5,333.5,178,327,185.9z"/>
<path class="st6" d="M326.4,186.7l-15.1,18.1c-6.5,7.9-18.3,9-26.3,2.6l0,0c-8-6.4-9.2-18.1-2.7-26l14.9-18.1  c6.5-7.9,18.3-9,26.3-2.6l0,0C331.7,167.1,332.9,178.8,326.4,186.7z"/>
<polyline class="st7" points="27.7,198.3 101.6,120.1 207.2,174.6 308.6,70 409.7,140.8 496.7,80.3 "/>
<ellipse transform="matrix(0.7647 -0.6444 0.6444 0.7647 -21.9342 155.1587)" class="st8" cx="201.5" cy="107.6" rx="105.5" ry="102.7"/>
<polyline class="st9" points="89.2,114.6 147.3,140.1 194.3,83 250.1,120.3 297.5,72.3 "/>
<g>
	<path class="st10" d="M153.4,108.5c-13.5-3.1-26.8,5.1-30.1,18.6c-3.1,13.5,5.1,26.8,18.6,30.1c13.5,3.1,26.8-5.1,30.1-18.6   C175.2,125.1,166.8,111.6,153.4,108.5z"/>
	<path class="st0" d="M136.9,123.9l4.8,1.1l-4.3,18.3l-4.8-1.1L136.9,123.9z M140,122L140,122c-1.6-0.3-2.2-1.7-1.9-2.9   c0.3-1.4,1.6-2.2,3.1-1.9c1.6,0.3,2.2,1.6,1.9,2.9C142.6,121.5,141.4,122.3,140,122z M160.9,136.6c0.9-3.7-1.4-7.4-5.1-8.2   c-2.3-0.5-4.5,0.2-6.2,1.6l0.6-2.8l-4.8-1.1l-4.3,18.3l4.8,1.1l2.3-9.8c0.5-2,2.5-3.3,4.5-2.8s3.3,2.5,2.8,4.5l-2.3,9.8l4.8,1.1   C158.1,148.2,160.7,137,160.9,136.6z"/>
</g>
<circle class="st0" cx="197.7" cy="74.5" r="25"/>
<g>
	<ellipse class="st0" cx="254.9" cy="120.4" rx="25" ry="24.4"/>
	<path class="st11" d="M267.5,135.2c-4.7,3-11.3,4.2-16.4,3.3c-7.3-1.4-13.5-6.2-18-12.5c-0.4-0.6,0.1-1.1,0.5-0.6   c5,4.8,10.9,8.2,17.7,9.4c4.7,0.9,10.7,0.6,15.7-0.9C267.7,133.5,268.2,134.6,267.5,135.2z M269.3,132.8c-0.4-0.9-3.5-1.1-4.8-1.2   c-0.4-0.2-0.5-0.5,0-0.8c2.5-1.7,6.5-0.3,6.7,0.5c0.4,0.8-0.7,5.6-3.2,7.4c-0.4,0.3-0.7,0-0.5-0.3   C268.2,137,269.6,133.8,269.3,132.8z"/>
	<path class="st12" d="M266,126.8c-0.9-1.3-1.8-2.4-1.7-4.7l0.5-7.8c0.2-3.3,0.3-6.2-2-8.8c-1.8-2-5.1-2.8-7.6-2.9   c-5.4-0.3-10.3,1.5-11.8,7.4c-0.1,0.7,0.3,0.9,0.7,1l5,0.8c0.5,0,0.8-0.5,0.9-0.9c0.5-2,2.2-2.9,4.2-2.8c1,0.1,3.1,0.8,3,3L257,114   c-3.1-0.2-6.5-0.3-9.2,0.6c-3.3,1.2-5.8,3.8-6,7.8c-0.3,5.2,2.9,8,7.2,8.2c3.6,0.2,5.8-0.6,8.8-3.1c0.8,1.4,1.2,2.2,2.8,3.7   c0.3,0.2,0.9,0.2,1.2,0l0,0c1-0.8,3-2.3,4.2-3.1C266.5,127.8,266.3,127.2,266,126.8z M256.7,118.9L256.7,118.9   c-0.1,2-0.5,6.6-5.3,6.2c-2.9-0.1-2.8-3-2.8-3c0.2-4.3,4.4-4.5,8.1-4.3V118.9z"/>
</g>
<g>
	<path class="st13" d="M219.7,69l-1.8,0.1V69l-20.2,1.3l0.6,9l12.7-0.9c-1.5,5.4-6.3,9.4-12.1,9.7c-7.5,0.4-13.8-5.1-14.4-12.6   c-0.4-7.5,5.1-13.8,12.6-14.4c3.4-0.1,6.6,0.9,9.1,2.8l6-6.7c-4.2-3.4-9.7-5.4-15.7-5.1c-12.4,0.7-21.7,11.5-21,23.8   c0.7,12.4,11.5,21.7,23.8,21c12.4-0.7,21.7-11.5,21-23.8C220.3,71.8,220,70.3,219.7,69z"/>
	<path class="st14" d="M177.5,65.7l7.8,4.9c1.6-5.1,6.3-8.8,12-9.3c3.4-0.1,6.6,0.9,9.1,2.8l6-6.7c-4.2-3.4-9.7-5.4-15.7-5.1   C187.9,52.9,180.8,58.3,177.5,65.7z"/>
	<path class="st15" d="M199.5,97.3c5.8-0.4,10.9-3,14.7-6.7l-7.3-5.4c-2.1,1.8-4.8,3-7.9,3.3c-5.8,0.4-11.1-3-13.2-8.1l-6.9,6.1   C182.9,93.2,190.6,97.7,199.5,97.3z"/>
	<path class="st16" d="M219.7,69l-1.8,0.1V69l-20.2,1.3l0.6,9l12.7-0.9c-0.7,2.5-2.2,4.8-4.2,6.6l0,0l7.3,5.4   c-0.4,0.4,7-5.8,6.3-17.1C220.3,71.8,220,70.3,219.7,69z"/>
</g>
<path class="st17" d="M517.3,64.1l-32.5,3.6c-1.4,0.2-2.2,1.8-1.4,3l16.7,25c0.8,1.2,2.6,1.2,3.3-0.2l15.8-28.6  C519.9,65.6,518.8,63.9,517.3,64.1z"/>
<g>
	<rect x="389.3" y="121.1" class="st0" width="40.7" height="30"/>
	<path d="M428.4,116.1h-33.8c-2.9,0-5.3,2.2-5.3,5v32c0,2.8,2.4,5,5.3,5h33.8c2.9,0,5.3-2.2,5.3-5v-32   C433.7,118.4,431.3,116.1,428.4,116.1z M424.2,134.4c-0.2,0-0.5,0-0.7,0c-2.8,0-5.2-1.3-6.6-3.4c0,5.3,0,11.4,0,11.5   c0,4.7-4,8.5-9,8.5s-9-3.8-9-8.5s4-8.5,9-8.5c0.2,0,0.4,0,0.6,0v4.2c-0.2,0-0.4-0.1-0.6-0.1c-2.5,0-4.6,1.9-4.6,4.4   s2.1,4.4,4.6,4.4s4.8-1.9,4.8-4.3c0-0.1,0-19.6,0-19.6h4.2c0.4,3.6,3.5,6.4,7.3,6.7L424.2,134.4L424.2,134.4z"/>
</g>
<g>
	<path class="st18" d="M222.7-2.5c-1.1-0.2-2.2-0.5-3.2-0.6c-29.9-3.7-50.7,4-50.7,4c-35,7.5-58.1,31.1-70.4,59   c-23.2,52.7-1.1,122,51.6,145.2c52.7,23.2,115.8-0.9,143.7-51.4C333.2,82,271.2,7.5,222.7-2.5z"/>
</g>
</svg>