<svg width="320" height="151" viewBox="0 0 320 151" fill="none" xmlns="http://www.w3.org/2000/svg">
<path opacity="0.15" d="M244.28 0.859985H75.54C34.1186 0.859985 0.540009 34.4386 0.540009 75.86C0.540009 117.281 34.1186 150.86 75.54 150.86H244.28C285.701 150.86 319.28 117.281 319.28 75.86C319.28 34.4386 285.701 0.859985 244.28 0.859985Z" fill="#6B6B6A"/>
<path d="M103.02 58.86H60.44C51.4875 58.86 44.23 66.1175 44.23 75.07V100.97C44.23 109.923 51.4875 117.18 60.44 117.18H103.02C111.973 117.18 119.23 109.923 119.23 100.97V75.07C119.23 66.1175 111.973 58.86 103.02 58.86Z" stroke="#6B6B6A" stroke-width="7" stroke-miterlimit="10"/>
<path d="M100.32 60.73V50.05C100.32 45.0772 98.3446 40.308 94.8282 36.7917C91.3119 33.2754 86.5428 31.3 81.57 31.3C76.5972 31.3 71.8281 33.2754 68.3118 36.7917C64.7954 40.308 62.82 45.0772 62.82 50.05V60.73" stroke="#6B6B6A" stroke-width="7" stroke-miterlimit="10"/>
<path d="M81.57 82.34V92.17" stroke="#6B6B6A" stroke-width="7" stroke-miterlimit="10" stroke-linecap="round"/>
<path d="M244.28 150.86C285.701 150.86 319.28 117.281 319.28 75.86C319.28 34.4386 285.701 0.859985 244.28 0.859985C202.859 0.859985 169.28 34.4386 169.28 75.86C169.28 117.281 202.859 150.86 244.28 150.86Z" fill="#4260DE"/>
<path d="M281.19 35.23L189.8 75.49C180.34 79.04 184.28 83.77 189.42 86.29L208.9 96.53C210.329 97.1963 211.914 97.4555 213.481 97.279C215.047 97.1026 216.535 96.4974 217.78 95.53C286.57 36.23 264.59 60.38 253.68 71.83C247.51 78.3 230.93 98.01 230.02 99.14C227.56 102.21 228.14 106.66 231.62 108.5L267.62 127.44C268.155 127.72 268.748 127.869 269.351 127.876C269.954 127.884 270.551 127.748 271.092 127.481C271.633 127.214 272.103 126.823 272.464 126.34C272.825 125.856 273.067 125.295 273.17 124.7L287.85 40.45C287.999 39.5945 287.914 38.7146 287.603 37.9039C287.291 37.0932 286.766 36.3821 286.083 35.8464C285.399 35.3107 284.583 34.9704 283.721 34.8619C282.86 34.7533 281.985 34.8806 281.19 35.23V35.23Z" fill="white"/>
</svg>
