<svg width="310" height="310" viewBox="0 0 310 310" fill="none" xmlns="http://www.w3.org/2000/svg">
<rect width="310" height="310" fill="#E8EBED"/>
<line x1="111.054" y1="22.9459" x2="308.946" y2="22.9459" stroke="#C1C2C4" stroke-width="2.10819" stroke-linecap="round"/>
<line x1="116.056" y1="36.9444" x2="308.944" y2="36.9444" stroke="#C1C2C4" stroke-width="2.11119" stroke-linecap="round"/>
<path d="M307.595 308.349C308.434 308.349 309.114 307.682 309.114 306.86C309.114 306.038 308.434 305.371 307.595 305.371C306.756 305.371 306.075 306.038 306.075 306.86C306.075 307.682 306.756 308.349 307.595 308.349Z" fill="#2F3454"/>
<path d="M293.815 308.349C294.654 308.349 295.335 307.682 295.335 306.86C295.335 306.038 294.654 305.371 293.815 305.371C292.976 305.371 292.295 306.038 292.295 306.86C292.295 307.682 292.976 308.349 293.815 308.349Z" fill="#2F3454"/>
<path d="M280.041 308.349C280.343 308.35 280.639 308.263 280.891 308.099C281.142 307.935 281.338 307.702 281.455 307.429C281.571 307.155 281.602 306.854 281.543 306.564C281.484 306.274 281.339 306.007 281.125 305.797C280.912 305.588 280.639 305.446 280.343 305.388C280.046 305.331 279.739 305.361 279.46 305.475C279.181 305.588 278.943 305.781 278.776 306.027C278.609 306.274 278.52 306.564 278.521 306.86C278.523 307.254 278.684 307.632 278.968 307.911C279.253 308.19 279.638 308.347 280.041 308.349Z" fill="#2F3454"/>
<path d="M266.267 308.349C266.569 308.348 266.864 308.261 267.115 308.096C267.366 307.932 267.561 307.698 267.677 307.425C267.792 307.151 267.822 306.851 267.762 306.56C267.703 306.27 267.557 306.004 267.343 305.795C267.13 305.587 266.857 305.445 266.561 305.388C266.265 305.331 265.958 305.361 265.679 305.475C265.401 305.589 265.163 305.781 264.996 306.028C264.829 306.274 264.74 306.564 264.742 306.86C264.742 307.056 264.781 307.25 264.858 307.431C264.934 307.612 265.047 307.776 265.189 307.914C265.33 308.053 265.499 308.162 265.684 308.237C265.869 308.311 266.067 308.349 266.267 308.349Z" fill="#2F3454"/>
<path d="M252.487 308.349C253.327 308.349 254.007 307.682 254.007 306.86C254.007 306.038 253.327 305.371 252.487 305.371C251.648 305.371 250.968 306.038 250.968 306.86C250.968 307.682 251.648 308.349 252.487 308.349Z" fill="#2F3454"/>
<path d="M239.296 308.176C240.072 307.863 240.443 306.993 240.124 306.232C239.804 305.472 238.917 305.109 238.14 305.422C237.364 305.734 236.994 306.604 237.313 307.365C237.632 308.125 238.52 308.488 239.296 308.176Z" fill="#2F3454"/>
<path d="M224.939 308.349C225.241 308.348 225.536 308.261 225.787 308.096C226.038 307.932 226.234 307.698 226.349 307.425C226.464 307.151 226.494 306.851 226.435 306.56C226.375 306.27 226.23 306.004 226.016 305.795C225.802 305.587 225.529 305.445 225.233 305.388C224.937 305.331 224.63 305.361 224.351 305.475C224.073 305.589 223.835 305.781 223.668 306.028C223.501 306.274 223.413 306.564 223.414 306.86C223.414 307.056 223.453 307.25 223.53 307.431C223.607 307.612 223.719 307.776 223.861 307.914C224.003 308.053 224.171 308.162 224.356 308.237C224.541 308.311 224.739 308.349 224.939 308.349Z" fill="#2F3454"/>
<path d="M307.595 296.275C308.434 296.275 309.114 295.608 309.114 294.786C309.114 293.964 308.434 293.297 307.595 293.297C306.756 293.297 306.075 293.964 306.075 294.786C306.075 295.608 306.756 296.275 307.595 296.275Z" fill="#2F3454"/>
<path d="M293.815 296.275C294.654 296.275 295.335 295.608 295.335 294.786C295.335 293.964 294.654 293.297 293.815 293.297C292.976 293.297 292.295 293.964 292.295 294.786C292.295 295.608 292.976 296.275 293.815 296.275Z" fill="#2F3454"/>
<path d="M280.041 296.28C280.343 296.282 280.638 296.195 280.89 296.031C281.142 295.868 281.338 295.635 281.454 295.362C281.57 295.089 281.601 294.788 281.543 294.498C281.485 294.208 281.34 293.941 281.127 293.731C280.914 293.522 280.642 293.379 280.346 293.321C280.05 293.263 279.743 293.292 279.464 293.405C279.185 293.518 278.947 293.709 278.779 293.955C278.611 294.201 278.521 294.49 278.521 294.786C278.521 295.181 278.681 295.561 278.966 295.841C279.251 296.121 279.637 296.279 280.041 296.28Z" fill="#2F3454"/>
<path d="M266.267 296.28C266.569 296.28 266.864 296.193 267.114 296.029C267.365 295.864 267.561 295.631 267.676 295.358C267.792 295.085 267.822 294.784 267.763 294.494C267.704 294.205 267.559 293.938 267.345 293.729C267.132 293.52 266.86 293.378 266.564 293.32C266.269 293.263 265.962 293.292 265.683 293.405C265.404 293.518 265.166 293.71 264.999 293.956C264.831 294.202 264.742 294.49 264.742 294.786C264.742 294.982 264.781 295.177 264.858 295.358C264.934 295.539 265.047 295.704 265.188 295.843C265.33 295.982 265.498 296.092 265.683 296.167C265.868 296.242 266.067 296.28 266.267 296.28Z" fill="#2F3454"/>
<path d="M252.487 296.275C253.327 296.275 254.007 295.608 254.007 294.786C254.007 293.964 253.327 293.297 252.487 293.297C251.648 293.297 250.968 293.964 250.968 294.786C250.968 295.608 251.648 296.275 252.487 296.275Z" fill="#2F3454"/>
<path d="M239.295 296.106C240.071 295.794 240.442 294.924 240.123 294.163C239.804 293.403 238.916 293.04 238.139 293.353C237.363 293.665 236.993 294.535 237.312 295.296C237.631 296.056 238.519 296.419 239.295 296.106Z" fill="#2F3454"/>
<path d="M224.939 296.28C225.241 296.28 225.536 296.193 225.787 296.029C226.037 295.864 226.233 295.631 226.348 295.358C226.464 295.085 226.494 294.784 226.435 294.494C226.376 294.205 226.231 293.938 226.018 293.729C225.804 293.52 225.533 293.378 225.237 293.32C224.941 293.263 224.634 293.292 224.355 293.405C224.077 293.518 223.839 293.71 223.671 293.956C223.503 294.202 223.414 294.49 223.414 294.786C223.414 295.182 223.575 295.563 223.861 295.843C224.147 296.123 224.535 296.28 224.939 296.28Z" fill="#2F3454"/>
<path d="M307.595 284.207C308.434 284.207 309.114 283.54 309.114 282.718C309.114 281.896 308.434 281.229 307.595 281.229C306.756 281.229 306.075 281.896 306.075 282.718C306.075 283.54 306.756 284.207 307.595 284.207Z" fill="#2F3454"/>
<path d="M293.815 284.207C294.654 284.207 295.335 283.54 295.335 282.718C295.335 281.896 294.654 281.229 293.815 281.229C292.976 281.229 292.295 281.896 292.295 282.718C292.295 283.54 292.976 284.207 293.815 284.207Z" fill="#2F3454"/>
<path d="M280.041 284.19C280.343 284.191 280.639 284.104 280.891 283.94C281.142 283.777 281.338 283.543 281.455 283.27C281.571 282.997 281.602 282.696 281.543 282.405C281.484 282.115 281.339 281.848 281.125 281.639C280.912 281.429 280.639 281.287 280.343 281.229C280.046 281.172 279.739 281.202 279.46 281.316C279.181 281.43 278.943 281.622 278.776 281.869C278.609 282.115 278.52 282.405 278.521 282.701C278.523 283.095 278.684 283.473 278.968 283.752C279.253 284.031 279.638 284.188 280.041 284.19Z" fill="#2F3454"/>
<path d="M266.267 284.19C266.569 284.19 266.864 284.102 267.115 283.938C267.366 283.773 267.561 283.539 267.677 283.266C267.792 282.993 267.822 282.692 267.762 282.402C267.703 282.112 267.557 281.845 267.343 281.637C267.13 281.428 266.857 281.286 266.561 281.229C266.265 281.172 265.958 281.202 265.679 281.316C265.401 281.43 265.163 281.623 264.996 281.869C264.829 282.116 264.74 282.405 264.742 282.701C264.742 282.897 264.781 283.091 264.858 283.272C264.934 283.453 265.047 283.617 265.189 283.756C265.33 283.894 265.499 284.004 265.684 284.078C265.869 284.153 266.067 284.191 266.267 284.19Z" fill="#2F3454"/>
<path d="M252.487 284.207C253.327 284.207 254.007 283.54 254.007 282.718C254.007 281.896 253.327 281.229 252.487 281.229C251.648 281.229 250.968 281.896 250.968 282.718C250.968 283.54 251.648 284.207 252.487 284.207Z" fill="#2F3454"/>
<path d="M239.297 284.037C240.073 283.724 240.443 282.854 240.124 282.094C239.805 281.333 238.917 280.97 238.141 281.283C237.365 281.596 236.994 282.466 237.313 283.226C237.632 283.987 238.52 284.35 239.297 284.037Z" fill="#2F3454"/>
<path d="M224.939 284.19C225.241 284.19 225.536 284.102 225.787 283.938C226.038 283.773 226.234 283.539 226.349 283.266C226.464 282.993 226.494 282.692 226.435 282.402C226.375 282.112 226.23 281.845 226.016 281.637C225.802 281.428 225.529 281.286 225.233 281.229C224.937 281.172 224.63 281.202 224.351 281.316C224.073 281.43 223.835 281.623 223.668 281.869C223.501 282.116 223.413 282.405 223.414 282.701C223.414 282.897 223.453 283.091 223.53 283.272C223.607 283.453 223.719 283.617 223.861 283.756C224.003 283.894 224.171 284.004 224.356 284.078C224.541 284.153 224.739 284.191 224.939 284.19Z" fill="#2F3454"/>
<path d="M307.595 272.133C308.434 272.133 309.114 271.466 309.114 270.644C309.114 269.822 308.434 269.155 307.595 269.155C306.756 269.155 306.075 269.822 306.075 270.644C306.075 271.466 306.756 272.133 307.595 272.133Z" fill="#2F3454"/>
<path d="M293.815 272.133C294.654 272.133 295.335 271.466 295.335 270.644C295.335 269.822 294.654 269.155 293.815 269.155C292.976 269.155 292.295 269.822 292.295 270.644C292.295 271.466 292.976 272.133 293.815 272.133Z" fill="#2F3454"/>
<path d="M280.041 272.139C280.343 272.14 280.638 272.053 280.89 271.89C281.142 271.726 281.338 271.493 281.454 271.22C281.57 270.947 281.601 270.646 281.543 270.356C281.485 270.066 281.34 269.799 281.127 269.59C280.914 269.38 280.642 269.237 280.346 269.179C280.05 269.121 279.743 269.15 279.464 269.263C279.185 269.376 278.947 269.568 278.779 269.813C278.611 270.059 278.521 270.348 278.521 270.644C278.521 271.04 278.681 271.419 278.966 271.699C279.251 271.979 279.637 272.137 280.041 272.139Z" fill="#2F3454"/>
<path d="M266.267 272.139C266.569 272.139 266.864 272.051 267.114 271.887C267.365 271.723 267.561 271.489 267.676 271.216C267.792 270.943 267.822 270.643 267.763 270.353C267.704 270.063 267.559 269.796 267.345 269.587C267.132 269.378 266.86 269.236 266.564 269.179C266.269 269.121 265.962 269.15 265.683 269.264C265.404 269.377 265.166 269.568 264.999 269.814C264.831 270.06 264.742 270.349 264.742 270.644C264.742 270.84 264.781 271.035 264.858 271.216C264.934 271.397 265.047 271.562 265.188 271.701C265.33 271.84 265.498 271.95 265.683 272.025C265.868 272.1 266.067 272.139 266.267 272.139Z" fill="#2F3454"/>
<path d="M252.487 272.133C253.327 272.133 254.007 271.466 254.007 270.644C254.007 269.822 253.327 269.155 252.487 269.155C251.648 269.155 250.968 269.822 250.968 270.644C250.968 271.466 251.648 272.133 252.487 272.133Z" fill="#2F3454"/>
<path d="M239.296 271.962C240.072 271.65 240.442 270.78 240.123 270.019C239.804 269.259 238.916 268.896 238.14 269.208C237.364 269.521 236.993 270.391 237.313 271.152C237.632 271.912 238.52 272.275 239.296 271.962Z" fill="#2F3454"/>
<path d="M224.939 272.139C225.241 272.139 225.536 272.051 225.787 271.887C226.037 271.723 226.233 271.489 226.348 271.216C226.464 270.943 226.494 270.643 226.435 270.353C226.376 270.063 226.231 269.796 226.018 269.587C225.804 269.378 225.533 269.236 225.237 269.179C224.941 269.121 224.634 269.15 224.355 269.264C224.077 269.377 223.839 269.568 223.671 269.814C223.503 270.06 223.414 270.349 223.414 270.644C223.414 271.041 223.575 271.421 223.861 271.701C224.147 271.981 224.535 272.139 224.939 272.139Z" fill="#2F3454"/>
</svg>
