<svg width="451" height="402" viewBox="0 0 451 402" fill="none" xmlns="http://www.w3.org/2000/svg">
<g clip-path="url(#clip0_24_2)">
<path d="M342.533 387.426C321.733 353.826 279.867 318.759 261.533 305.426C215.191 265.426 164.533 257.426 113.533 246.426C62.5334 235.426 37.5334 203.426 11.5334 168.426C-14.4666 133.426 7.53339 120.426 37.5334 136.426C67.5334 152.426 103.533 135.426 138.533 105.426C173.533 75.4259 188.533 109.426 225.533 141.426C262.533 173.426 266.533 48.4259 291.533 21.4259C341.533 -29.5741 387.533 17.4259 428.533 89.4259C469.533 161.426 444.533 297.426 419.533 354.426C394.533 411.426 357.533 409.426 342.533 387.426Z" fill="url(#paint0_linear_24_2)"/>
<path d="M45.8333 234.833C45.8333 236.662 44.7633 238.461 43.1159 240.097C41.9167 241.287 40.5904 242.211 39.6667 242.786C38.7429 242.211 37.4166 241.287 36.2175 240.097C34.57 238.461 33.5 236.662 33.5 234.833V228.983L39.6667 226.67L45.8333 228.983V234.833Z" stroke="#FF9C33" stroke-width="5" stroke-linecap="round" stroke-linejoin="round"/>
<path d="M66.8333 319.833C66.8333 321.662 65.7633 323.461 64.1159 325.097C62.9167 326.287 61.5904 327.211 60.6667 327.786C59.7429 327.211 58.4166 326.287 57.2175 325.097C55.57 323.461 54.5 321.662 54.5 319.833V313.983L60.6667 311.67L66.8333 313.983V319.833Z" stroke="#FF6C6C" stroke-width="5" stroke-linecap="round" stroke-linejoin="round"/>
<path d="M353 34.5873L361.595 26.7058" stroke="#3838FA" stroke-width="5" stroke-linecap="round"/>
<path d="M322.167 25.1667C322.167 26.5421 321.371 27.9495 320.038 29.2908C319.12 30.214 318.099 30.9498 317.333 31.441C316.568 30.9498 315.547 30.214 314.629 29.2908C313.295 27.9495 312.5 26.5421 312.5 25.1667V20.4825L317.333 18.67L322.167 20.4825V25.1667Z" stroke="#FFA665" stroke-width="5" stroke-linecap="round" stroke-linejoin="round"/>
<path d="M382 381.587L390.595 373.706" stroke="#6C6CFF" stroke-width="5" stroke-linecap="round"/>
<path d="M82 64C82 59.5817 85.5817 56 90 56H259C263.418 56 267 59.5817 267 64V85C267 107.091 249.091 125 227 125H90C85.5817 125 82 121.418 82 117V64Z" fill="#FF6D0D"/>
<path d="M82 42C82 37.5817 85.5817 34 90 34H259C263.418 34 267 37.5817 267 42V63C267 85.0914 249.091 103 227 103H90C85.5817 103 82 99.4183 82 95V42Z" fill="#FFA665"/>
<path d="M195 56H163C160.791 56 159 57.7909 159 60C159 62.2091 160.791 64 163 64H195C197.209 64 199 62.2091 199 60C199 57.7909 197.209 56 195 56Z" fill="#FDEBE1"/>
<path d="M228 72H163C160.791 72 159 73.7909 159 76C159 78.2091 160.791 80 163 80H228C230.209 80 232 78.2091 232 76C232 73.7909 230.209 72 228 72Z" fill="#FDEBE1"/>
<path d="M120.902 64.9218V70.0782C120.902 72.1072 120.66 73.8712 120.176 75.3703C119.706 76.8694 119.026 78.1101 118.137 79.0922C117.261 80.0744 116.216 80.8046 115 81.2828C113.784 81.7609 112.444 82 110.98 82C109.804 82 108.706 81.8514 107.686 81.5541C106.667 81.244 105.745 80.7787 104.922 80.1584C104.111 79.5252 103.412 78.7369 102.824 77.7934C102.235 76.85 101.784 75.7386 101.471 74.4592C101.157 73.1669 101 71.7066 101 70.0782V64.9218C101 62.8799 101.235 61.1159 101.706 59.6297C102.19 58.1306 102.876 56.8899 103.765 55.9078C104.654 54.9256 105.706 54.1954 106.922 53.7172C108.137 53.2391 109.477 53 110.941 53C112.118 53 113.209 53.1551 114.216 53.4652C115.235 53.7625 116.157 54.2277 116.98 54.861C117.804 55.4813 118.503 56.2631 119.078 57.2066C119.667 58.15 120.118 59.2678 120.431 60.5602C120.745 61.8396 120.902 63.2934 120.902 64.9218ZM114.294 70.873V64.0882C114.294 63.1836 114.242 62.3953 114.137 61.7233C114.046 61.0512 113.902 60.4826 113.706 60.0174C113.523 59.5521 113.294 59.1774 113.02 58.893C112.745 58.5958 112.431 58.3826 112.078 58.2533C111.739 58.1112 111.359 58.0401 110.941 58.0401C110.418 58.0401 109.948 58.15 109.529 58.3697C109.124 58.5764 108.778 58.9124 108.49 59.3777C108.203 59.8429 107.98 60.4632 107.824 61.2386C107.68 62.014 107.608 62.9639 107.608 64.0882V70.873C107.608 71.7906 107.654 72.5918 107.745 73.2767C107.85 73.9488 107.993 74.5238 108.176 75.002C108.373 75.4672 108.608 75.8485 108.882 76.1457C109.157 76.43 109.471 76.6368 109.824 76.766C110.176 76.8953 110.562 76.9599 110.98 76.9599C111.49 76.9599 111.948 76.8565 112.353 76.6497C112.758 76.443 113.105 76.107 113.392 75.6417C113.693 75.1635 113.915 74.5368 114.059 73.7614C114.216 72.973 114.294 72.0102 114.294 70.873Z" fill="#FDEBE1"/>
<path d="M139 53.3877V81.6123H132.392V60.754L125.882 62.6344V57.6718L138.392 53.3877H139Z" fill="#FDEBE1"/>
<path d="M132 184C132 179.582 135.582 176 140 176H309C313.418 176 317 179.582 317 184V205C317 227.091 299.091 245 277 245H140C135.582 245 132 241.418 132 237V184Z" fill="#FF3535"/>
<path d="M132 162C132 157.582 135.582 154 140 154H309C313.418 154 317 157.582 317 162V183C317 205.091 299.091 223 277 223H140C135.582 223 132 219.418 132 215V162Z" fill="#FF6666"/>
<path d="M245 176H213C210.791 176 209 177.791 209 180C209 182.209 210.791 184 213 184H245C247.209 184 249 182.209 249 180C249 177.791 247.209 176 245 176Z" fill="#FDEBE1"/>
<path d="M278 192H213C210.791 192 209 193.791 209 196C209 198.209 210.791 200 213 200H278C280.209 200 282 198.209 282 196C282 193.791 280.209 192 278 192Z" fill="#FDEBE1"/>
<path d="M171.307 184.933V190.086C171.307 192.114 171.072 193.877 170.603 195.375C170.147 196.873 169.487 198.113 168.625 199.094C167.775 200.076 166.761 200.805 165.582 201.283C164.402 201.761 163.102 202 161.682 202C160.541 202 159.476 201.851 158.486 201.554C157.497 201.244 156.603 200.78 155.804 200.16C155.018 199.527 154.34 198.739 153.769 197.796C153.198 196.853 152.761 195.743 152.457 194.464C152.152 193.173 152 191.713 152 190.086V184.933C152 182.893 152.228 181.13 152.685 179.645C153.154 178.147 153.82 176.907 154.682 175.925C155.544 174.944 156.565 174.214 157.745 173.736C158.924 173.258 160.224 173.019 161.644 173.019C162.785 173.019 163.844 173.174 164.821 173.484C165.81 173.781 166.704 174.246 167.503 174.879C168.302 175.499 168.98 176.28 169.538 177.223C170.109 178.166 170.546 179.283 170.851 180.574C171.155 181.853 171.307 183.306 171.307 184.933ZM164.897 190.88V184.1C164.897 183.196 164.846 182.408 164.745 181.737C164.656 181.065 164.516 180.497 164.326 180.032C164.149 179.567 163.927 179.193 163.66 178.908C163.394 178.611 163.09 178.398 162.747 178.269C162.418 178.127 162.05 178.056 161.644 178.056C161.137 178.056 160.68 178.166 160.274 178.385C159.881 178.592 159.545 178.928 159.266 179.393C158.987 179.858 158.772 180.478 158.62 181.253C158.48 182.027 158.41 182.977 158.41 184.1V190.88C158.41 191.797 158.455 192.598 158.543 193.283C158.645 193.954 158.784 194.529 158.962 195.007C159.152 195.472 159.38 195.853 159.647 196.15C159.913 196.434 160.217 196.64 160.56 196.77C160.902 196.899 161.276 196.963 161.682 196.963C162.177 196.963 162.62 196.86 163.014 196.653C163.407 196.447 163.743 196.111 164.022 195.646C164.313 195.168 164.529 194.542 164.668 193.767C164.821 192.979 164.897 192.017 164.897 190.88Z" fill="#FDEBE1"/>
<path d="M194 196.576V201.613H174.674V197.351L183.576 187.82C184.362 186.903 184.996 186.083 185.478 185.359C185.96 184.623 186.309 183.958 186.524 183.364C186.753 182.77 186.867 182.234 186.867 181.756C186.867 180.943 186.746 180.265 186.505 179.722C186.277 179.167 185.935 178.747 185.478 178.463C185.034 178.179 184.483 178.037 183.823 178.037C183.164 178.037 182.587 178.23 182.092 178.618C181.598 179.005 181.211 179.535 180.932 180.206C180.666 180.878 180.533 181.633 180.533 182.473H174.103C174.103 180.742 174.515 179.16 175.34 177.727C176.177 176.293 177.337 175.15 178.821 174.298C180.304 173.433 182.023 173 183.976 173C186.017 173 187.729 173.323 189.111 173.969C190.494 174.614 191.534 175.551 192.231 176.778C192.941 177.992 193.296 179.457 193.296 181.175C193.296 182.157 193.144 183.099 192.84 184.003C192.535 184.907 192.098 185.805 191.527 186.696C190.957 187.574 190.259 188.478 189.435 189.408C188.623 190.338 187.697 191.326 186.658 192.372L183.082 196.576H194Z" fill="#FDEBE1"/>
<path d="M192 304C192 299.582 195.582 296 200 296H369C373.418 296 377 299.582 377 304V325C377 347.091 359.091 365 337 365H200C195.582 365 192 361.418 192 357V304Z" fill="#8F4DBD"/>
<path d="M192 282C192 277.582 195.582 274 200 274H369C373.418 274 377 277.582 377 282V303C377 325.091 359.091 343 337 343H200C195.582 343 192 339.418 192 335V282Z" fill="#9F75D5"/>
<path d="M305 296H273C270.791 296 269 297.791 269 300C269 302.209 270.791 304 273 304H305C307.209 304 309 302.209 309 300C309 297.791 307.209 296 305 296Z" fill="#FDEBE1"/>
<path d="M338 312H273C270.791 312 269 313.791 269 316C269 318.209 270.791 320 273 320H338C340.209 320 342 318.209 342 316C342 313.791 340.209 312 338 312Z" fill="#FDEBE1"/>
<path d="M228.847 305.522V310.497C228.847 312.455 228.618 314.157 228.16 315.603C227.715 317.05 227.071 318.247 226.229 319.194C225.4 320.142 224.409 320.847 223.258 321.308C222.107 321.769 220.838 322 219.452 322C218.337 322 217.298 321.857 216.332 321.57C215.366 321.271 214.494 320.822 213.714 320.223C212.946 319.612 212.284 318.851 211.727 317.941C211.17 317.031 210.743 315.959 210.446 314.724C210.149 313.477 210 312.068 210 310.497V305.522C210 303.552 210.223 301.849 210.668 300.415C211.127 298.969 211.776 297.772 212.618 296.824C213.46 295.877 214.457 295.172 215.608 294.711C216.759 294.249 218.028 294.019 219.414 294.019C220.529 294.019 221.562 294.168 222.515 294.468C223.481 294.754 224.354 295.203 225.134 295.814C225.913 296.413 226.576 297.167 227.12 298.077C227.678 298.988 228.105 300.066 228.402 301.313C228.699 302.548 228.847 303.951 228.847 305.522ZM222.59 311.264V304.717C222.59 303.845 222.54 303.084 222.441 302.436C222.354 301.787 222.218 301.238 222.033 300.79C221.859 300.341 221.643 299.979 221.383 299.705C221.123 299.418 220.826 299.212 220.491 299.088C220.17 298.95 219.811 298.882 219.414 298.882C218.919 298.882 218.474 298.988 218.077 299.2C217.694 299.399 217.366 299.723 217.093 300.172C216.821 300.621 216.611 301.22 216.462 301.968C216.326 302.716 216.258 303.633 216.258 304.717V311.264C216.258 312.149 216.301 312.922 216.388 313.583C216.487 314.232 216.623 314.786 216.796 315.248C216.982 315.697 217.205 316.065 217.465 316.351C217.725 316.626 218.022 316.825 218.356 316.95C218.69 317.075 219.055 317.137 219.452 317.137C219.934 317.137 220.368 317.037 220.751 316.838C221.135 316.638 221.463 316.314 221.736 315.865C222.02 315.404 222.231 314.799 222.367 314.051C222.515 313.29 222.59 312.361 222.59 311.264Z" fill="#FDEBE1"/>
<path d="M237.835 306.981C237.835 306.092 238.555 305.372 239.443 305.372H240.88C241.66 305.372 242.297 305.235 242.793 304.961C243.3 304.674 243.678 304.275 243.925 303.764C244.173 303.24 244.297 302.623 244.297 301.912C244.297 301.363 244.179 300.858 243.944 300.397C243.721 299.935 243.374 299.568 242.904 299.293C242.434 299.006 241.833 298.863 241.103 298.863C240.608 298.863 240.125 298.969 239.654 299.181C239.184 299.381 238.794 299.667 238.485 300.041C237.981 300.675 237.383 301.407 236.574 301.407H234.763C233.106 301.407 231.665 299.992 232.378 298.496C232.556 298.124 232.771 297.773 233.025 297.442C233.88 296.332 235 295.484 236.386 294.898C237.785 294.299 239.289 294 240.899 294C242.817 294 244.501 294.299 245.949 294.898C247.398 295.484 248.524 296.357 249.329 297.516C250.146 298.664 250.554 300.085 250.554 301.781C250.554 302.716 250.338 303.595 249.904 304.418C249.471 305.241 248.865 305.964 248.085 306.588C247.305 307.211 246.389 307.704 245.337 308.065C244.297 308.415 243.158 308.589 241.92 308.589H239.443C238.555 308.589 237.835 307.869 237.835 306.981ZM239.406 310.067C238.538 310.067 237.835 309.363 237.835 308.496C237.835 307.628 238.538 306.925 239.406 306.925H241.92C243.269 306.925 244.501 307.08 245.615 307.392C246.729 307.691 247.689 308.14 248.493 308.739C249.298 309.337 249.917 310.079 250.35 310.965C250.783 311.837 251 312.841 251 313.976C251 315.248 250.746 316.383 250.239 317.38C249.731 318.378 249.019 319.219 248.103 319.905C247.187 320.591 246.116 321.115 244.891 321.476C243.665 321.825 242.335 322 240.899 322C239.772 322 238.646 321.85 237.519 321.551C236.393 321.239 235.365 320.766 234.437 320.13C233.508 319.481 232.759 318.658 232.19 317.661C232.071 317.445 231.965 317.221 231.871 316.987C231.254 315.45 232.697 314.051 234.354 314.051H235.968C236.886 314.051 237.593 314.853 238.095 315.622C238.417 316.083 238.844 316.451 239.376 316.725C239.908 317 240.484 317.137 241.103 317.137C241.87 317.137 242.52 316.994 243.053 316.707C243.597 316.407 244.012 316.008 244.297 315.51C244.581 315.011 244.724 314.456 244.724 313.845C244.724 312.922 244.569 312.187 244.26 311.638C243.962 311.089 243.523 310.69 242.941 310.441C242.372 310.191 241.685 310.067 240.88 310.067H239.406Z" fill="#FDEBE1"/>
</g>
<defs>
<linearGradient id="paint0_linear_24_2" x1="431" y1="15" x2="99" y2="237" gradientUnits="userSpaceOnUse">
<stop offset="0.0862151" stop-color="#FFD5BA"/>
<stop offset="0.727876" stop-color="#FBE8DD"/>
<stop offset="0.9757" stop-color="#F9F2ED" stop-opacity="0.76"/>
</linearGradient>
<clipPath id="clip0_24_2">
<rect width="451" height="402" fill="white"/>
</clipPath>
</defs>
</svg>
