<svg xmlns="http://www.w3.org/2000/svg" viewBox="0 0 50.09 43.38"><defs><style>.cls-1{fill:#da2f58;}.cls-2{fill:#fff;}</style></defs><g id="Layer_2" data-name="Layer 2"><g id="Layer_1-2" data-name="Layer 1"><polygon class="cls-1" points="37.57 0 12.52 0 0 21.69 12.52 43.38 37.57 43.38 50.09 21.69 37.57 0"/><path class="cls-2" d="M23.16,22.27,22.6,14c-.1-1.61-.15-2.76-.15-3.46a3.11,3.11,0,0,1,.75-2.22,2.55,2.55,0,0,1,2-.81,2,2,0,0,1,2,1,6.94,6.94,0,0,1,.5,2.95,22.48,22.48,0,0,1-.13,2.3l-.74,8.49a6.73,6.73,0,0,1-.51,2.32,1.36,1.36,0,0,1-1.31.81,1.29,1.29,0,0,1-1.29-.79A7.69,7.69,0,0,1,23.16,22.27Zm1.9,11.32a2.66,2.66,0,0,1-1.83-.68,2.37,2.37,0,0,1-.78-1.9,2.46,2.46,0,0,1,.75-1.81A2.49,2.49,0,0,1,25,28.45a2.55,2.55,0,0,1,1.85.75A2.44,2.44,0,0,1,27.65,31a2.38,2.38,0,0,1-.78,1.89A2.62,2.62,0,0,1,25.06,33.59Z"/></g></g></svg>