<svg xmlns="http://www.w3.org/2000/svg" viewBox="0 0 42.38 42.38"><defs><style>.cls-1{fill:#6d71b5;}.cls-2{fill:#fff;}</style></defs><g id="Layer_2" data-name="Layer 2"><g id="Layer_1-2" data-name="Layer 1"><circle class="cls-1" cx="21.19" cy="21.19" r="21.19"/><path class="cls-2" d="M21.19,23.41l1.24.67L25,25.44a2,2,0,0,1,.43.43,1.57,1.57,0,0,1,.27.58v3a.19.19,0,0,1-.19.19H16.92a.18.18,0,0,1-.19-.19v-3a1.71,1.71,0,0,1,.26-.58,1.75,1.75,0,0,1,.46-.44l2.14-1.16,1.6-.86m0-2.28L16.45,23.7a3.67,3.67,0,0,0-1.72,2.55v3.24a2.19,2.19,0,0,0,2.19,2.19h8.55a2.19,2.19,0,0,0,2.19-2.19V26.25A4,4,0,0,0,27,24.7a3.76,3.76,0,0,0-1-1q-2.4-1.29-4.79-2.59Z"/><path class="cls-2" d="M27.66,12.89v3.23a2.17,2.17,0,0,1-.73,1.63l-.24.18-5.53,4.34-5.45-4.33h0l-.31-.25a2.15,2.15,0,0,1-.66-1.56V12.89a2.19,2.19,0,0,1,2.2-2.19h8.55A2.19,2.19,0,0,1,27.66,12.89Z"/></g></g></svg>