<svg xmlns="http://www.w3.org/2000/svg" viewBox="0 0 42.74 40.55"><defs><style>.cls-1{fill:#51b95e;}.cls-2{fill:#fff;}</style></defs><g id="Layer_2" data-name="Layer 2"><g id="Layer_1-2" data-name="Layer 1"><path class="cls-1" d="M42.53,19.08a6.46,6.46,0,0,1-3.89-4.4,7,7,0,0,1,.14-5.19A1.4,1.4,0,0,0,38.68,8l-.27-.39A1.44,1.44,0,0,0,37,7.08a7,7,0,0,1-5-1.46,7.07,7.07,0,0,1-2.93-4.27A1.36,1.36,0,0,0,28.21.23L27.68.06a1.44,1.44,0,0,0-1.43.39,7,7,0,0,1-4.85,1.7A7,7,0,0,1,16.55.45,1.43,1.43,0,0,0,15.13.06l-.54.17a1.38,1.38,0,0,0-.91,1.12,7,7,0,0,1-2.93,4.27,7,7,0,0,1-5,1.46,1.43,1.43,0,0,0-1.37.56L4.12,8A1.42,1.42,0,0,0,4,9.49a7,7,0,0,1,.15,5.19,6.5,6.5,0,0,1-3.9,4.4A2.85,2.85,0,0,0,0,20.27a2.91,2.91,0,0,0,.27,1.21c1.59.43,3.15,2.1,3.9,4.4A7,7,0,0,1,4,31.06a1.42,1.42,0,0,0,.1,1.46l.28.39a1.43,1.43,0,0,0,1.37.56,7,7,0,0,1,5,1.47,7,7,0,0,1,2.93,4.27,1.4,1.4,0,0,0,.91,1.12l.54.17a1.46,1.46,0,0,0,1.42-.4,7,7,0,0,1,4.85-1.7,7,7,0,0,1,4.85,1.7,1.47,1.47,0,0,0,1.43.4l.53-.17a1.39,1.39,0,0,0,.91-1.12,7,7,0,0,1,2.93-4.27,7,7,0,0,1,5-1.47,1.44,1.44,0,0,0,1.38-.56l.27-.39a1.4,1.4,0,0,0,.1-1.46,7,7,0,0,1-.14-5.18c.74-2.3,2.3-4,3.89-4.4a3.34,3.34,0,0,0,.21-1.19A3.21,3.21,0,0,0,42.53,19.08Z"/><path class="cls-2" d="M17.23,28.73h0A1.72,1.72,0,0,1,16,28.19l-5.12-5.5a1.8,1.8,0,0,1-.17-2.32,1.7,1.7,0,0,1,2.57-.09l3.3,3.54a1,1,0,0,0,1.44,0L29.46,12.4a1.79,1.79,0,0,1,2.31-.26A1.71,1.71,0,0,1,32,14.71L18.43,28.23A1.7,1.7,0,0,1,17.23,28.73Z"/></g></g></svg>