<svg xmlns="http://www.w3.org/2000/svg" viewBox="0 0 440.52 133.26"><g id="Layer_12" data-name="Layer 12"><path id="aapple" d="M175,278.66c-.72.56-13.39,7.69-13.39,23.56,0,18.36,16.12,24.85,16.6,25a64.63,64.63,0,0,1-8.49,17.55C164.44,352.4,158.91,360,150.5,360s-10.57-4.89-20.28-4.89c-9.46,0-12.83,5.05-20.52,5.05s-13.06-7.05-19.23-15.71c-7.15-10.16-12.93-26-12.93-40.95,0-24.05,15.63-36.8,31-36.8,8.18,0,15,5.37,20.12,5.37,4.89,0,12.51-5.69,21.81-5.69,3.53,0,16.19.32,24.53,12.27Zm-29-22.45A27.6,27.6,0,0,0,152.64,239a11.82,11.82,0,0,0-.23-2.48c-6.26.23-13.71,4.16-18.2,9.37-3.52,4-6.81,10.34-6.81,16.76a11.78,11.78,0,0,0,.23,2.24,10.2,10.2,0,0,0,1.69.16C134.93,265,142,261.27,146.07,256.21Z" transform="translate(-77.54 -236.5)"/><path d="M241.6,319.67l-8.55,25.9h-11l28-82.34h12.82L291,345.57H279.59l-8.8-25.9Zm27-8.3-8.07-23.7c-1.83-5.38-3-10.27-4.27-15H256c-1.22,4.89-2.56,9.89-4.15,14.9l-8.06,23.83Z" transform="translate(-77.54 -236.5)"/><path d="M302.32,305.75c0-7.58-.25-13.69-.49-19.31h9.65l.49,10.14h.24c4.4-7.2,11.36-11.48,21-11.48,14.29,0,25,12.09,25,30,0,21.26-12.95,31.76-26.88,31.76-7.82,0-14.66-3.42-18.2-9.28H313v32.13H302.32ZM313,321.5a24.59,24.59,0,0,0,.48,4.4,16.6,16.6,0,0,0,16.13,12.59c11.36,0,18-9.29,18-22.85,0-11.85-6.23-22-17.59-22-7.33,0-14.17,5.25-16.25,13.32a17.24,17.24,0,0,0-.73,4.4Z" transform="translate(-77.54 -236.5)"/><path d="M371.83,305.75c0-7.58-.24-13.69-.49-19.31H381l.49,10.14h.24c4.4-7.2,11.37-11.48,21-11.48,14.29,0,25,12.09,25,30,0,21.26-12.95,31.76-26.88,31.76-7.81,0-14.65-3.42-18.2-9.28h-.24v32.13H371.83Zm10.63,15.75a23.68,23.68,0,0,0,.49,4.4,16.59,16.59,0,0,0,16.12,12.59c11.36,0,18-9.29,18-22.85,0-11.85-6.23-22-17.59-22-7.33,0-14.17,5.25-16.25,13.32a17.24,17.24,0,0,0-.73,4.4Z" transform="translate(-77.54 -236.5)"/><path d="M441.34,258.84h10.75v86.73H441.34Z" transform="translate(-77.54 -236.5)"/><path d="M476.16,318c.24,14.54,9.53,20.53,20.28,20.53,7.69,0,12.34-1.35,16.37-3.06l1.83,7.7c-3.79,1.71-10.26,3.66-19.67,3.66-18.2,0-29.07-12-29.07-29.81s10.5-31.88,27.73-31.88c19.3,0,24.43,17,24.43,27.85a38.92,38.92,0,0,1-.37,5Zm31.52-7.69c.12-6.85-2.81-17.47-14.91-17.47-10.87,0-15.63,10-16.49,17.47Z" transform="translate(-77.54 -236.5)"/></g></svg>