<svg xmlns="http://www.w3.org/2000/svg" width="561" height="127" viewBox="0 0 561 127" fill="none">
<path d="M41.4613 12.0822C45.064 8.21927 49.4325 5.14988 54.288 3.06993C59.1435 0.98999 64.3794 -0.0548166 69.6613 0.00221516C91.6613 0.00221516 106.311 16.0922 109.101 40.1922C110.011 48.0222 110.001 59.0522 109.991 71.8422V123.712H79.6913V88.3222C79.6913 88.3222 79.6213 58.0122 79.4413 52.3222C78.6313 27.6522 64.0213 12.1522 41.4413 12.1322C34.6313 19.3222 30.9913 28.1322 30.4413 41.5622C30.3613 43.4322 30.3813 50.0822 30.4413 58.8422C30.4413 63.3822 30.4413 68.4822 30.4413 73.7922C30.4413 96.8722 30.4413 123.722 30.4413 123.722H0.131284V69.2222C0.131284 67.3522 0.131285 65.4622 0.0712848 63.5722C0.00128479 59.7722 -0.0687158 55.9422 0.131284 52.1422C0.481284 45.8122 1.57128 39.5922 4.52128 33.8222C7.86561 27.3094 12.9308 21.8376 19.1665 18.0013C25.4023 14.165 32.5701 12.1109 39.8913 12.0622C40.4113 12.0622 40.8913 12.0622 41.4313 12.0622L41.4613 12.0822Z" fill="#820AD1"/>
<path d="M229.431 74.5122C229.641 70.7122 229.571 66.8822 229.501 63.0822C229.501 61.1922 229.431 59.3022 229.431 57.4422V2.93224H199.131C199.131 2.93224 199.131 29.7822 199.131 52.8622C199.131 58.1722 199.131 63.2722 199.131 67.8122C199.131 76.5722 199.131 83.2222 199.131 85.0922C198.591 98.5422 194.941 107.332 188.131 114.522C165.571 114.522 150.961 99.0022 150.131 74.3322C149.941 68.6622 149.861 54.6022 149.861 38.3322V2.91223H119.581V54.7822C119.581 67.5722 119.581 78.6022 120.471 86.4322C123.261 110.532 137.871 126.622 159.911 126.622C165.195 126.685 170.434 125.644 175.293 123.568C180.152 121.491 184.525 118.424 188.131 114.562C188.641 114.562 189.131 114.562 189.681 114.562C197.002 114.518 204.171 112.466 210.406 108.629C216.641 104.792 221.703 99.3179 225.041 92.8022C228.041 87.0222 229.091 80.8022 229.431 74.4822V74.5122Z" fill="#820AD1"/>
<path d="M325.511 70.5422C320.081 38.0022 293.181 34.8722 276.701 43.0122V3.3222C276.701 3.05699 276.596 2.80263 276.408 2.6151C276.221 2.42756 275.967 2.3222 275.701 2.3222H264.361C264.096 2.3222 263.842 2.42756 263.654 2.6151C263.467 2.80263 263.361 3.05699 263.361 3.3222V119.322C263.361 119.575 263.43 119.823 263.563 120.039C263.695 120.254 263.885 120.429 264.111 120.542C267.001 122.032 278.111 127.022 294.651 125.772C314.031 124.322 330.921 103.082 325.511 70.5422ZM307.011 107.462C296.581 123.312 276.701 114.842 276.701 114.842V50.6622C276.701 50.6622 283.231 46.1422 294.941 47.9522C314.711 51.4322 317.441 91.6122 307.011 107.462V107.462Z" fill="#820AD1"/>
<path d="M388.351 45.0223C371.801 33.0223 346.351 43.3422 342.861 44.8522C342.808 44.8749 342.76 44.9082 342.72 44.95C342.68 44.9917 342.648 45.0412 342.628 45.0954C342.607 45.1495 342.598 45.2073 342.6 45.2652C342.602 45.3231 342.616 45.3799 342.641 45.4322C343.091 46.4922 344.371 49.4322 345.761 52.6622C345.814 52.7772 345.908 52.868 346.025 52.9162C346.142 52.9645 346.273 52.9666 346.391 52.9223C384.181 38.5423 384.311 62.1222 384.311 62.1222V70.1922C382.371 70.1922 357.901 71.8722 345.241 82.7622C332.581 93.6522 335.801 116.352 350.671 122.622C372.081 130.972 393.031 122.372 396.591 120.782C396.751 120.71 396.886 120.594 396.98 120.446C397.074 120.299 397.123 120.127 397.121 119.952V69.2222C397.131 61.3222 396.561 51.8423 388.351 45.0223ZM384.421 115.172C384.421 115.172 355.131 127.322 350.531 102.982C346.771 83.3722 371.731 77.8422 384.421 77.2222V115.172Z" fill="#820AD1"/>
<path d="M417.411 124.422V45.4222C417.405 45.2209 417.461 45.0224 417.569 44.8529C417.678 44.6834 417.836 44.5507 418.021 44.4722C420.431 43.3222 429.941 38.5422 447.021 38.5422C467.461 38.5422 478.491 47.6922 478.491 69.8022V124.032C478.491 124.087 478.48 124.141 478.459 124.191C478.438 124.242 478.407 124.288 478.368 124.326C478.329 124.364 478.282 124.394 478.231 124.414C478.18 124.434 478.126 124.444 478.071 124.442H465.131C465.077 124.444 465.022 124.434 464.971 124.414C464.92 124.394 464.874 124.364 464.835 124.326C464.796 124.288 464.765 124.242 464.743 124.191C464.722 124.141 464.711 124.087 464.711 124.032V64.1422C464.748 61.7329 464.244 59.3459 463.237 57.1569C462.23 54.9678 460.745 53.0322 458.891 51.4922C454.141 47.7022 445.731 45.3122 431.061 50.8722V123.502C431.059 123.747 430.96 123.981 430.785 124.153C430.611 124.326 430.376 124.422 430.131 124.422H417.431" fill="#820AD1"/>
<path d="M498.621 123.942V3.0522C498.621 2.82677 498.711 2.61056 498.87 2.45116C499.03 2.29175 499.246 2.20221 499.471 2.20221H510.981C511.207 2.20221 511.423 2.29175 511.582 2.45116C511.742 2.61056 511.831 2.82677 511.831 3.0522V123.942C511.831 124.006 511.819 124.069 511.794 124.128C511.769 124.187 511.733 124.24 511.687 124.285C511.642 124.33 511.587 124.365 511.528 124.389C511.469 124.412 511.405 124.424 511.341 124.422H499.131C499.066 124.426 499 124.417 498.938 124.395C498.877 124.372 498.82 124.338 498.772 124.293C498.725 124.248 498.686 124.193 498.66 124.133C498.634 124.073 498.621 124.008 498.621 123.942V123.942Z" fill="#820AD1"/>
<path d="M511.831 80.4822L543.131 40.9022C543.21 40.8024 543.31 40.7218 543.424 40.6664C543.539 40.6109 543.664 40.5822 543.791 40.5822H556.561C556.724 40.5818 556.883 40.628 557.02 40.7152C557.157 40.8024 557.266 40.927 557.334 41.0743C557.403 41.2215 557.427 41.3853 557.406 41.5462C557.384 41.7071 557.316 41.8584 557.211 41.9822L524.611 80.4822L560.101 123.482C560.168 123.563 560.21 123.661 560.223 123.765C560.236 123.869 560.219 123.975 560.173 124.069C560.128 124.164 560.057 124.244 559.968 124.299C559.879 124.354 559.776 124.383 559.671 124.382H545.611C545.527 124.381 545.444 124.362 545.368 124.326C545.292 124.289 545.225 124.237 545.171 124.172L511.831 80.4822Z" fill="#820AD1"/>
</svg>